<ttFont>
<head>
    <!-- Most of this table will be recalculated by the compiler -->
    <tableVersion value="1.0"/>
    <fontRevision value="1.0"/>
    <checkSumAdjustment value="0xda85c008"/>
    <magicNumber value="0x5f0f3cf5"/>
    <flags value="00000000 00011011"/>
    <unitsPerEm value="1000"/>
    <created value="Tue Jan  8 10:32:00 2013"/>
    <modified value="Thu Nov  6 12:31:13 2014"/>
    <xMin value="-109"/>
    <yMin value="-306"/>
    <xMax value="1251"/>
    <yMax value="1115"/>
    <macStyle value="00000000 00000011"/>
    <lowestRecPPEM value="9"/>
    <fontDirectionHint value="2"/>
    <indexToLocFormat value="0"/>
    <glyphDataFormat value="0"/>
  </head>
    <TTGlyph name=".notdef" xMin="67" yMin="0" xMax="531" yMax="650">
      <contour>
        <pt x="67" y="650" on="1"/>
        <pt x="531" y="650" on="1"/>
        <pt x="531" y="0" on="1"/>
        <pt x="67" y="0" on="1"/>
      </contour>
      <contour>
        <pt x="457" y="604" on="1"/>
        <pt x="141" y="604" on="1"/>
        <pt x="300" y="367" on="1"/>
      </contour>
      <contour>
        <pt x="485" y="88" on="1"/>
        <pt x="485" y="562" on="1"/>
        <pt x="327" y="325" on="1"/>
      </contour>
      <contour>
        <pt x="457" y="47" on="1"/>
        <pt x="300" y="283" on="1"/>
        <pt x="141" y="47" on="1"/>
      </contour>
      <contour>
        <pt x="114" y="88" on="1"/>
        <pt x="271" y="325" on="1"/>
        <pt x="114" y="562" on="1"/>
      </contour>
    </TTGlyph>
    <TTGlyph name="A" xMin="-21" yMin="0" xMax="647" yMax="663">
      <contour>
        <pt x="298" y="663" on="1"/>
        <pt x="444" y="663" on="1"/>
        <pt x="455" y="663" on="0"/>
        <pt x="464" y="656" on="0"/>
        <pt x="466" y="648" on="1"/>
        <pt x="647" y="0" on="1"/>
        <pt x="505" y="0" on="1"/>
        <pt x="497" y="0" on="0"/>
        <pt x="488" y="4" on="0"/>
        <pt x="486" y="13" on="1"/>
        <pt x="457" y="123" on="1"/>
        <pt x="194" y="123" on="1"/>
        <pt x="144" y="13" on="1"/>
        <pt x="139" y="3" on="0"/>
        <pt x="130" y="0" on="0"/>
        <pt x="122" y="0" on="1"/>
        <pt x="-21" y="0" on="1"/>
      </contour>
      <contour>
        <pt x="364" y="520" on="1"/>
        <pt x="352" y="482" on="0"/>
        <pt x="303" y="363" on="0"/>
        <pt x="275" y="301" on="1"/>
        <pt x="251" y="247" on="1"/>
        <pt x="426" y="247" on="1"/>
        <pt x="412" y="302" on="1"/>
        <pt x="396" y="363" on="0"/>
        <pt x="371" y="480" on="0"/>
        <pt x="366" y="520" on="1"/>
      </contour>
    </TTGlyph>
    <TTGlyph name="AE" xMin="-46" yMin="0" xMax="988" yMax="663">
      <contour>
        <pt x="972" y="533" on="1"/>
        <pt x="651" y="533" on="1"/>
        <pt x="636" y="401" on="1"/>
        <pt x="926" y="401" on="1"/>
        <pt x="910" y="273" on="1"/>
        <pt x="620" y="273" on="1"/>
        <pt x="603" y="130" on="1"/>
        <pt x="934" y="130" on="1"/>
        <pt x="919" y="0" on="1"/>
        <pt x="434" y="0" on="1"/>
        <pt x="448" y="123" on="1"/>
        <pt x="215" y="123" on="1"/>
        <pt x="136" y="13" on="1"/>
        <pt x="131" y="6" on="0"/>
        <pt x="120" y="0" on="0"/>
        <pt x="109" y="0" on="1"/>
        <pt x="-46" y="0" on="1"/>
        <pt x="444" y="663" on="1"/>
        <pt x="988" y="663" on="1"/>
      </contour>
      <contour>
        <pt x="497" y="524" on="1"/>
        <pt x="488" y="507" on="0"/>
        <pt x="453" y="455" on="0"/>
        <pt x="411" y="394" on="0"/>
        <pt x="366" y="331" on="0"/>
        <pt x="347" y="304" on="1"/>
        <pt x="305" y="247" on="1"/>
        <pt x="464" y="247" on="1"/>
      </contour>
    </TTGlyph>
    <TTGlyph name="AEacute" xMin="-46" yMin="0" xMax="988" yMax="931">
      <component glyphName="AE" x="0" y="0" flags="0x204"/>
      <component glyphName="acute.cap" x="417" y="0" flags="0x4"/>
    </TTGlyph>
    <TTGlyph name="Aacute" xMin="-21" yMin="0" xMax="647" yMax="931">
      <component glyphName="A" x="0" y="0" flags="0x204"/>
      <component glyphName="acute.cap" x="141" y="0" flags="0x4"/>
    </TTGlyph>
    <TTGlyph name="Abreve" xMin="-21" yMin="0" xMax="647" yMax="900">
      <component glyphName="A" x="0" y="0" flags="0x204"/>
      <component glyphName="breve.cap" x="132" y="0" flags="0x4"/>
    </TTGlyph>
    <TTGlyph name="Acaron" xMin="-21" yMin="0" xMax="647" yMax="926">
      <component glyphName="A" x="0" y="0" flags="0x204"/>
      <component glyphName="caron.cap" x="122" y="0" flags="0x4"/>
    </TTGlyph>
    <TTGlyph name="Acircumflex" xMin="-21" yMin="0" xMax="647" yMax="915">
      <component glyphName="A" x="0" y="0" flags="0x204"/>
      <component glyphName="circumflex.cap" x="123" y="0" flags="0x4"/>
    </TTGlyph>
    <TTGlyph name="Adieresis" xMin="-21" yMin="0" xMax="647" yMax="873">
      <component glyphName="A" x="0" y="0" flags="0x204"/>
      <component glyphName="dieresis.cap" x="129" y="0" flags="0x4"/>
    </TTGlyph>
    <TTGlyph name="Agrave" xMin="-21" yMin="0" xMax="647" yMax="932">
      <component glyphName="A" x="0" y="0" flags="0x204"/>
      <component glyphName="grave.cap" x="137" y="0" flags="0x4"/>
    </TTGlyph>
    <TTGlyph name="Amacron" xMin="-21" yMin="0" xMax="647" yMax="865">
      <component glyphName="A" x="0" y="0" flags="0x204"/>
      <component glyphName="macron.cap" x="122" y="0" flags="0x4"/>
    </TTGlyph>
    <TTGlyph name="Aogonek" xMin="-21" yMin="-224" xMax="647" yMax="663">
      <contour>
        <pt x="457" y="123" on="1"/>
        <pt x="194" y="123" on="1"/>
        <pt x="144" y="13" on="1"/>
        <pt x="139" y="3" on="0"/>
        <pt x="130" y="0" on="0"/>
        <pt x="122" y="0" on="1"/>
        <pt x="-21" y="0" on="1"/>
        <pt x="298" y="663" on="1"/>
        <pt x="444" y="663" on="1"/>
        <pt x="455" y="663" on="0"/>
        <pt x="464" y="656" on="0"/>
        <pt x="466" y="648" on="1"/>
        <pt x="647" y="0" on="1"/>
        <pt x="597" y="0" on="1"/>
        <pt x="574" y="0" on="0"/>
        <pt x="537" y="-15" on="0"/>
        <pt x="526" y="-27" on="1"/>
        <pt x="513" y="-41" on="0"/>
        <pt x="501" y="-73" on="0"/>
        <pt x="501" y="-89" on="1"/>
        <pt x="501" y="-131" on="0"/>
        <pt x="551" y="-131" on="1"/>
        <pt x="557" y="-131" on="0"/>
        <pt x="594" y="-128" on="0"/>
        <pt x="613" y="-124" on="1"/>
        <pt x="625" y="-197" on="1"/>
        <pt x="601" y="-209" on="0"/>
        <pt x="540" y="-224" on="0"/>
        <pt x="516" y="-224" on="1"/>
        <pt x="460" y="-224" on="0"/>
        <pt x="393" y="-164" on="0"/>
        <pt x="393" y="-118" on="1"/>
        <pt x="393" y="-82" on="0"/>
        <pt x="439" y="-12" on="0"/>
        <pt x="484" y="20" on="1"/>
      </contour>
      <contour>
        <pt x="364" y="520" on="1"/>
        <pt x="352" y="482" on="0"/>
        <pt x="303" y="363" on="0"/>
        <pt x="275" y="301" on="1"/>
        <pt x="251" y="247" on="1"/>
        <pt x="426" y="247" on="1"/>
        <pt x="412" y="302" on="1"/>
        <pt x="396" y="363" on="0"/>
        <pt x="371" y="480" on="0"/>
        <pt x="366" y="520" on="1"/>
      </contour>
    </TTGlyph>
    <TTGlyph name="Aring" xMin="-21" yMin="0" xMax="647" yMax="893">
      <contour>
        <pt x="647" y="0" on="1"/>
        <pt x="505" y="0" on="1"/>
        <pt x="497" y="0" on="0"/>
        <pt x="488" y="4" on="0"/>
        <pt x="486" y="13" on="1"/>
        <pt x="457" y="123" on="1"/>
        <pt x="194" y="123" on="1"/>
        <pt x="144" y="13" on="1"/>
        <pt x="139" y="3" on="0"/>
        <pt x="130" y="0" on="0"/>
        <pt x="122" y="0" on="1"/>
        <pt x="-21" y="0" on="1"/>
        <pt x="300" y="667" on="1"/>
        <pt x="283" y="681" on="0"/>
        <pt x="263" y="729" on="0"/>
        <pt x="263" y="757" on="1"/>
        <pt x="263" y="786" on="0"/>
        <pt x="284" y="836" on="0"/>
        <pt x="320" y="872" on="0"/>
        <pt x="370" y="893" on="0"/>
        <pt x="400" y="893" on="1"/>
        <pt x="456" y="893" on="0"/>
        <pt x="524" y="823" on="0"/>
        <pt x="524" y="771" on="1"/>
        <pt x="524" y="734" on="0"/>
        <pt x="492" y="674" on="0"/>
        <pt x="463" y="659" on="1"/>
      </contour>
      <contour>
        <pt x="444" y="768" on="1"/>
        <pt x="444" y="788" on="0"/>
        <pt x="420" y="814" on="0"/>
        <pt x="396" y="814" on="1"/>
        <pt x="371" y="814" on="0"/>
        <pt x="343" y="785" on="0"/>
        <pt x="343" y="760" on="1"/>
        <pt x="343" y="740" on="0"/>
        <pt x="367" y="714" on="0"/>
        <pt x="391" y="714" on="1"/>
        <pt x="416" y="714" on="0"/>
        <pt x="444" y="743" on="0"/>
      </contour>
      <contour>
        <pt x="364" y="520" on="1"/>
        <pt x="352" y="482" on="0"/>
        <pt x="303" y="363" on="0"/>
        <pt x="275" y="301" on="1"/>
        <pt x="251" y="247" on="1"/>
        <pt x="426" y="247" on="1"/>
        <pt x="412" y="302" on="1"/>
        <pt x="396" y="363" on="0"/>
        <pt x="371" y="480" on="0"/>
        <pt x="366" y="520" on="1"/>
      </contour>
    </TTGlyph>
    <TTGlyph name="Aringacute" xMin="-21" yMin="0" xMax="647" yMax="1115">
      <component glyphName="acute.cap" x="151" y="184" flags="0x4"/>
      <component glyphName="Aring" x="0" y="0" flags="0x4"/>
    </TTGlyph>
    <TTGlyph name="Atilde" xMin="-21" yMin="0" xMax="647" yMax="890">
      <component glyphName="A" x="0" y="0" flags="0x204"/>
      <component glyphName="tilde.cap" x="104" y="0" flags="0x4"/>
    </TTGlyph>
    <TTGlyph name="B" xMin="35" yMin="0" xMax="611" yMax="663">
      <contour>
        <pt x="114" y="663" on="1"/>
        <pt x="381" y="663" on="1"/>
        <pt x="444" y="663" on="0"/>
        <pt x="534" y="640" on="0"/>
        <pt x="562" y="614" on="1"/>
        <pt x="602" y="577" on="0"/>
        <pt x="602" y="510" on="1"/>
        <pt x="602" y="467" on="0"/>
        <pt x="558" y="386" on="0"/>
        <pt x="523" y="356" on="1"/>
        <pt x="564" y="335" on="0"/>
        <pt x="611" y="265" on="0"/>
        <pt x="611" y="216" on="1"/>
        <pt x="611" y="174" on="0"/>
        <pt x="581" y="101" on="0"/>
        <pt x="552" y="72" on="1"/>
        <pt x="518" y="39" on="0"/>
        <pt x="411" y="0" on="0"/>
        <pt x="330" y="0" on="1"/>
        <pt x="35" y="0" on="1"/>
      </contour>
      <contour>
        <pt x="204" y="130" on="1"/>
        <pt x="341" y="130" on="1"/>
        <pt x="374" y="130" on="0"/>
        <pt x="418" y="145" on="0"/>
        <pt x="431" y="158" on="1"/>
        <pt x="454" y="181" on="0"/>
        <pt x="454" y="217" on="1"/>
        <pt x="454" y="243" on="0"/>
        <pt x="439" y="256" on="1"/>
        <pt x="428" y="266" on="0"/>
        <pt x="393" y="273" on="0"/>
        <pt x="370" y="273" on="1"/>
        <pt x="221" y="273" on="1"/>
      </contour>
      <contour>
        <pt x="396" y="393" on="1"/>
        <pt x="408" y="393" on="0"/>
        <pt x="421" y="399" on="0"/>
        <pt x="427" y="407" on="1"/>
        <pt x="436" y="420" on="0"/>
        <pt x="449" y="457" on="0"/>
        <pt x="449" y="477" on="1"/>
        <pt x="449" y="505" on="0"/>
        <pt x="435" y="517" on="1"/>
        <pt x="418" y="533" on="0"/>
        <pt x="375" y="533" on="1"/>
        <pt x="252" y="533" on="1"/>
        <pt x="236" y="393" on="1"/>
      </contour>
    </TTGlyph>
    <TTGlyph name="C" xMin="42" yMin="-10" xMax="655" yMax="673">
      <contour>
        <pt x="633" y="104" on="1"/>
        <pt x="606" y="80" on="0"/>
        <pt x="537" y="38" on="0"/>
        <pt x="460" y="7" on="0"/>
        <pt x="379" y="-10" on="0"/>
        <pt x="339" y="-10" on="1"/>
        <pt x="272" y="-10" on="0"/>
        <pt x="164" y="33" on="0"/>
        <pt x="126" y="71" on="1"/>
        <pt x="84" y="113" on="0"/>
        <pt x="42" y="230" on="0"/>
        <pt x="42" y="302" on="1"/>
        <pt x="42" y="381" on="0"/>
        <pt x="98" y="517" on="0"/>
        <pt x="193" y="617" on="0"/>
        <pt x="319" y="673" on="0"/>
        <pt x="388" y="673" on="1"/>
        <pt x="434" y="673" on="0"/>
        <pt x="517" y="645" on="0"/>
        <pt x="587" y="593" on="0"/>
        <pt x="640" y="518" on="0"/>
        <pt x="655" y="471" on="1"/>
        <pt x="550" y="411" on="1"/>
        <pt x="474" y="477" on="1"/>
        <pt x="444" y="503" on="0"/>
        <pt x="400" y="526" on="0"/>
        <pt x="368" y="526" on="1"/>
        <pt x="333" y="526" on="0"/>
        <pt x="273" y="494" on="0"/>
        <pt x="228" y="437" on="0"/>
        <pt x="202" y="357" on="0"/>
        <pt x="202" y="308" on="1"/>
        <pt x="202" y="227" on="0"/>
        <pt x="284" y="140" on="0"/>
        <pt x="365" y="140" on="1"/>
        <pt x="392" y="140" on="0"/>
        <pt x="467" y="154" on="0"/>
        <pt x="507" y="168" on="1"/>
        <pt x="587" y="195" on="1"/>
      </contour>
    </TTGlyph>
    <TTGlyph name="Cacute" xMin="42" yMin="-10" xMax="655" yMax="931">
      <component glyphName="C" x="0" y="0" flags="0x204"/>
      <component glyphName="acute.cap" x="127" y="0" flags="0x4"/>
    </TTGlyph>
    <TTGlyph name="Ccaron" xMin="42" yMin="-10" xMax="655" yMax="926">
      <component glyphName="C" x="0" y="0" flags="0x204"/>
      <component glyphName="caron.cap" x="136" y="0" flags="0x4"/>
    </TTGlyph>
    <TTGlyph name="Ccedilla" xMin="42" yMin="-245" xMax="655" yMax="673">
      <contour>
        <pt x="633" y="104" on="1"/>
        <pt x="608" y="81" on="0"/>
        <pt x="546" y="43" on="0"/>
        <pt x="477" y="13" on="0"/>
        <pt x="404" y="-6" on="0"/>
        <pt x="368" y="-8" on="1"/>
        <pt x="362" y="-15" on="0"/>
        <pt x="354" y="-30" on="0"/>
        <pt x="354" y="-36" on="1"/>
        <pt x="354" y="-44" on="0"/>
        <pt x="383" y="-56" on="0"/>
        <pt x="417" y="-74" on="0"/>
        <pt x="446" y="-102" on="0"/>
        <pt x="446" y="-126" on="1"/>
        <pt x="446" y="-155" on="0"/>
        <pt x="412" y="-199" on="0"/>
        <pt x="357" y="-228" on="0"/>
        <pt x="285" y="-244" on="0"/>
        <pt x="246" y="-245" on="1"/>
        <pt x="241" y="-168" on="1"/>
        <pt x="295" y="-159" on="1"/>
        <pt x="330" y="-153" on="0"/>
        <pt x="330" y="-137" on="1"/>
        <pt x="330" y="-129" on="0"/>
        <pt x="305" y="-117" on="0"/>
        <pt x="275" y="-104" on="0"/>
        <pt x="250" y="-84" on="0"/>
        <pt x="250" y="-68" on="1"/>
        <pt x="250" y="-54" on="0"/>
        <pt x="271" y="-23" on="0"/>
        <pt x="288" y="-6" on="1"/>
        <pt x="238" y="1" on="0"/>
        <pt x="157" y="40" on="0"/>
        <pt x="126" y="71" on="1"/>
        <pt x="84" y="113" on="0"/>
        <pt x="42" y="230" on="0"/>
        <pt x="42" y="302" on="1"/>
        <pt x="42" y="381" on="0"/>
        <pt x="98" y="517" on="0"/>
        <pt x="193" y="617" on="0"/>
        <pt x="319" y="673" on="0"/>
        <pt x="388" y="673" on="1"/>
        <pt x="434" y="673" on="0"/>
        <pt x="517" y="645" on="0"/>
        <pt x="587" y="593" on="0"/>
        <pt x="640" y="518" on="0"/>
        <pt x="655" y="471" on="1"/>
        <pt x="550" y="411" on="1"/>
        <pt x="474" y="477" on="1"/>
        <pt x="444" y="503" on="0"/>
        <pt x="400" y="526" on="0"/>
        <pt x="368" y="526" on="1"/>
        <pt x="333" y="526" on="0"/>
        <pt x="273" y="494" on="0"/>
        <pt x="228" y="437" on="0"/>
        <pt x="202" y="357" on="0"/>
        <pt x="202" y="308" on="1"/>
        <pt x="202" y="227" on="0"/>
        <pt x="284" y="140" on="0"/>
        <pt x="365" y="140" on="1"/>
        <pt x="392" y="140" on="0"/>
        <pt x="467" y="154" on="0"/>
        <pt x="507" y="168" on="1"/>
        <pt x="587" y="195" on="1"/>
      </contour>
    </TTGlyph>
    <TTGlyph name="Ccircumflex" xMin="42" yMin="-10" xMax="655" yMax="915">
      <component glyphName="C" x="0" y="0" flags="0x204"/>
      <component glyphName="circumflex.cap" x="140" y="0" flags="0x4"/>
    </TTGlyph>
    <TTGlyph name="Cdotaccent" xMin="42" yMin="-10" xMax="655" yMax="868">
      <component glyphName="C" x="0" y="0" flags="0x204"/>
      <component glyphName="dotaccent.cap" x="143" y="0" flags="0x4"/>
    </TTGlyph>
    <TTGlyph name="D" xMin="35" yMin="0" xMax="678" yMax="663">
      <contour>
        <pt x="114" y="663" on="1"/>
        <pt x="335" y="663" on="1"/>
        <pt x="424" y="663" on="0"/>
        <pt x="552" y="630" on="0"/>
        <pt x="597" y="590" on="1"/>
        <pt x="635" y="556" on="0"/>
        <pt x="678" y="453" on="0"/>
        <pt x="678" y="383" on="1"/>
        <pt x="678" y="298" on="0"/>
        <pt x="614" y="152" on="0"/>
        <pt x="560" y="101" on="1"/>
        <pt x="508" y="52" on="0"/>
        <pt x="367" y="0" on="0"/>
        <pt x="266" y="0" on="1"/>
        <pt x="35" y="0" on="1"/>
      </contour>
      <contour>
        <pt x="277" y="135" on="1"/>
        <pt x="337" y="135" on="0"/>
        <pt x="422" y="167" on="0"/>
        <pt x="451" y="196" on="1"/>
        <pt x="484" y="229" on="0"/>
        <pt x="519" y="332" on="0"/>
        <pt x="519" y="383" on="1"/>
        <pt x="519" y="420" on="0"/>
        <pt x="499" y="473" on="0"/>
        <pt x="482" y="490" on="1"/>
        <pt x="459" y="512" on="0"/>
        <pt x="385" y="528" on="0"/>
        <pt x="334" y="528" on="1"/>
        <pt x="252" y="528" on="1"/>
        <pt x="204" y="135" on="1"/>
      </contour>
    </TTGlyph>
    <TTGlyph name="Dcaron" xMin="35" yMin="0" xMax="678" yMax="926">
      <component glyphName="D" x="0" y="0" flags="0x204"/>
      <component glyphName="caron.cap" x="135" y="0" flags="0x4"/>
    </TTGlyph>
    <TTGlyph name="Dcroat" xMin="14" yMin="0" xMax="700" yMax="663">
      <contour>
        <pt x="90" y="279" on="1"/>
        <pt x="14" y="279" on="1"/>
        <pt x="28" y="396" on="1"/>
        <pt x="104" y="396" on="1"/>
        <pt x="136" y="663" on="1"/>
        <pt x="357" y="663" on="1"/>
        <pt x="446" y="663" on="0"/>
        <pt x="574" y="630" on="0"/>
        <pt x="619" y="590" on="1"/>
        <pt x="657" y="556" on="0"/>
        <pt x="700" y="453" on="0"/>
        <pt x="700" y="383" on="1"/>
        <pt x="700" y="298" on="0"/>
        <pt x="636" y="152" on="0"/>
        <pt x="582" y="101" on="1"/>
        <pt x="530" y="52" on="0"/>
        <pt x="389" y="0" on="0"/>
        <pt x="288" y="0" on="1"/>
        <pt x="57" y="0" on="1"/>
      </contour>
      <contour>
        <pt x="299" y="135" on="1"/>
        <pt x="359" y="135" on="0"/>
        <pt x="444" y="167" on="0"/>
        <pt x="473" y="196" on="1"/>
        <pt x="506" y="229" on="0"/>
        <pt x="541" y="329" on="0"/>
        <pt x="541" y="383" on="1"/>
        <pt x="541" y="420" on="0"/>
        <pt x="521" y="474" on="0"/>
        <pt x="504" y="491" on="1"/>
        <pt x="481" y="513" on="0"/>
        <pt x="407" y="529" on="0"/>
        <pt x="356" y="529" on="1"/>
        <pt x="274" y="529" on="1"/>
        <pt x="258" y="396" on="1"/>
        <pt x="390" y="396" on="1"/>
        <pt x="376" y="279" on="1"/>
        <pt x="244" y="279" on="1"/>
        <pt x="227" y="135" on="1"/>
      </contour>
    </TTGlyph>
    <TTGlyph name="Delta" xMin="4" yMin="0" xMax="604" yMax="663">
      <contour>
        <pt x="389" y="360" on="1"/>
        <pt x="374" y="420" on="0"/>
        <pt x="359" y="496" on="0"/>
        <pt x="355" y="527" on="1"/>
        <pt x="347" y="506" on="0"/>
        <pt x="331" y="466" on="0"/>
        <pt x="314" y="424" on="0"/>
        <pt x="294" y="379" on="0"/>
        <pt x="282" y="352" on="1"/>
        <pt x="230" y="236" on="1"/>
        <pt x="223" y="221" on="0"/>
        <pt x="208" y="188" on="0"/>
        <pt x="193" y="158" on="0"/>
        <pt x="179" y="132" on="0"/>
        <pt x="175" y="125" on="1"/>
        <pt x="182" y="126" on="0"/>
        <pt x="206" y="127" on="0"/>
        <pt x="231" y="128" on="0"/>
        <pt x="254" y="129" on="0"/>
        <pt x="262" y="129" on="1"/>
        <pt x="360" y="129" on="1"/>
        <pt x="368" y="129" on="0"/>
        <pt x="395" y="128" on="0"/>
        <pt x="423" y="127" on="0"/>
        <pt x="447" y="126" on="0"/>
        <pt x="452" y="125" on="1"/>
        <pt x="450" y="131" on="0"/>
        <pt x="443" y="156" on="0"/>
        <pt x="434" y="185" on="0"/>
        <pt x="425" y="216" on="0"/>
        <pt x="422" y="230" on="1"/>
      </contour>
      <contour>
        <pt x="594" y="0" on="1"/>
        <pt x="4" y="0" on="1"/>
        <pt x="10" y="47" on="1"/>
        <pt x="12" y="62" on="0"/>
        <pt x="16" y="87" on="0"/>
        <pt x="25" y="115" on="0"/>
        <pt x="41" y="151" on="0"/>
        <pt x="55" y="179" on="1"/>
        <pt x="289" y="663" on="1"/>
        <pt x="435" y="663" on="1"/>
        <pt x="445" y="663" on="0"/>
        <pt x="452" y="658" on="0"/>
        <pt x="455" y="648" on="1"/>
        <pt x="591" y="160" on="1"/>
        <pt x="600" y="129" on="0"/>
        <pt x="604" y="88" on="0"/>
        <pt x="602" y="67" on="1"/>
      </contour>
    </TTGlyph>
    <TTGlyph name="E" xMin="35" yMin="0" xMax="589" yMax="663">
      <contour>
        <pt x="589" y="663" on="1"/>
        <pt x="573" y="533" on="1"/>
        <pt x="252" y="533" on="1"/>
        <pt x="236" y="401" on="1"/>
        <pt x="527" y="401" on="1"/>
        <pt x="511" y="273" on="1"/>
        <pt x="221" y="273" on="1"/>
        <pt x="204" y="130" on="1"/>
        <pt x="535" y="130" on="1"/>
        <pt x="520" y="0" on="1"/>
        <pt x="35" y="0" on="1"/>
        <pt x="114" y="663" on="1"/>
      </contour>
    </TTGlyph>
    <TTGlyph name="Eacute" xMin="35" yMin="0" xMax="589" yMax="931">
      <component glyphName="E" x="0" y="0" flags="0x204"/>
      <component glyphName="acute.cap" x="109" y="0" flags="0x4"/>
    </TTGlyph>
    <TTGlyph name="Ebreve" xMin="35" yMin="0" xMax="589" yMax="900">
      <component glyphName="E" x="0" y="0" flags="0x204"/>
      <component glyphName="breve.cap" x="95" y="0" flags="0x4"/>
    </TTGlyph>
    <TTGlyph name="Ecaron" xMin="35" yMin="0" xMax="589" yMax="926">
      <component glyphName="E" x="0" y="0" flags="0x204"/>
      <component glyphName="caron.cap" x="107" y="0" flags="0x4"/>
    </TTGlyph>
    <TTGlyph name="Ecircumflex" xMin="35" yMin="0" xMax="589" yMax="915">
      <component glyphName="E" x="0" y="0" flags="0x204"/>
      <component glyphName="circumflex.cap" x="112" y="0" flags="0x4"/>
    </TTGlyph>
    <TTGlyph name="Edieresis" xMin="35" yMin="0" xMax="589" yMax="873">
      <component glyphName="E" x="0" y="0" flags="0x204"/>
      <component glyphName="dieresis.cap" x="101" y="0" flags="0x4"/>
    </TTGlyph>
    <TTGlyph name="Edotaccent" xMin="35" yMin="0" xMax="589" yMax="868">
      <component glyphName="E" x="0" y="0" flags="0x204"/>
      <component glyphName="dotaccent.cap" x="104" y="0" flags="0x4"/>
    </TTGlyph>
    <TTGlyph name="Egrave" xMin="35" yMin="0" xMax="589" yMax="932">
      <component glyphName="E" x="0" y="0" flags="0x204"/>
      <component glyphName="grave.cap" x="108" y="0" flags="0x4"/>
    </TTGlyph>
    <TTGlyph name="Emacron" xMin="35" yMin="0" xMax="589" yMax="865">
      <component glyphName="E" x="0" y="0" flags="0x204"/>
      <component glyphName="macron.cap" x="91" y="0" flags="0x4"/>
    </TTGlyph>
    <TTGlyph name="Eng" xMin="35" yMin="-238" xMax="706" yMax="663">
      <contour>
        <pt x="297" y="315" on="1"/>
        <pt x="289" y="328" on="0"/>
        <pt x="270" y="357" on="0"/>
        <pt x="252" y="385" on="0"/>
        <pt x="236" y="412" on="0"/>
        <pt x="230" y="422" on="1"/>
        <pt x="179" y="0" on="1"/>
        <pt x="35" y="0" on="1"/>
        <pt x="114" y="663" on="1"/>
        <pt x="222" y="663" on="1"/>
        <pt x="233" y="663" on="0"/>
        <pt x="243" y="658" on="0"/>
        <pt x="248" y="650" on="1"/>
        <pt x="445" y="346" on="1"/>
        <pt x="512" y="241" on="1"/>
        <pt x="563" y="663" on="1"/>
        <pt x="706" y="663" on="1"/>
        <pt x="626" y="-7" on="1"/>
        <pt x="619" y="-63" on="0"/>
        <pt x="591" y="-150" on="0"/>
        <pt x="542" y="-208" on="0"/>
        <pt x="472" y="-238" on="0"/>
        <pt x="423" y="-238" on="1"/>
        <pt x="382" y="-238" on="0"/>
        <pt x="299" y="-211" on="0"/>
        <pt x="268" y="-192" on="1"/>
        <pt x="300" y="-97" on="1"/>
        <pt x="309" y="-98" on="0"/>
        <pt x="335" y="-101" on="0"/>
        <pt x="363" y="-103" on="0"/>
        <pt x="389" y="-104" on="0"/>
        <pt x="397" y="-104" on="1"/>
        <pt x="442" y="-104" on="0"/>
        <pt x="474" y="-68" on="0"/>
        <pt x="479" y="-27" on="1"/>
        <pt x="485" y="26" on="1"/>
      </contour>
    </TTGlyph>
    <TTGlyph name="Eogonek" xMin="35" yMin="-224" xMax="589" yMax="663">
      <contour>
        <pt x="589" y="663" on="1"/>
        <pt x="573" y="533" on="1"/>
        <pt x="252" y="533" on="1"/>
        <pt x="236" y="401" on="1"/>
        <pt x="527" y="401" on="1"/>
        <pt x="511" y="273" on="1"/>
        <pt x="221" y="273" on="1"/>
        <pt x="204" y="130" on="1"/>
        <pt x="535" y="130" on="1"/>
        <pt x="520" y="0" on="1"/>
        <pt x="442" y="0" on="1"/>
        <pt x="426" y="0" on="0"/>
        <pt x="407" y="-10" on="0"/>
        <pt x="395" y="-25" on="1"/>
        <pt x="382" y="-42" on="0"/>
        <pt x="367" y="-74" on="0"/>
        <pt x="367" y="-90" on="1"/>
        <pt x="367" y="-131" on="0"/>
        <pt x="417" y="-131" on="1"/>
        <pt x="423" y="-131" on="0"/>
        <pt x="460" y="-128" on="0"/>
        <pt x="479" y="-124" on="1"/>
        <pt x="491" y="-197" on="1"/>
        <pt x="467" y="-209" on="0"/>
        <pt x="406" y="-224" on="0"/>
        <pt x="382" y="-224" on="1"/>
        <pt x="326" y="-224" on="0"/>
        <pt x="259" y="-164" on="0"/>
        <pt x="259" y="-118" on="1"/>
        <pt x="259" y="-57" on="0"/>
        <pt x="318" y="0" on="1"/>
        <pt x="35" y="0" on="1"/>
        <pt x="114" y="663" on="1"/>
      </contour>
    </TTGlyph>
    <TTGlyph name="Eth" xMin="14" yMin="0" xMax="700" yMax="663">
      <contour>
        <pt x="90" y="279" on="1"/>
        <pt x="14" y="279" on="1"/>
        <pt x="28" y="396" on="1"/>
        <pt x="104" y="396" on="1"/>
        <pt x="136" y="663" on="1"/>
        <pt x="357" y="663" on="1"/>
        <pt x="446" y="663" on="0"/>
        <pt x="574" y="630" on="0"/>
        <pt x="619" y="590" on="1"/>
        <pt x="657" y="556" on="0"/>
        <pt x="700" y="453" on="0"/>
        <pt x="700" y="383" on="1"/>
        <pt x="700" y="298" on="0"/>
        <pt x="636" y="152" on="0"/>
        <pt x="582" y="101" on="1"/>
        <pt x="530" y="52" on="0"/>
        <pt x="389" y="0" on="0"/>
        <pt x="288" y="0" on="1"/>
        <pt x="57" y="0" on="1"/>
      </contour>
      <contour>
        <pt x="299" y="135" on="1"/>
        <pt x="359" y="135" on="0"/>
        <pt x="444" y="167" on="0"/>
        <pt x="473" y="196" on="1"/>
        <pt x="506" y="229" on="0"/>
        <pt x="541" y="329" on="0"/>
        <pt x="541" y="383" on="1"/>
        <pt x="541" y="420" on="0"/>
        <pt x="521" y="474" on="0"/>
        <pt x="504" y="491" on="1"/>
        <pt x="481" y="513" on="0"/>
        <pt x="407" y="529" on="0"/>
        <pt x="356" y="529" on="1"/>
        <pt x="274" y="529" on="1"/>
        <pt x="258" y="396" on="1"/>
        <pt x="390" y="396" on="1"/>
        <pt x="376" y="279" on="1"/>
        <pt x="244" y="279" on="1"/>
        <pt x="227" y="135" on="1"/>
      </contour>
    </TTGlyph>
    <TTGlyph name="Euro" xMin="40" yMin="-10" xMax="648" yMax="673">
      <contour>
        <pt x="268" y="231" on="1"/>
        <pt x="273" y="181" on="0"/>
        <pt x="331" y="129" on="0"/>
        <pt x="382" y="129" on="1"/>
        <pt x="409" y="129" on="0"/>
        <pt x="469" y="142" on="0"/>
        <pt x="504" y="153" on="1"/>
        <pt x="571" y="174" on="1"/>
        <pt x="612" y="88" on="1"/>
        <pt x="589" y="67" on="0"/>
        <pt x="528" y="31" on="0"/>
        <pt x="462" y="5" on="0"/>
        <pt x="393" y="-10" on="0"/>
        <pt x="362" y="-10" on="1"/>
        <pt x="306" y="-10" on="0"/>
        <pt x="218" y="27" on="0"/>
        <pt x="154" y="91" on="0"/>
        <pt x="117" y="180" on="0"/>
        <pt x="114" y="231" on="1"/>
        <pt x="40" y="231" on="1"/>
        <pt x="47" y="288" on="1"/>
        <pt x="114" y="303" on="1"/>
        <pt x="114" y="314" on="0"/>
        <pt x="117" y="341" on="0"/>
        <pt x="119" y="350" on="1"/>
        <pt x="55" y="350" on="1"/>
        <pt x="62" y="408" on="1"/>
        <pt x="133" y="423" on="1"/>
        <pt x="147" y="480" on="0"/>
        <pt x="204" y="572" on="0"/>
        <pt x="280" y="638" on="0"/>
        <pt x="371" y="673" on="0"/>
        <pt x="419" y="673" on="1"/>
        <pt x="459" y="673" on="0"/>
        <pt x="530" y="650" on="0"/>
        <pt x="589" y="609" on="0"/>
        <pt x="634" y="555" on="0"/>
        <pt x="648" y="524" on="1"/>
        <pt x="559" y="453" on="1"/>
        <pt x="508" y="494" on="1"/>
        <pt x="481" y="516" on="0"/>
        <pt x="440" y="536" on="0"/>
        <pt x="413" y="536" on="1"/>
        <pt x="371" y="536" on="0"/>
        <pt x="299" y="483" on="0"/>
        <pt x="283" y="425" on="1"/>
        <pt x="457" y="425" on="1"/>
        <pt x="448" y="350" on="1"/>
        <pt x="271" y="350" on="1"/>
        <pt x="268" y="328" on="0"/>
        <pt x="266" y="305" on="1"/>
        <pt x="442" y="305" on="1"/>
        <pt x="433" y="231" on="1"/>
      </contour>
    </TTGlyph>
    <TTGlyph name="Euro.lprop" xMin="46" yMin="-10" xMax="654" yMax="673">
      <component glyphName="Euro" x="6" y="0" flags="0x4"/>
    </TTGlyph>
    <TTGlyph name="Euro.oprop" xMin="34" yMin="-8" xMax="570" yMax="496">
      <contour>
        <pt x="246" y="254" on="1"/>
        <pt x="245" y="249" on="0"/>
        <pt x="245" y="237" on="0"/>
        <pt x="245" y="229" on="1"/>
        <pt x="372" y="229" on="1"/>
        <pt x="365" y="174" on="1"/>
        <pt x="256" y="174" on="1"/>
        <pt x="266" y="148" on="0"/>
        <pt x="313" y="119" on="0"/>
        <pt x="348" y="119" on="1"/>
        <pt x="370" y="119" on="0"/>
        <pt x="423" y="132" on="0"/>
        <pt x="450" y="141" on="1"/>
        <pt x="510" y="161" on="1"/>
        <pt x="552" y="83" on="1"/>
        <pt x="531" y="63" on="0"/>
        <pt x="476" y="30" on="0"/>
        <pt x="416" y="6" on="0"/>
        <pt x="354" y="-8" on="0"/>
        <pt x="326" y="-8" on="1"/>
        <pt x="236" y="-8" on="0"/>
        <pt x="118" y="89" on="0"/>
        <pt x="104" y="174" on="1"/>
        <pt x="34" y="174" on="1"/>
        <pt x="39" y="217" on="1"/>
        <pt x="101" y="226" on="1"/>
        <pt x="101" y="234" on="0"/>
        <pt x="101" y="247" on="0"/>
        <pt x="102" y="254" on="1"/>
        <pt x="44" y="254" on="1"/>
        <pt x="49" y="297" on="1"/>
        <pt x="113" y="307" on="1"/>
        <pt x="125" y="348" on="0"/>
        <pt x="172" y="418" on="0"/>
        <pt x="235" y="468" on="0"/>
        <pt x="313" y="496" on="0"/>
        <pt x="358" y="496" on="1"/>
        <pt x="395" y="496" on="0"/>
        <pt x="464" y="474" on="0"/>
        <pt x="519" y="431" on="0"/>
        <pt x="560" y="369" on="0"/>
        <pt x="570" y="329" on="1"/>
        <pt x="472" y="282" on="1"/>
        <pt x="434" y="322" on="1"/>
        <pt x="410" y="347" on="0"/>
        <pt x="372" y="369" on="0"/>
        <pt x="350" y="369" on="1"/>
        <pt x="320" y="369" on="0"/>
        <pt x="277" y="336" on="0"/>
        <pt x="263" y="310" on="1"/>
        <pt x="382" y="310" on="1"/>
        <pt x="375" y="254" on="1"/>
        <pt x="246" y="254" on="1"/>
      </contour>
    </TTGlyph>
    <TTGlyph name="Euro.otab" xMin="48" yMin="-8" xMax="584" yMax="496">
      <contour>
        <pt x="260" y="254" on="1"/>
        <pt x="259" y="249" on="0"/>
        <pt x="259" y="237" on="0"/>
        <pt x="259" y="229" on="1"/>
        <pt x="386" y="229" on="1"/>
        <pt x="379" y="174" on="1"/>
        <pt x="270" y="174" on="1"/>
        <pt x="280" y="148" on="0"/>
        <pt x="327" y="119" on="0"/>
        <pt x="362" y="119" on="1"/>
        <pt x="384" y="119" on="0"/>
        <pt x="437" y="132" on="0"/>
        <pt x="464" y="141" on="1"/>
        <pt x="524" y="161" on="1"/>
        <pt x="566" y="83" on="1"/>
        <pt x="545" y="63" on="0"/>
        <pt x="490" y="30" on="0"/>
        <pt x="430" y="6" on="0"/>
        <pt x="368" y="-8" on="0"/>
        <pt x="340" y="-8" on="1"/>
        <pt x="250" y="-8" on="0"/>
        <pt x="132" y="89" on="0"/>
        <pt x="118" y="174" on="1"/>
        <pt x="48" y="174" on="1"/>
        <pt x="53" y="217" on="1"/>
        <pt x="115" y="226" on="1"/>
        <pt x="115" y="234" on="0"/>
        <pt x="115" y="247" on="0"/>
        <pt x="116" y="254" on="1"/>
        <pt x="58" y="254" on="1"/>
        <pt x="63" y="297" on="1"/>
        <pt x="127" y="307" on="1"/>
        <pt x="139" y="348" on="0"/>
        <pt x="186" y="418" on="0"/>
        <pt x="249" y="468" on="0"/>
        <pt x="327" y="496" on="0"/>
        <pt x="372" y="496" on="1"/>
        <pt x="409" y="496" on="0"/>
        <pt x="478" y="474" on="0"/>
        <pt x="533" y="431" on="0"/>
        <pt x="574" y="369" on="0"/>
        <pt x="584" y="329" on="1"/>
        <pt x="486" y="282" on="1"/>
        <pt x="448" y="322" on="1"/>
        <pt x="424" y="347" on="0"/>
        <pt x="386" y="369" on="0"/>
        <pt x="364" y="369" on="1"/>
        <pt x="334" y="369" on="0"/>
        <pt x="291" y="336" on="0"/>
        <pt x="277" y="310" on="1"/>
        <pt x="396" y="310" on="1"/>
        <pt x="389" y="254" on="1"/>
        <pt x="260" y="254" on="1"/>
      </contour>
    </TTGlyph>
    <TTGlyph name="F" xMin="35" yMin="0" xMax="584" yMax="663">
      <contour>
        <pt x="584" y="663" on="1"/>
        <pt x="568" y="533" on="1"/>
        <pt x="253" y="533" on="1"/>
        <pt x="234" y="380" on="1"/>
        <pt x="519" y="380" on="1"/>
        <pt x="503" y="252" on="1"/>
        <pt x="219" y="252" on="1"/>
        <pt x="189" y="0" on="1"/>
        <pt x="35" y="0" on="1"/>
        <pt x="114" y="663" on="1"/>
      </contour>
    </TTGlyph>
    <TTGlyph name="G" xMin="42" yMin="-10" xMax="677" yMax="673">
      <contour>
        <pt x="515" y="47" on="1"/>
        <pt x="476" y="28" on="1"/>
        <pt x="441" y="10" on="0"/>
        <pt x="363" y="-10" on="0"/>
        <pt x="325" y="-10" on="1"/>
        <pt x="261" y="-10" on="0"/>
        <pt x="156" y="38" on="0"/>
        <pt x="82" y="120" on="0"/>
        <pt x="42" y="232" on="0"/>
        <pt x="42" y="297" on="1"/>
        <pt x="42" y="379" on="0"/>
        <pt x="98" y="518" on="0"/>
        <pt x="196" y="617" on="0"/>
        <pt x="326" y="673" on="0"/>
        <pt x="400" y="673" on="1"/>
        <pt x="445" y="673" on="0"/>
        <pt x="527" y="647" on="0"/>
        <pt x="598" y="600" on="0"/>
        <pt x="652" y="533" on="0"/>
        <pt x="669" y="492" on="1"/>
        <pt x="565" y="428" on="1"/>
        <pt x="505" y="475" on="1"/>
        <pt x="469" y="504" on="0"/>
        <pt x="412" y="528" on="0"/>
        <pt x="381" y="528" on="1"/>
        <pt x="343" y="528" on="0"/>
        <pt x="278" y="496" on="0"/>
        <pt x="230" y="439" on="0"/>
        <pt x="202" y="360" on="0"/>
        <pt x="202" y="313" on="1"/>
        <pt x="202" y="227" on="0"/>
        <pt x="280" y="137" on="0"/>
        <pt x="365" y="137" on="1"/>
        <pt x="378" y="137" on="0"/>
        <pt x="411" y="141" on="0"/>
        <pt x="445" y="147" on="0"/>
        <pt x="477" y="154" on="0"/>
        <pt x="488" y="158" on="1"/>
        <pt x="498" y="161" on="0"/>
        <pt x="503" y="168" on="0"/>
        <pt x="505" y="178" on="1"/>
        <pt x="514" y="243" on="1"/>
        <pt x="416" y="243" on="1"/>
        <pt x="429" y="354" on="1"/>
        <pt x="652" y="354" on="1"/>
        <pt x="677" y="354" on="0"/>
        <pt x="674" y="331" on="1"/>
        <pt x="635" y="0" on="1"/>
        <pt x="532" y="0" on="1"/>
      </contour>
    </TTGlyph>
    <TTGlyph name="Gbreve" xMin="42" yMin="-10" xMax="677" yMax="900">
      <component glyphName="G" x="0" y="0" flags="0x204"/>
      <component glyphName="breve.cap" x="159" y="0" flags="0x4"/>
    </TTGlyph>
    <TTGlyph name="Gcircumflex" xMin="42" yMin="-10" xMax="677" yMax="915">
      <component glyphName="G" x="0" y="0" flags="0x204"/>
      <component glyphName="circumflex.cap" x="158" y="0" flags="0x4"/>
    </TTGlyph>
    <TTGlyph name="Gcommaaccent" xMin="42" yMin="-306" xMax="677" yMax="673">
      <component glyphName="G" x="0" y="0" flags="0x204"/>
      <component glyphName="commaaccent" x="157" y="0" flags="0x4"/>
    </TTGlyph>
    <TTGlyph name="Gdotaccent" xMin="42" yMin="-10" xMax="677" yMax="868">
      <component glyphName="G" x="0" y="0" flags="0x204"/>
      <component glyphName="dotaccent.cap" x="162" y="0" flags="0x4"/>
    </TTGlyph>
    <TTGlyph name="H" xMin="35" yMin="0" xMax="695" yMax="663">
      <contour>
        <pt x="616" y="0" on="1"/>
        <pt x="463" y="0" on="1"/>
        <pt x="495" y="273" on="1"/>
        <pt x="221" y="273" on="1"/>
        <pt x="189" y="0" on="1"/>
        <pt x="35" y="0" on="1"/>
        <pt x="114" y="663" on="1"/>
        <pt x="268" y="663" on="1"/>
        <pt x="238" y="408" on="1"/>
        <pt x="511" y="408" on="1"/>
        <pt x="541" y="663" on="1"/>
        <pt x="695" y="663" on="1"/>
      </contour>
    </TTGlyph>
    <TTGlyph name="Hbar" xMin="38" yMin="0" xMax="768" yMax="663">
      <contour>
        <pt x="117" y="585" on="1"/>
        <pt x="127" y="663" on="1"/>
        <pt x="281" y="663" on="1"/>
        <pt x="271" y="585" on="1"/>
        <pt x="544" y="585" on="1"/>
        <pt x="554" y="663" on="1"/>
        <pt x="708" y="663" on="1"/>
        <pt x="698" y="585" on="1"/>
        <pt x="768" y="585" on="1"/>
        <pt x="756" y="488" on="1"/>
        <pt x="687" y="488" on="1"/>
        <pt x="629" y="0" on="1"/>
        <pt x="476" y="0" on="1"/>
        <pt x="508" y="273" on="1"/>
        <pt x="234" y="273" on="1"/>
        <pt x="202" y="0" on="1"/>
        <pt x="48" y="0" on="1"/>
        <pt x="106" y="488" on="1"/>
        <pt x="38" y="488" on="1"/>
        <pt x="50" y="585" on="1"/>
      </contour>
      <contour>
        <pt x="524" y="408" on="1"/>
        <pt x="533" y="488" on="1"/>
        <pt x="260" y="488" on="1"/>
        <pt x="251" y="408" on="1"/>
      </contour>
    </TTGlyph>
    <TTGlyph name="Hcircumflex" xMin="35" yMin="0" xMax="695" yMax="915">
      <component glyphName="H" x="0" y="0" flags="0x204"/>
      <component glyphName="circumflex.cap" x="157" y="0" flags="0x4"/>
    </TTGlyph>
    <TTGlyph name="I" xMin="37" yMin="0" xMax="270" yMax="663">
      <contour>
        <pt x="191" y="0" on="1"/>
        <pt x="37" y="0" on="1"/>
        <pt x="116" y="663" on="1"/>
        <pt x="270" y="663" on="1"/>
      </contour>
    </TTGlyph>
    <TTGlyph name="IJ" xMin="37" yMin="-10" xMax="785" yMax="663">
      <component glyphName="I" x="0" y="0" flags="0x4"/>
      <component glyphName="J" x="290" y="0" flags="0x4"/>
    </TTGlyph>
    <TTGlyph name="Iacute" xMin="37" yMin="0" xMax="364" yMax="931">
      <component glyphName="I" x="0" y="0" flags="0x204"/>
      <component glyphName="acute.cap" x="-53" y="0" flags="0x4"/>
    </TTGlyph>
    <TTGlyph name="Ibreve" xMin="37" yMin="0" xMax="389" yMax="900">
      <component glyphName="I" x="0" y="0" flags="0x204"/>
      <component glyphName="breve.cap" x="-55" y="0" flags="0x4"/>
    </TTGlyph>
    <TTGlyph name="Icircumflex" xMin="29" yMin="0" xMax="382" yMax="915">
      <component glyphName="I" x="0" y="0" flags="0x204"/>
      <component glyphName="circumflex.cap" x="-58" y="0" flags="0x4"/>
    </TTGlyph>
    <TTGlyph name="Idieresis" xMin="35" yMin="0" xMax="386" yMax="873">
      <component glyphName="I" x="0" y="0" flags="0x204"/>
      <component glyphName="dieresis.cap" x="-56" y="0" flags="0x4"/>
    </TTGlyph>
    <TTGlyph name="Idotaccent" xMin="37" yMin="0" xMax="286" yMax="868">
      <component glyphName="I" x="0" y="0" flags="0x204"/>
      <component glyphName="dotaccent.cap" x="-55" y="0" flags="0x4"/>
    </TTGlyph>
    <TTGlyph name="Igrave" xMin="37" yMin="0" xMax="323" yMax="932">
      <component glyphName="I" x="0" y="0" flags="0x204"/>
      <component glyphName="grave.cap" x="-55" y="0" flags="0x4"/>
    </TTGlyph>
    <TTGlyph name="Imacron" xMin="37" yMin="0" xMax="376" yMax="865">
      <component glyphName="I" x="0" y="0" flags="0x204"/>
      <component glyphName="macron.cap" x="-56" y="0" flags="0x4"/>
    </TTGlyph>
    <TTGlyph name="Iogonek" xMin="-30" yMin="-224" xMax="270" yMax="663">
      <contour>
        <pt x="191" y="0" on="1"/>
        <pt x="174" y="0" on="1"/>
        <pt x="150" y="0" on="0"/>
        <pt x="113" y="-14" on="0"/>
        <pt x="96" y="-38" on="1"/>
        <pt x="88" y="-51" on="0"/>
        <pt x="78" y="-77" on="0"/>
        <pt x="78" y="-90" on="1"/>
        <pt x="78" y="-131" on="0"/>
        <pt x="128" y="-131" on="1"/>
        <pt x="134" y="-131" on="0"/>
        <pt x="171" y="-128" on="0"/>
        <pt x="190" y="-124" on="1"/>
        <pt x="202" y="-197" on="1"/>
        <pt x="178" y="-209" on="0"/>
        <pt x="117" y="-224" on="0"/>
        <pt x="93" y="-224" on="1"/>
        <pt x="37" y="-224" on="0"/>
        <pt x="-30" y="-164" on="0"/>
        <pt x="-30" y="-118" on="1"/>
        <pt x="-30" y="-55" on="0"/>
        <pt x="38" y="8" on="1"/>
        <pt x="116" y="663" on="1"/>
        <pt x="270" y="663" on="1"/>
      </contour>
    </TTGlyph>
    <TTGlyph name="Itilde" xMin="22" yMin="0" xMax="400" yMax="890">
      <component glyphName="I" x="0" y="0" flags="0x204"/>
      <component glyphName="tilde.cap" x="-69" y="0" flags="0x4"/>
    </TTGlyph>
    <TTGlyph name="J" xMin="-4" yMin="-10" xMax="495" yMax="663">
      <contour>
        <pt x="27" y="149" on="1"/>
        <pt x="82" y="141" on="1"/>
        <pt x="121" y="135" on="0"/>
        <pt x="172" y="130" on="0"/>
        <pt x="190" y="130" on="1"/>
        <pt x="217" y="130" on="0"/>
        <pt x="253" y="142" on="0"/>
        <pt x="264" y="153" on="1"/>
        <pt x="275" y="164" on="0"/>
        <pt x="287" y="199" on="0"/>
        <pt x="290" y="228" on="1"/>
        <pt x="341" y="663" on="1"/>
        <pt x="495" y="663" on="1"/>
        <pt x="443" y="225" on="1"/>
        <pt x="435" y="162" on="0"/>
        <pt x="400" y="79" on="0"/>
        <pt x="373" y="51" on="1"/>
        <pt x="313" y="-10" on="0"/>
        <pt x="207" y="-10" on="1"/>
        <pt x="178" y="-10" on="0"/>
        <pt x="120" y="0" on="0"/>
        <pt x="64" y="18" on="0"/>
        <pt x="15" y="41" on="0"/>
        <pt x="-4" y="54" on="1"/>
      </contour>
    </TTGlyph>
    <TTGlyph name="Jcircumflex" xMin="-4" yMin="-10" xMax="607" yMax="915">
      <component glyphName="J" x="0" y="0" flags="0x204"/>
      <component glyphName="circumflex.cap" x="167" y="0" flags="0x4"/>
    </TTGlyph>
    <TTGlyph name="K" xMin="35" yMin="0" xMax="669" yMax="673">
      <contour>
        <pt x="189" y="0" on="1"/>
        <pt x="35" y="0" on="1"/>
        <pt x="114" y="663" on="1"/>
        <pt x="268" y="663" on="1"/>
        <pt x="235" y="384" on="1"/>
        <pt x="587" y="673" on="1"/>
        <pt x="669" y="575" on="1"/>
        <pt x="428" y="381" on="1"/>
        <pt x="627" y="0" on="1"/>
        <pt x="480" y="0" on="1"/>
        <pt x="466" y="0" on="0"/>
        <pt x="456" y="6" on="0"/>
        <pt x="451" y="15" on="1"/>
        <pt x="311" y="292" on="1"/>
        <pt x="291" y="278" on="0"/>
        <pt x="239" y="250" on="0"/>
        <pt x="218" y="244" on="1"/>
      </contour>
    </TTGlyph>
    <TTGlyph name="Kcommaaccent" xMin="35" yMin="-306" xMax="669" yMax="673">
      <component glyphName="K" x="0" y="0" flags="0x204"/>
      <component glyphName="commaaccent" x="131" y="0" flags="0x4"/>
    </TTGlyph>
    <TTGlyph name="L" xMin="35" yMin="0" xMax="516" yMax="663">
      <contour>
        <pt x="114" y="663" on="1"/>
        <pt x="268" y="663" on="1"/>
        <pt x="204" y="130" on="1"/>
        <pt x="516" y="130" on="1"/>
        <pt x="501" y="0" on="1"/>
        <pt x="35" y="0" on="1"/>
      </contour>
    </TTGlyph>
    <TTGlyph name="Lacute" xMin="35" yMin="0" xMax="516" yMax="931">
      <component glyphName="L" x="0" y="0" flags="0x204"/>
      <component glyphName="acute.cap" x="-11" y="0" flags="0x4"/>
    </TTGlyph>
    <TTGlyph name="Lcaron" xMin="35" yMin="0" xMax="516" yMax="663">
      <component glyphName="L" x="0" y="0" flags="0x204"/>
      <component glyphName="commaaccent" x="245" y="721" flags="0x4"/>
    </TTGlyph>
    <TTGlyph name="Lcommaaccent" xMin="35" yMin="-306" xMax="516" yMax="663">
      <component glyphName="L" x="0" y="0" flags="0x204"/>
      <component glyphName="commaaccent" x="92" y="0" flags="0x4"/>
    </TTGlyph>
    <TTGlyph name="Ldot" xMin="35" yMin="0" xMax="516" yMax="663">
      <component glyphName="L" x="0" y="0" flags="0x204"/>
      <component glyphName="dotaccent" x="191" y="-265" flags="0x4"/>
    </TTGlyph>
    <TTGlyph name="Lslash" xMin="-8" yMin="0" xMax="574" yMax="663">
      <contour>
        <pt x="283" y="303" on="1"/>
        <pt x="262" y="130" on="1"/>
        <pt x="574" y="130" on="1"/>
        <pt x="559" y="0" on="1"/>
        <pt x="93" y="0" on="1"/>
        <pt x="121" y="231" on="1"/>
        <pt x="55" y="190" on="1"/>
        <pt x="-8" y="301" on="1"/>
        <pt x="139" y="389" on="1"/>
        <pt x="172" y="663" on="1"/>
        <pt x="325" y="663" on="1"/>
        <pt x="302" y="461" on="1"/>
        <pt x="436" y="545" on="1"/>
        <pt x="499" y="435" on="1"/>
      </contour>
    </TTGlyph>
    <TTGlyph name="M" xMin="35" yMin="0" xMax="816" yMax="663">
      <contour>
        <pt x="663" y="647" on="1"/>
        <pt x="671" y="657" on="0"/>
        <pt x="684" y="663" on="0"/>
        <pt x="697" y="663" on="1"/>
        <pt x="816" y="663" on="1"/>
        <pt x="738" y="0" on="1"/>
        <pt x="589" y="0" on="1"/>
        <pt x="642" y="435" on="1"/>
        <pt x="640" y="435" on="1"/>
        <pt x="465" y="235" on="1"/>
        <pt x="377" y="235" on="1"/>
        <pt x="367" y="235" on="0"/>
        <pt x="357" y="239" on="0"/>
        <pt x="352" y="246" on="1"/>
        <pt x="235" y="435" on="1"/>
        <pt x="234" y="435" on="1"/>
        <pt x="182" y="0" on="1"/>
        <pt x="35" y="0" on="1"/>
        <pt x="114" y="663" on="1"/>
        <pt x="231" y="663" on="1"/>
        <pt x="242" y="663" on="0"/>
        <pt x="254" y="658" on="0"/>
        <pt x="262" y="647" on="1"/>
        <pt x="427" y="380" on="1"/>
        <pt x="430" y="380" on="1"/>
      </contour>
    </TTGlyph>
    <TTGlyph name="N" xMin="35" yMin="0" xMax="706" yMax="663">
      <contour>
        <pt x="179" y="0" on="1"/>
        <pt x="35" y="0" on="1"/>
        <pt x="114" y="663" on="1"/>
        <pt x="222" y="663" on="1"/>
        <pt x="233" y="663" on="0"/>
        <pt x="243" y="658" on="0"/>
        <pt x="248" y="650" on="1"/>
        <pt x="445" y="346" on="1"/>
        <pt x="512" y="241" on="1"/>
        <pt x="563" y="663" on="1"/>
        <pt x="706" y="663" on="1"/>
        <pt x="627" y="0" on="1"/>
        <pt x="519" y="0" on="1"/>
        <pt x="509" y="0" on="0"/>
        <pt x="499" y="4" on="0"/>
        <pt x="494" y="12" on="1"/>
        <pt x="297" y="315" on="1"/>
        <pt x="289" y="328" on="0"/>
        <pt x="270" y="357" on="0"/>
        <pt x="252" y="385" on="0"/>
        <pt x="236" y="412" on="0"/>
        <pt x="230" y="422" on="1"/>
      </contour>
    </TTGlyph>
    <TTGlyph name="Nacute" xMin="35" yMin="0" xMax="706" yMax="931">
      <component glyphName="N" x="0" y="0" flags="0x204"/>
      <component glyphName="acute.cap" x="165" y="0" flags="0x4"/>
    </TTGlyph>
    <TTGlyph name="Ncaron" xMin="35" yMin="0" xMax="706" yMax="926">
      <component glyphName="N" x="0" y="0" flags="0x204"/>
      <component glyphName="caron.cap" x="154" y="0" flags="0x4"/>
    </TTGlyph>
    <TTGlyph name="Ncommaaccent" xMin="35" yMin="-306" xMax="706" yMax="663">
      <component glyphName="N" x="0" y="0" flags="0x204"/>
      <component glyphName="commaaccent" x="167" y="0" flags="0x4"/>
    </TTGlyph>
    <TTGlyph name="Ntilde" xMin="35" yMin="0" xMax="706" yMax="890">
      <component glyphName="N" x="0" y="0" flags="0x204"/>
      <component glyphName="tilde.cap" x="144" y="0" flags="0x4"/>
    </TTGlyph>
    <TTGlyph name="O" xMin="42" yMin="-10" xMax="699" yMax="673">
      <contour>
        <pt x="355" y="141" on="1"/>
        <pt x="396" y="141" on="0"/>
        <pt x="464" y="172" on="0"/>
        <pt x="512" y="228" on="0"/>
        <pt x="539" y="305" on="0"/>
        <pt x="539" y="351" on="1"/>
        <pt x="539" y="388" on="0"/>
        <pt x="518" y="451" on="0"/>
        <pt x="478" y="496" on="0"/>
        <pt x="421" y="522" on="0"/>
        <pt x="386" y="522" on="1"/>
        <pt x="345" y="522" on="0"/>
        <pt x="277" y="491" on="0"/>
        <pt x="229" y="435" on="0"/>
        <pt x="202" y="358" on="0"/>
        <pt x="202" y="312" on="1"/>
        <pt x="202" y="276" on="0"/>
        <pt x="223" y="214" on="0"/>
        <pt x="263" y="167" on="0"/>
        <pt x="320" y="141" on="0"/>
      </contour>
      <contour>
        <pt x="346" y="-10" on="1"/>
        <pt x="282" y="-10" on="0"/>
        <pt x="171" y="36" on="0"/>
        <pt x="89" y="118" on="0"/>
        <pt x="42" y="231" on="0"/>
        <pt x="42" y="299" on="1"/>
        <pt x="42" y="381" on="0"/>
        <pt x="99" y="518" on="0"/>
        <pt x="196" y="617" on="0"/>
        <pt x="324" y="673" on="0"/>
        <pt x="395" y="673" on="1"/>
        <pt x="459" y="673" on="0"/>
        <pt x="570" y="627" on="0"/>
        <pt x="652" y="545" on="0"/>
        <pt x="699" y="431" on="0"/>
        <pt x="699" y="364" on="1"/>
        <pt x="699" y="282" on="0"/>
        <pt x="642" y="145" on="0"/>
        <pt x="545" y="46" on="0"/>
        <pt x="417" y="-10" on="0"/>
      </contour>
    </TTGlyph>
    <TTGlyph name="OE" xMin="42" yMin="-10" xMax="1050" yMax="673">
      <contour>
        <pt x="1050" y="663" on="1"/>
        <pt x="1034" y="533" on="1"/>
        <pt x="713" y="533" on="1"/>
        <pt x="697" y="401" on="1"/>
        <pt x="988" y="401" on="1"/>
        <pt x="972" y="273" on="1"/>
        <pt x="682" y="273" on="1"/>
        <pt x="665" y="130" on="1"/>
        <pt x="996" y="130" on="1"/>
        <pt x="981" y="0" on="1"/>
        <pt x="496" y="0" on="1"/>
        <pt x="503" y="58" on="1"/>
        <pt x="473" y="27" on="0"/>
        <pt x="377" y="-10" on="0"/>
        <pt x="329" y="-10" on="1"/>
        <pt x="269" y="-10" on="0"/>
        <pt x="164" y="36" on="0"/>
        <pt x="86" y="118" on="0"/>
        <pt x="42" y="231" on="0"/>
        <pt x="42" y="299" on="1"/>
        <pt x="42" y="381" on="0"/>
        <pt x="97" y="518" on="0"/>
        <pt x="190" y="617" on="0"/>
        <pt x="311" y="673" on="0"/>
        <pt x="377" y="673" on="1"/>
        <pt x="440" y="673" on="0"/>
        <pt x="535" y="619" on="0"/>
        <pt x="565" y="577" on="1"/>
        <pt x="575" y="663" on="1"/>
      </contour>
      <contour>
        <pt x="355" y="142" on="1"/>
        <pt x="396" y="142" on="0"/>
        <pt x="464" y="173" on="0"/>
        <pt x="512" y="228" on="0"/>
        <pt x="539" y="305" on="0"/>
        <pt x="539" y="351" on="1"/>
        <pt x="539" y="388" on="0"/>
        <pt x="518" y="451" on="0"/>
        <pt x="478" y="496" on="0"/>
        <pt x="421" y="521" on="0"/>
        <pt x="386" y="521" on="1"/>
        <pt x="345" y="521" on="0"/>
        <pt x="277" y="490" on="0"/>
        <pt x="229" y="435" on="0"/>
        <pt x="202" y="358" on="0"/>
        <pt x="202" y="312" on="1"/>
        <pt x="202" y="276" on="0"/>
        <pt x="223" y="214" on="0"/>
        <pt x="263" y="168" on="0"/>
        <pt x="320" y="142" on="0"/>
      </contour>
    </TTGlyph>
    <TTGlyph name="Oacute" xMin="42" yMin="-10" xMax="699" yMax="931">
      <component glyphName="O" x="0" y="0" flags="0x204"/>
      <component glyphName="acute.cap" x="143" y="0" flags="0x4"/>
    </TTGlyph>
    <TTGlyph name="Obreve" xMin="42" yMin="-10" xMax="699" yMax="900">
      <component glyphName="O" x="0" y="0" flags="0x204"/>
      <component glyphName="breve.cap" x="145" y="0" flags="0x4"/>
    </TTGlyph>
    <TTGlyph name="Ocircumflex" xMin="42" yMin="-10" xMax="699" yMax="915">
      <component glyphName="O" x="0" y="0" flags="0x204"/>
      <component glyphName="circumflex.cap" x="149" y="0" flags="0x4"/>
    </TTGlyph>
    <TTGlyph name="Odieresis" xMin="42" yMin="-10" xMax="699" yMax="873">
      <component glyphName="O" x="0" y="0" flags="0x204"/>
      <component glyphName="dieresis.cap" x="150" y="0" flags="0x4"/>
    </TTGlyph>
    <TTGlyph name="Ograve" xMin="42" yMin="-10" xMax="699" yMax="932">
      <component glyphName="O" x="0" y="0" flags="0x204"/>
      <component glyphName="grave.cap" x="156" y="0" flags="0x4"/>
    </TTGlyph>
    <TTGlyph name="Ohungarumlaut" xMin="42" yMin="-10" xMax="699" yMax="981">
      <component glyphName="O" x="0" y="0" flags="0x204"/>
      <component glyphName="hungarumlaut.cap" x="123" y="0" flags="0x4"/>
    </TTGlyph>
    <TTGlyph name="Omacron" xMin="42" yMin="-10" xMax="699" yMax="865">
      <component glyphName="O" x="0" y="0" flags="0x204"/>
      <component glyphName="macron.cap" x="139" y="0" flags="0x4"/>
    </TTGlyph>
    <TTGlyph name="Omega" xMin="22" yMin="0" xMax="691" yMax="673">
      <contour>
        <pt x="372" y="61" on="1"/>
        <pt x="374" y="73" on="0"/>
        <pt x="378" y="86" on="0"/>
        <pt x="388" y="99" on="1"/>
        <pt x="442" y="173" on="1"/>
        <pt x="469" y="210" on="0"/>
        <pt x="506" y="271" on="0"/>
        <pt x="529" y="323" on="0"/>
        <pt x="538" y="368" on="0"/>
        <pt x="538" y="390" on="1"/>
        <pt x="538" y="457" on="0"/>
        <pt x="447" y="526" on="0"/>
        <pt x="378" y="526" on="1"/>
        <pt x="341" y="526" on="0"/>
        <pt x="277" y="504" on="0"/>
        <pt x="230" y="462" on="0"/>
        <pt x="203" y="399" on="0"/>
        <pt x="203" y="358" on="1"/>
        <pt x="203" y="317" on="0"/>
        <pt x="229" y="234" on="0"/>
        <pt x="258" y="172" on="1"/>
        <pt x="293" y="98" on="1"/>
        <pt x="298" y="87" on="0"/>
        <pt x="300" y="64" on="0"/>
        <pt x="298" y="52" on="1"/>
        <pt x="292" y="0" on="1"/>
        <pt x="22" y="0" on="1"/>
        <pt x="37" y="124" on="1"/>
        <pt x="160" y="124" on="1"/>
        <pt x="110" y="190" on="0"/>
        <pt x="54" y="309" on="0"/>
        <pt x="54" y="375" on="1"/>
        <pt x="54" y="439" on="0"/>
        <pt x="107" y="548" on="0"/>
        <pt x="199" y="628" on="0"/>
        <pt x="321" y="673" on="0"/>
        <pt x="390" y="673" on="1"/>
        <pt x="457" y="673" on="0"/>
        <pt x="567" y="634" on="0"/>
        <pt x="647" y="565" on="0"/>
        <pt x="691" y="470" on="0"/>
        <pt x="691" y="415" on="1"/>
        <pt x="691" y="337" on="0"/>
        <pt x="605" y="193" on="0"/>
        <pt x="533" y="124" on="1"/>
        <pt x="649" y="124" on="1"/>
        <pt x="634" y="0" on="1"/>
        <pt x="364" y="0" on="1"/>
      </contour>
    </TTGlyph>
    <TTGlyph name="Oslash" xMin="30" yMin="-50" xMax="721" yMax="719">
      <contour>
        <pt x="107" y="103" on="1"/>
        <pt x="76" y="142" on="0"/>
        <pt x="42" y="241" on="0"/>
        <pt x="42" y="299" on="1"/>
        <pt x="42" y="381" on="0"/>
        <pt x="99" y="518" on="0"/>
        <pt x="196" y="617" on="0"/>
        <pt x="324" y="673" on="0"/>
        <pt x="395" y="673" on="1"/>
        <pt x="443" y="673" on="0"/>
        <pt x="528" y="647" on="0"/>
        <pt x="564" y="623" on="1"/>
        <pt x="649" y="719" on="1"/>
        <pt x="721" y="655" on="1"/>
        <pt x="635" y="558" on="1"/>
        <pt x="665" y="519" on="0"/>
        <pt x="699" y="421" on="0"/>
        <pt x="699" y="364" on="1"/>
        <pt x="699" y="282" on="0"/>
        <pt x="642" y="145" on="0"/>
        <pt x="545" y="46" on="0"/>
        <pt x="417" y="-10" on="0"/>
        <pt x="346" y="-10" on="1"/>
        <pt x="299" y="-10" on="0"/>
        <pt x="214" y="15" on="0"/>
        <pt x="179" y="38" on="1"/>
        <pt x="102" y="-50" on="1"/>
        <pt x="30" y="15" on="1"/>
      </contour>
      <contour>
        <pt x="202" y="312" on="1"/>
        <pt x="202" y="290" on="0"/>
        <pt x="210" y="247" on="0"/>
        <pt x="218" y="230" on="1"/>
        <pt x="459" y="504" on="1"/>
        <pt x="428" y="521" on="0"/>
        <pt x="386" y="521" on="1"/>
        <pt x="345" y="521" on="0"/>
        <pt x="277" y="490" on="0"/>
        <pt x="229" y="435" on="0"/>
        <pt x="202" y="358" on="0"/>
      </contour>
      <contour>
        <pt x="355" y="142" on="1"/>
        <pt x="396" y="142" on="0"/>
        <pt x="464" y="173" on="0"/>
        <pt x="512" y="228" on="0"/>
        <pt x="539" y="305" on="0"/>
        <pt x="539" y="351" on="1"/>
        <pt x="539" y="371" on="0"/>
        <pt x="532" y="412" on="0"/>
        <pt x="524" y="430" on="1"/>
        <pt x="284" y="158" on="1"/>
        <pt x="298" y="150" on="0"/>
        <pt x="335" y="142" on="0"/>
      </contour>
    </TTGlyph>
    <TTGlyph name="Oslashacute" xMin="30" yMin="-50" xMax="721" yMax="931">
      <component glyphName="Oslash" x="0" y="0" flags="0x204"/>
      <component glyphName="acute.cap" x="159" y="0" flags="0x4"/>
    </TTGlyph>
    <TTGlyph name="Otilde" xMin="42" yMin="-10" xMax="699" yMax="890">
      <component glyphName="O" x="0" y="0" flags="0x204"/>
      <component glyphName="tilde.cap" x="134" y="0" flags="0x4"/>
    </TTGlyph>
    <TTGlyph name="P" xMin="35" yMin="0" xMax="621" yMax="663">
      <contour>
        <pt x="213" y="204" on="1"/>
        <pt x="189" y="0" on="1"/>
        <pt x="35" y="0" on="1"/>
        <pt x="114" y="663" on="1"/>
        <pt x="359" y="663" on="1"/>
        <pt x="434" y="663" on="0"/>
        <pt x="537" y="636" on="0"/>
        <pt x="570" y="604" on="1"/>
        <pt x="621" y="555" on="0"/>
        <pt x="621" y="461" on="1"/>
        <pt x="621" y="434" on="0"/>
        <pt x="609" y="378" on="0"/>
        <pt x="587" y="324" on="0"/>
        <pt x="554" y="275" on="0"/>
        <pt x="532" y="256" on="1"/>
        <pt x="502" y="229" on="0"/>
        <pt x="424" y="204" on="0"/>
        <pt x="362" y="204" on="1"/>
      </contour>
      <contour>
        <pt x="229" y="331" on="1"/>
        <pt x="386" y="331" on="1"/>
        <pt x="404" y="331" on="0"/>
        <pt x="426" y="339" on="0"/>
        <pt x="436" y="350" on="1"/>
        <pt x="450" y="367" on="0"/>
        <pt x="467" y="422" on="0"/>
        <pt x="467" y="451" on="1"/>
        <pt x="467" y="493" on="0"/>
        <pt x="446" y="511" on="1"/>
        <pt x="434" y="521" on="0"/>
        <pt x="395" y="532" on="0"/>
        <pt x="362" y="532" on="1"/>
        <pt x="252" y="532" on="1"/>
      </contour>
    </TTGlyph>
    <TTGlyph name="Q" xMin="42" yMin="-201" xMax="699" yMax="673">
      <contour>
        <pt x="367" y="-10" on="1"/>
        <pt x="295" y="-13" on="0"/>
        <pt x="176" y="33" on="0"/>
        <pt x="90" y="116" on="0"/>
        <pt x="42" y="231" on="0"/>
        <pt x="42" y="299" on="1"/>
        <pt x="42" y="381" on="0"/>
        <pt x="99" y="518" on="0"/>
        <pt x="196" y="617" on="0"/>
        <pt x="324" y="673" on="0"/>
        <pt x="395" y="673" on="1"/>
        <pt x="459" y="673" on="0"/>
        <pt x="570" y="627" on="0"/>
        <pt x="652" y="545" on="0"/>
        <pt x="699" y="431" on="0"/>
        <pt x="699" y="364" on="1"/>
        <pt x="699" y="307" on="0"/>
        <pt x="670" y="205" on="0"/>
        <pt x="619" y="119" on="0"/>
        <pt x="549" y="52" on="0"/>
        <pt x="507" y="30" on="1"/>
        <pt x="619" y="-128" on="1"/>
        <pt x="462" y="-201" on="1"/>
      </contour>
      <contour>
        <pt x="355" y="141" on="1"/>
        <pt x="396" y="141" on="0"/>
        <pt x="464" y="172" on="0"/>
        <pt x="512" y="228" on="0"/>
        <pt x="539" y="305" on="0"/>
        <pt x="539" y="351" on="1"/>
        <pt x="539" y="388" on="0"/>
        <pt x="518" y="451" on="0"/>
        <pt x="478" y="496" on="0"/>
        <pt x="421" y="522" on="0"/>
        <pt x="386" y="522" on="1"/>
        <pt x="345" y="522" on="0"/>
        <pt x="277" y="491" on="0"/>
        <pt x="229" y="435" on="0"/>
        <pt x="202" y="358" on="0"/>
        <pt x="202" y="312" on="1"/>
        <pt x="202" y="276" on="0"/>
        <pt x="223" y="214" on="0"/>
        <pt x="263" y="167" on="0"/>
        <pt x="320" y="141" on="0"/>
      </contour>
    </TTGlyph>
    <TTGlyph name="R" xMin="35" yMin="0" xMax="626" yMax="663">
      <contour>
        <pt x="368" y="663" on="1"/>
        <pt x="437" y="663" on="0"/>
        <pt x="540" y="637" on="0"/>
        <pt x="573" y="606" on="1"/>
        <pt x="626" y="558" on="0"/>
        <pt x="626" y="466" on="1"/>
        <pt x="626" y="394" on="0"/>
        <pt x="556" y="275" on="0"/>
        <pt x="498" y="241" on="1"/>
        <pt x="612" y="0" on="1"/>
        <pt x="466" y="0" on="1"/>
        <pt x="453" y="0" on="0"/>
        <pt x="445" y="5" on="0"/>
        <pt x="440" y="15" on="1"/>
        <pt x="359" y="199" on="1"/>
        <pt x="354" y="210" on="0"/>
        <pt x="344" y="216" on="0"/>
        <pt x="331" y="216" on="1"/>
        <pt x="214" y="216" on="1"/>
        <pt x="189" y="0" on="1"/>
        <pt x="35" y="0" on="1"/>
        <pt x="114" y="663" on="1"/>
      </contour>
      <contour>
        <pt x="393" y="343" on="1"/>
        <pt x="411" y="343" on="0"/>
        <pt x="433" y="350" on="0"/>
        <pt x="443" y="361" on="1"/>
        <pt x="457" y="378" on="0"/>
        <pt x="472" y="428" on="0"/>
        <pt x="472" y="454" on="1"/>
        <pt x="472" y="494" on="0"/>
        <pt x="452" y="511" on="1"/>
        <pt x="428" y="532" on="0"/>
        <pt x="367" y="532" on="1"/>
        <pt x="252" y="532" on="1"/>
        <pt x="230" y="343" on="1"/>
      </contour>
    </TTGlyph>
    <TTGlyph name="Racute" xMin="35" yMin="0" xMax="626" yMax="931">
      <component glyphName="R" x="0" y="0" flags="0x204"/>
      <component glyphName="acute.cap" x="123" y="0" flags="0x4"/>
    </TTGlyph>
    <TTGlyph name="Rcaron" xMin="35" yMin="0" xMax="626" yMax="926">
      <component glyphName="R" x="0" y="0" flags="0x204"/>
      <component glyphName="caron.cap" x="118" y="0" flags="0x4"/>
    </TTGlyph>
    <TTGlyph name="Rcommaaccent" xMin="35" yMin="-306" xMax="626" yMax="663">
      <component glyphName="R" x="0" y="0" flags="0x204"/>
      <component glyphName="commaaccent" x="134" y="0" flags="0x4"/>
    </TTGlyph>
    <TTGlyph name="S" xMin="4" yMin="-10" xMax="555" yMax="673">
      <contour>
        <pt x="103" y="141" on="1"/>
        <pt x="163" y="132" on="0"/>
        <pt x="245" y="124" on="0"/>
        <pt x="276" y="124" on="1"/>
        <pt x="329" y="124" on="0"/>
        <pt x="391" y="162" on="0"/>
        <pt x="391" y="203" on="1"/>
        <pt x="391" y="229" on="0"/>
        <pt x="353" y="256" on="0"/>
        <pt x="309" y="273" on="1"/>
        <pt x="248" y="296" on="1"/>
        <pt x="206" y="312" on="0"/>
        <pt x="137" y="347" on="0"/>
        <pt x="87" y="391" on="0"/>
        <pt x="59" y="447" on="0"/>
        <pt x="59" y="483" on="1"/>
        <pt x="59" y="532" on="0"/>
        <pt x="101" y="604" on="0"/>
        <pt x="175" y="650" on="0"/>
        <pt x="274" y="673" on="0"/>
        <pt x="331" y="673" on="1"/>
        <pt x="387" y="673" on="0"/>
        <pt x="510" y="650" on="0"/>
        <pt x="555" y="631" on="1"/>
        <pt x="535" y="528" on="1"/>
        <pt x="451" y="534" on="1"/>
        <pt x="421" y="536" on="0"/>
        <pt x="356" y="539" on="0"/>
        <pt x="324" y="539" on="1"/>
        <pt x="265" y="539" on="0"/>
        <pt x="207" y="519" on="0"/>
        <pt x="207" y="493" on="1"/>
        <pt x="207" y="476" on="0"/>
        <pt x="244" y="453" on="0"/>
        <pt x="292" y="434" on="1"/>
        <pt x="349" y="412" on="1"/>
        <pt x="398" y="393" on="0"/>
        <pt x="471" y="355" on="0"/>
        <pt x="519" y="310" on="0"/>
        <pt x="542" y="255" on="0"/>
        <pt x="542" y="219" on="1"/>
        <pt x="542" y="165" on="0"/>
        <pt x="503" y="79" on="0"/>
        <pt x="432" y="21" on="0"/>
        <pt x="331" y="-10" on="0"/>
        <pt x="269" y="-10" on="1"/>
        <pt x="203" y="-10" on="0"/>
        <pt x="63" y="22" on="0"/>
        <pt x="4" y="48" on="1"/>
        <pt x="37" y="151" on="1"/>
      </contour>
    </TTGlyph>
    <TTGlyph name="Sacute" xMin="4" yMin="-10" xMax="555" yMax="931">
      <component glyphName="S" x="0" y="0" flags="0x204"/>
      <component glyphName="acute.cap" x="73" y="0" flags="0x4"/>
    </TTGlyph>
    <TTGlyph name="Scaron" xMin="4" yMin="-10" xMax="555" yMax="926">
      <component glyphName="S" x="0" y="0" flags="0x204"/>
      <component glyphName="caron.cap" x="76" y="0" flags="0x4"/>
    </TTGlyph>
    <TTGlyph name="Scedilla" xMin="4" yMin="-245" xMax="555" yMax="673">
      <contour>
        <pt x="103" y="141" on="1"/>
        <pt x="163" y="132" on="0"/>
        <pt x="245" y="124" on="0"/>
        <pt x="276" y="124" on="1"/>
        <pt x="329" y="124" on="0"/>
        <pt x="391" y="162" on="0"/>
        <pt x="391" y="203" on="1"/>
        <pt x="391" y="229" on="0"/>
        <pt x="353" y="256" on="0"/>
        <pt x="309" y="273" on="1"/>
        <pt x="248" y="296" on="1"/>
        <pt x="206" y="312" on="0"/>
        <pt x="137" y="347" on="0"/>
        <pt x="87" y="391" on="0"/>
        <pt x="59" y="447" on="0"/>
        <pt x="59" y="483" on="1"/>
        <pt x="59" y="532" on="0"/>
        <pt x="101" y="604" on="0"/>
        <pt x="175" y="650" on="0"/>
        <pt x="274" y="673" on="0"/>
        <pt x="331" y="673" on="1"/>
        <pt x="387" y="673" on="0"/>
        <pt x="510" y="650" on="0"/>
        <pt x="555" y="631" on="1"/>
        <pt x="535" y="528" on="1"/>
        <pt x="451" y="534" on="1"/>
        <pt x="421" y="536" on="0"/>
        <pt x="356" y="539" on="0"/>
        <pt x="324" y="539" on="1"/>
        <pt x="265" y="539" on="0"/>
        <pt x="207" y="519" on="0"/>
        <pt x="207" y="493" on="1"/>
        <pt x="207" y="476" on="0"/>
        <pt x="244" y="453" on="0"/>
        <pt x="292" y="434" on="1"/>
        <pt x="349" y="412" on="1"/>
        <pt x="398" y="393" on="0"/>
        <pt x="471" y="355" on="0"/>
        <pt x="519" y="310" on="0"/>
        <pt x="542" y="255" on="0"/>
        <pt x="542" y="219" on="1"/>
        <pt x="542" y="166" on="0"/>
        <pt x="506" y="84" on="0"/>
        <pt x="440" y="26" on="0"/>
        <pt x="346" y="-7" on="0"/>
        <pt x="288" y="-9" on="1"/>
        <pt x="276" y="-26" on="0"/>
        <pt x="276" y="-36" on="1"/>
        <pt x="276" y="-44" on="0"/>
        <pt x="305" y="-56" on="0"/>
        <pt x="339" y="-74" on="0"/>
        <pt x="368" y="-102" on="0"/>
        <pt x="368" y="-126" on="1"/>
        <pt x="368" y="-155" on="0"/>
        <pt x="334" y="-199" on="0"/>
        <pt x="279" y="-228" on="0"/>
        <pt x="207" y="-244" on="0"/>
        <pt x="168" y="-245" on="1"/>
        <pt x="163" y="-168" on="1"/>
        <pt x="217" y="-159" on="1"/>
        <pt x="252" y="-153" on="0"/>
        <pt x="252" y="-137" on="1"/>
        <pt x="252" y="-129" on="0"/>
        <pt x="227" y="-117" on="0"/>
        <pt x="197" y="-104" on="0"/>
        <pt x="172" y="-84" on="0"/>
        <pt x="172" y="-68" on="1"/>
        <pt x="172" y="-54" on="0"/>
        <pt x="192" y="-23" on="0"/>
        <pt x="209" y="-6" on="1"/>
        <pt x="155" y="-1" on="0"/>
        <pt x="49" y="28" on="0"/>
        <pt x="4" y="48" on="1"/>
        <pt x="37" y="151" on="1"/>
      </contour>
    </TTGlyph>
    <TTGlyph name="Scircumflex" xMin="4" yMin="-10" xMax="555" yMax="915">
      <component glyphName="S" x="0" y="0" flags="0x204"/>
      <component glyphName="circumflex.cap" x="81" y="0" flags="0x4"/>
    </TTGlyph>
    <TTGlyph name="Scommaaccent" xMin="4" yMin="-306" xMax="555" yMax="673">
      <component glyphName="S" x="0" y="0" flags="0x204"/>
      <component glyphName="commaaccent" x="82" y="0" flags="0x4"/>
    </TTGlyph>
    <TTGlyph name="T" xMin="46" yMin="0" xMax="636" yMax="663">
      <contour>
        <pt x="257" y="532" on="1"/>
        <pt x="46" y="532" on="1"/>
        <pt x="62" y="663" on="1"/>
        <pt x="636" y="663" on="1"/>
        <pt x="620" y="532" on="1"/>
        <pt x="411" y="532" on="1"/>
        <pt x="348" y="0" on="1"/>
        <pt x="194" y="0" on="1"/>
      </contour>
    </TTGlyph>
    <TTGlyph name="Tbar" xMin="46" yMin="0" xMax="636" yMax="663">
      <contour>
        <pt x="238" y="376" on="1"/>
        <pt x="257" y="532" on="1"/>
        <pt x="46" y="532" on="1"/>
        <pt x="62" y="663" on="1"/>
        <pt x="636" y="663" on="1"/>
        <pt x="620" y="532" on="1"/>
        <pt x="411" y="532" on="1"/>
        <pt x="392" y="376" on="1"/>
        <pt x="519" y="376" on="1"/>
        <pt x="507" y="267" on="1"/>
        <pt x="379" y="267" on="1"/>
        <pt x="348" y="0" on="1"/>
        <pt x="194" y="0" on="1"/>
        <pt x="225" y="267" on="1"/>
        <pt x="99" y="267" on="1"/>
        <pt x="112" y="376" on="1"/>
      </contour>
    </TTGlyph>
    <TTGlyph name="Tcaron" xMin="46" yMin="0" xMax="636" yMax="926">
      <component glyphName="T" x="0" y="0" flags="0x204"/>
      <component glyphName="caron.cap" x="89" y="0" flags="0x4"/>
    </TTGlyph>
    <TTGlyph name="Tcommaaccent" xMin="46" yMin="-306" xMax="636" yMax="663">
      <component glyphName="T" x="0" y="0" flags="0x204"/>
      <component glyphName="commaaccent" x="88" y="0" flags="0x4"/>
    </TTGlyph>
    <TTGlyph name="Thorn" xMin="35" yMin="0" xMax="610" yMax="663">
      <contour>
        <pt x="256" y="562" on="1"/>
        <pt x="348" y="562" on="1"/>
        <pt x="423" y="562" on="0"/>
        <pt x="526" y="535" on="0"/>
        <pt x="559" y="503" on="1"/>
        <pt x="610" y="454" on="0"/>
        <pt x="610" y="360" on="1"/>
        <pt x="610" y="333" on="0"/>
        <pt x="598" y="277" on="0"/>
        <pt x="576" y="223" on="0"/>
        <pt x="543" y="174" on="0"/>
        <pt x="521" y="155" on="1"/>
        <pt x="491" y="128" on="0"/>
        <pt x="413" y="103" on="0"/>
        <pt x="351" y="103" on="1"/>
        <pt x="201" y="103" on="1"/>
        <pt x="188" y="0" on="1"/>
        <pt x="35" y="0" on="1"/>
        <pt x="114" y="663" on="1"/>
        <pt x="268" y="663" on="1"/>
      </contour>
      <contour>
        <pt x="217" y="230" on="1"/>
        <pt x="374" y="230" on="1"/>
        <pt x="392" y="230" on="0"/>
        <pt x="414" y="238" on="0"/>
        <pt x="424" y="249" on="1"/>
        <pt x="438" y="266" on="0"/>
        <pt x="455" y="320" on="0"/>
        <pt x="455" y="349" on="1"/>
        <pt x="455" y="391" on="0"/>
        <pt x="434" y="409" on="1"/>
        <pt x="422" y="419" on="0"/>
        <pt x="383" y="430" on="0"/>
        <pt x="350" y="430" on="1"/>
        <pt x="240" y="430" on="1"/>
      </contour>
    </TTGlyph>
    <TTGlyph name="U" xMin="54" yMin="-10" xMax="680" yMax="663">
      <contour>
        <pt x="530" y="663" on="1"/>
        <pt x="680" y="663" on="1"/>
        <pt x="636" y="294" on="1"/>
        <pt x="627" y="216" on="0"/>
        <pt x="574" y="101" on="0"/>
        <pt x="492" y="26" on="0"/>
        <pt x="383" y="-10" on="0"/>
        <pt x="317" y="-10" on="1"/>
        <pt x="259" y="-10" on="0"/>
        <pt x="162" y="25" on="0"/>
        <pt x="93" y="88" on="0"/>
        <pt x="54" y="177" on="0"/>
        <pt x="54" y="232" on="1"/>
        <pt x="54" y="257" on="0"/>
        <pt x="60" y="320" on="0"/>
        <pt x="65" y="365" on="1"/>
        <pt x="101" y="663" on="1"/>
        <pt x="255" y="663" on="1"/>
        <pt x="217" y="345" on="1"/>
        <pt x="213" y="311" on="0"/>
        <pt x="210" y="269" on="0"/>
        <pt x="210" y="254" on="1"/>
        <pt x="210" y="196" on="0"/>
        <pt x="275" y="141" on="0"/>
        <pt x="332" y="141" on="1"/>
        <pt x="405" y="141" on="0"/>
        <pt x="478" y="228" on="0"/>
        <pt x="489" y="317" on="1"/>
      </contour>
    </TTGlyph>
    <TTGlyph name="Uacute" xMin="54" yMin="-10" xMax="680" yMax="931">
      <component glyphName="U" x="0" y="0" flags="0x204"/>
      <component glyphName="acute.cap" x="158" y="0" flags="0x4"/>
    </TTGlyph>
    <TTGlyph name="Ubreve" xMin="54" yMin="-10" xMax="680" yMax="900">
      <component glyphName="U" x="0" y="0" flags="0x204"/>
      <component glyphName="breve.cap" x="141" y="0" flags="0x4"/>
    </TTGlyph>
    <TTGlyph name="Ucircumflex" xMin="54" yMin="-10" xMax="680" yMax="915">
      <component glyphName="U" x="0" y="0" flags="0x204"/>
      <component glyphName="circumflex.cap" x="143" y="0" flags="0x4"/>
    </TTGlyph>
    <TTGlyph name="Udieresis" xMin="54" yMin="-10" xMax="680" yMax="873">
      <component glyphName="U" x="0" y="0" flags="0x204"/>
      <component glyphName="dieresis.cap" x="141" y="0" flags="0x4"/>
    </TTGlyph>
    <TTGlyph name="Ugrave" xMin="54" yMin="-10" xMax="680" yMax="932">
      <component glyphName="U" x="0" y="0" flags="0x204"/>
      <component glyphName="grave.cap" x="126" y="0" flags="0x4"/>
    </TTGlyph>
    <TTGlyph name="Uhungarumlaut" xMin="54" yMin="-10" xMax="681" yMax="981">
      <component glyphName="U" x="0" y="0" flags="0x204"/>
      <component glyphName="hungarumlaut.cap" x="126" y="0" flags="0x4"/>
    </TTGlyph>
    <TTGlyph name="Umacron" xMin="54" yMin="-10" xMax="680" yMax="865">
      <component glyphName="U" x="0" y="0" flags="0x204"/>
      <component glyphName="macron.cap" x="138" y="0" flags="0x4"/>
    </TTGlyph>
    <TTGlyph name="Uogonek" xMin="54" yMin="-224" xMax="680" yMax="663">
      <contour>
        <pt x="680" y="663" on="1"/>
        <pt x="636" y="294" on="1"/>
        <pt x="630" y="242" on="0"/>
        <pt x="603" y="158" on="0"/>
        <pt x="558" y="91" on="0"/>
        <pt x="493" y="38" on="0"/>
        <pt x="448" y="18" on="1"/>
        <pt x="377" y="-14" on="0"/>
        <pt x="322" y="-69" on="0"/>
        <pt x="322" y="-93" on="1"/>
        <pt x="322" y="-112" on="0"/>
        <pt x="350" y="-131" on="0"/>
        <pt x="373" y="-131" on="1"/>
        <pt x="381" y="-131" on="0"/>
        <pt x="415" y="-128" on="0"/>
        <pt x="434" y="-124" on="1"/>
        <pt x="446" y="-197" on="1"/>
        <pt x="422" y="-209" on="0"/>
        <pt x="361" y="-224" on="0"/>
        <pt x="337" y="-224" on="1"/>
        <pt x="281" y="-224" on="0"/>
        <pt x="214" y="-164" on="0"/>
        <pt x="214" y="-118" on="1"/>
        <pt x="214" y="-60" on="0"/>
        <pt x="276" y="-7" on="1"/>
        <pt x="226" y="-1" on="0"/>
        <pt x="144" y="37" on="0"/>
        <pt x="86" y="99" on="0"/>
        <pt x="54" y="182" on="0"/>
        <pt x="54" y="232" on="1"/>
        <pt x="54" y="257" on="0"/>
        <pt x="60" y="320" on="0"/>
        <pt x="65" y="365" on="1"/>
        <pt x="101" y="663" on="1"/>
        <pt x="255" y="663" on="1"/>
        <pt x="217" y="345" on="1"/>
        <pt x="213" y="311" on="0"/>
        <pt x="210" y="269" on="0"/>
        <pt x="210" y="254" on="1"/>
        <pt x="210" y="196" on="0"/>
        <pt x="273" y="141" on="0"/>
        <pt x="332" y="141" on="1"/>
        <pt x="406" y="141" on="0"/>
        <pt x="478" y="228" on="0"/>
        <pt x="489" y="317" on="1"/>
        <pt x="530" y="663" on="1"/>
      </contour>
    </TTGlyph>
    <TTGlyph name="Uring" xMin="54" yMin="-10" xMax="680" yMax="982">
      <component glyphName="U" x="0" y="0" flags="0x204"/>
      <component glyphName="ring.cap" x="149" y="0" flags="0x4"/>
    </TTGlyph>
    <TTGlyph name="Utilde" xMin="54" yMin="-10" xMax="680" yMax="890">
      <component glyphName="U" x="0" y="0" flags="0x204"/>
      <component glyphName="tilde.cap" x="129" y="0" flags="0x4"/>
    </TTGlyph>
    <TTGlyph name="V" xMin="46" yMin="0" xMax="699" yMax="663">
      <contour>
        <pt x="391" y="0" on="1"/>
        <pt x="222" y="0" on="1"/>
        <pt x="212" y="0" on="0"/>
        <pt x="204" y="8" on="0"/>
        <pt x="202" y="17" on="1"/>
        <pt x="46" y="663" on="1"/>
        <pt x="196" y="663" on="1"/>
        <pt x="204" y="663" on="0"/>
        <pt x="209" y="659" on="0"/>
        <pt x="211" y="651" on="1"/>
        <pt x="262" y="422" on="1"/>
        <pt x="268" y="395" on="0"/>
        <pt x="283" y="318" on="0"/>
        <pt x="298" y="238" on="0"/>
        <pt x="310" y="163" on="0"/>
        <pt x="313" y="138" on="1"/>
        <pt x="315" y="138" on="1"/>
        <pt x="322" y="160" on="0"/>
        <pt x="346" y="227" on="0"/>
        <pt x="374" y="300" on="0"/>
        <pt x="402" y="369" on="0"/>
        <pt x="413" y="393" on="1"/>
        <pt x="529" y="651" on="1"/>
        <pt x="532" y="659" on="0"/>
        <pt x="538" y="663" on="0"/>
        <pt x="546" y="663" on="1"/>
        <pt x="699" y="663" on="1"/>
      </contour>
    </TTGlyph>
    <TTGlyph name="W" xMin="50" yMin="0" xMax="1028" yMax="663">
      <contour>
        <pt x="641" y="474" on="1"/>
        <pt x="647" y="441" on="0"/>
        <pt x="658" y="360" on="0"/>
        <pt x="669" y="275" on="0"/>
        <pt x="676" y="193" on="0"/>
        <pt x="678" y="161" on="1"/>
        <pt x="694" y="212" on="0"/>
        <pt x="744" y="347" on="0"/>
        <pt x="770" y="413" on="1"/>
        <pt x="865" y="651" on="1"/>
        <pt x="870" y="663" on="0"/>
        <pt x="884" y="663" on="1"/>
        <pt x="1028" y="663" on="1"/>
        <pt x="752" y="0" on="1"/>
        <pt x="593" y="0" on="1"/>
        <pt x="582" y="0" on="0"/>
        <pt x="573" y="7" on="0"/>
        <pt x="571" y="15" on="1"/>
        <pt x="537" y="235" on="1"/>
        <pt x="528" y="295" on="0"/>
        <pt x="514" y="409" on="0"/>
        <pt x="512" y="446" on="1"/>
        <pt x="501" y="410" on="0"/>
        <pt x="473" y="326" on="0"/>
        <pt x="441" y="236" on="0"/>
        <pt x="406" y="146" on="0"/>
        <pt x="390" y="105" on="1"/>
        <pt x="348" y="0" on="1"/>
        <pt x="188" y="0" on="1"/>
        <pt x="177" y="0" on="0"/>
        <pt x="169" y="7" on="0"/>
        <pt x="167" y="15" on="1"/>
        <pt x="50" y="663" on="1"/>
        <pt x="193" y="663" on="1"/>
        <pt x="201" y="663" on="0"/>
        <pt x="206" y="659" on="0"/>
        <pt x="208" y="651" on="1"/>
        <pt x="238" y="480" on="1"/>
        <pt x="244" y="444" on="0"/>
        <pt x="259" y="357" on="0"/>
        <pt x="271" y="270" on="0"/>
        <pt x="281" y="190" on="0"/>
        <pt x="283" y="161" on="1"/>
        <pt x="290" y="186" on="0"/>
        <pt x="314" y="255" on="0"/>
        <pt x="343" y="335" on="0"/>
        <pt x="375" y="420" on="0"/>
        <pt x="391" y="461" on="1"/>
        <pt x="428" y="557" on="0"/>
        <pt x="470" y="663" on="1"/>
        <pt x="594" y="663" on="1"/>
        <pt x="608" y="663" on="0"/>
        <pt x="611" y="650" on="1"/>
      </contour>
    </TTGlyph>
    <TTGlyph name="Wacute" xMin="50" yMin="0" xMax="1028" yMax="931">
      <component glyphName="W" x="0" y="0" flags="0x204"/>
      <component glyphName="acute.cap" x="299" y="0" flags="0x4"/>
    </TTGlyph>
    <TTGlyph name="Wcircumflex" xMin="50" yMin="0" xMax="1028" yMax="915">
      <component glyphName="W" x="0" y="0" flags="0x204"/>
      <component glyphName="circumflex.cap" x="290" y="0" flags="0x4"/>
    </TTGlyph>
    <TTGlyph name="Wdieresis" xMin="50" yMin="0" xMax="1028" yMax="873">
      <component glyphName="W" x="0" y="0" flags="0x204"/>
      <component glyphName="dieresis.cap" x="288" y="0" flags="0x4"/>
    </TTGlyph>
    <TTGlyph name="Wgrave" xMin="50" yMin="0" xMax="1028" yMax="932">
      <component glyphName="W" x="0" y="0" flags="0x204"/>
      <component glyphName="grave.cap" x="291" y="0" flags="0x4"/>
    </TTGlyph>
    <TTGlyph name="X" xMin="-31" yMin="0" xMax="701" yMax="663">
      <contour>
        <pt x="433" y="332" on="1"/>
        <pt x="641" y="0" on="1"/>
        <pt x="488" y="0" on="1"/>
        <pt x="479" y="0" on="0"/>
        <pt x="469" y="4" on="0"/>
        <pt x="464" y="12" on="1"/>
        <pt x="327" y="235" on="1"/>
        <pt x="154" y="12" on="1"/>
        <pt x="145" y="0" on="0"/>
        <pt x="129" y="0" on="1"/>
        <pt x="-31" y="0" on="1"/>
        <pt x="250" y="350" on="1"/>
        <pt x="54" y="663" on="1"/>
        <pt x="206" y="663" on="1"/>
        <pt x="217" y="663" on="0"/>
        <pt x="227" y="657" on="0"/>
        <pt x="232" y="649" on="1"/>
        <pt x="356" y="446" on="1"/>
        <pt x="517" y="651" on="1"/>
        <pt x="523" y="659" on="0"/>
        <pt x="533" y="663" on="0"/>
        <pt x="542" y="663" on="1"/>
        <pt x="701" y="663" on="1"/>
      </contour>
    </TTGlyph>
    <TTGlyph name="Y" xMin="39" yMin="0" xMax="712" yMax="663">
      <contour>
        <pt x="340" y="335" on="1"/>
        <pt x="357" y="369" on="0"/>
        <pt x="410" y="457" on="0"/>
        <pt x="438" y="501" on="1"/>
        <pt x="534" y="651" on="1"/>
        <pt x="539" y="659" on="0"/>
        <pt x="547" y="663" on="0"/>
        <pt x="555" y="663" on="1"/>
        <pt x="712" y="663" on="1"/>
        <pt x="401" y="206" on="1"/>
        <pt x="376" y="0" on="1"/>
        <pt x="222" y="0" on="1"/>
        <pt x="248" y="206" on="1"/>
        <pt x="39" y="663" on="1"/>
        <pt x="191" y="663" on="1"/>
        <pt x="199" y="663" on="0"/>
        <pt x="207" y="659" on="0"/>
        <pt x="211" y="651" on="1"/>
        <pt x="270" y="513" on="1"/>
        <pt x="292" y="462" on="0"/>
        <pt x="327" y="373" on="0"/>
        <pt x="338" y="335" on="1"/>
      </contour>
    </TTGlyph>
    <TTGlyph name="Yacute" xMin="39" yMin="0" xMax="712" yMax="931">
      <component glyphName="Y" x="0" y="0" flags="0x204"/>
      <component glyphName="acute.cap" x="145" y="0" flags="0x4"/>
    </TTGlyph>
    <TTGlyph name="Ycircumflex" xMin="39" yMin="0" xMax="712" yMax="915">
      <component glyphName="Y" x="0" y="0" flags="0x204"/>
      <component glyphName="circumflex.cap" x="118" y="0" flags="0x4"/>
    </TTGlyph>
    <TTGlyph name="Ydieresis" xMin="39" yMin="0" xMax="712" yMax="873">
      <component glyphName="Y" x="0" y="0" flags="0x204"/>
      <component glyphName="dieresis.cap" x="122" y="0" flags="0x4"/>
    </TTGlyph>
    <TTGlyph name="Ygrave" xMin="39" yMin="0" xMax="712" yMax="932">
      <component glyphName="Y" x="0" y="0" flags="0x204"/>
      <component glyphName="grave.cap" x="88" y="0" flags="0x4"/>
    </TTGlyph>
    <TTGlyph name="Z" xMin="7" yMin="0" xMax="598" yMax="663">
      <contour>
        <pt x="67" y="532" on="1"/>
        <pt x="83" y="663" on="1"/>
        <pt x="598" y="663" on="1"/>
        <pt x="589" y="586" on="1"/>
        <pt x="587" y="575" on="0"/>
        <pt x="583" y="558" on="0"/>
        <pt x="575" y="542" on="0"/>
        <pt x="561" y="522" on="0"/>
        <pt x="549" y="509" on="1"/>
        <pt x="360" y="292" on="1"/>
        <pt x="322" y="248" on="0"/>
        <pt x="242" y="158" on="0"/>
        <pt x="213" y="130" on="1"/>
        <pt x="542" y="130" on="1"/>
        <pt x="527" y="0" on="1"/>
        <pt x="7" y="0" on="1"/>
        <pt x="16" y="77" on="1"/>
        <pt x="17" y="88" on="0"/>
        <pt x="22" y="105" on="0"/>
        <pt x="30" y="121" on="0"/>
        <pt x="44" y="140" on="0"/>
        <pt x="56" y="154" on="1"/>
        <pt x="245" y="371" on="1"/>
        <pt x="283" y="415" on="0"/>
        <pt x="362" y="504" on="0"/>
        <pt x="391" y="532" on="1"/>
      </contour>
    </TTGlyph>
    <TTGlyph name="Zacute" xMin="7" yMin="0" xMax="598" yMax="931">
      <component glyphName="Z" x="0" y="0" flags="0x204"/>
      <component glyphName="acute.cap" x="88" y="0" flags="0x4"/>
    </TTGlyph>
    <TTGlyph name="Zcaron" xMin="7" yMin="0" xMax="598" yMax="926">
      <component glyphName="Z" x="0" y="0" flags="0x204"/>
      <component glyphName="caron.cap" x="88" y="0" flags="0x4"/>
    </TTGlyph>
    <TTGlyph name="Zdotaccent" xMin="7" yMin="0" xMax="598" yMax="868">
      <component glyphName="Z" x="0" y="0" flags="0x204"/>
      <component glyphName="dotaccent.cap" x="91" y="0" flags="0x4"/>
    </TTGlyph>
    <TTGlyph name="a" xMin="24" yMin="-8" xMax="542" yMax="496">
      <contour>
        <pt x="542" y="95" on="1"/>
        <pt x="533" y="22" on="1"/>
        <pt x="510" y="11" on="0"/>
        <pt x="457" y="-2" on="0"/>
        <pt x="435" y="-2" on="1"/>
        <pt x="405" y="-2" on="0"/>
        <pt x="356" y="24" on="0"/>
        <pt x="343" y="47" on="1"/>
        <pt x="318" y="32" on="1"/>
        <pt x="289" y="15" on="0"/>
        <pt x="230" y="-8" on="0"/>
        <pt x="201" y="-8" on="1"/>
        <pt x="163" y="-8" on="0"/>
        <pt x="98" y="25" on="0"/>
        <pt x="51" y="84" on="0"/>
        <pt x="24" y="165" on="0"/>
        <pt x="24" y="213" on="1"/>
        <pt x="24" y="271" on="0"/>
        <pt x="64" y="375" on="0"/>
        <pt x="130" y="451" on="0"/>
        <pt x="216" y="496" on="0"/>
        <pt x="263" y="496" on="1"/>
        <pt x="292" y="496" on="0"/>
        <pt x="340" y="477" on="0"/>
        <pt x="366" y="459" on="1"/>
        <pt x="386" y="445" on="1"/>
        <pt x="410" y="489" on="1"/>
        <pt x="515" y="481" on="1"/>
        <pt x="472" y="113" on="1"/>
      </contour>
      <contour>
        <pt x="355" y="335" on="1"/>
        <pt x="356" y="342" on="0"/>
        <pt x="353" y="350" on="0"/>
        <pt x="347" y="353" on="1"/>
        <pt x="321" y="367" on="0"/>
        <pt x="283" y="367" on="1"/>
        <pt x="231" y="367" on="0"/>
        <pt x="169" y="286" on="0"/>
        <pt x="169" y="217" on="1"/>
        <pt x="169" y="172" on="0"/>
        <pt x="208" y="121" on="0"/>
        <pt x="246" y="121" on="1"/>
        <pt x="264" y="121" on="0"/>
        <pt x="308" y="134" on="0"/>
        <pt x="322" y="142" on="1"/>
        <pt x="329" y="147" on="0"/>
        <pt x="333" y="153" on="0"/>
        <pt x="334" y="160" on="1"/>
      </contour>
    </TTGlyph>
    <TTGlyph name="aacute" xMin="24" yMin="-8" xMax="542" yMax="757">
      <component glyphName="a" x="0" y="0" flags="0x204"/>
      <component glyphName="acute" x="76" y="0" flags="0x4"/>
    </TTGlyph>
    <TTGlyph name="abreve" xMin="24" yMin="-8" xMax="542" yMax="726">
      <component glyphName="a" x="0" y="0" flags="0x204"/>
      <component glyphName="breve" x="79" y="0" flags="0x4"/>
    </TTGlyph>
    <TTGlyph name="acaron" xMin="24" yMin="-8" xMax="542" yMax="752">
      <component glyphName="a" x="0" y="0" flags="0x204"/>
      <component glyphName="caron" x="84" y="0" flags="0x4"/>
    </TTGlyph>
    <TTGlyph name="acircumflex" xMin="24" yMin="-8" xMax="542" yMax="741">
      <component glyphName="a" x="0" y="0" flags="0x204"/>
      <component glyphName="circumflex" x="72" y="0" flags="0x4"/>
    </TTGlyph>
    <TTGlyph name="acute" xMin="108" yMin="545" xMax="377" yMax="757">
      <contour>
        <pt x="145" y="545" on="1"/>
        <pt x="108" y="605" on="1"/>
        <pt x="297" y="748" on="1"/>
        <pt x="308" y="756" on="0"/>
        <pt x="324" y="757" on="0"/>
        <pt x="332" y="743" on="1"/>
        <pt x="377" y="660" on="1"/>
      </contour>
    </TTGlyph>
    <TTGlyph name="acute.cap" xMin="148" yMin="719" xMax="417" yMax="931">
      <contour>
        <pt x="185" y="719" on="1"/>
        <pt x="148" y="779" on="1"/>
        <pt x="337" y="922" on="1"/>
        <pt x="348" y="930" on="0"/>
        <pt x="364" y="931" on="0"/>
        <pt x="372" y="917" on="1"/>
        <pt x="417" y="834" on="1"/>
      </contour>
    </TTGlyph>
    <TTGlyph name="adieresis" xMin="24" yMin="-8" xMax="542" yMax="699">
      <component glyphName="a" x="0" y="0" flags="0x204"/>
      <component glyphName="dieresis" x="73" y="0" flags="0x4"/>
    </TTGlyph>
    <TTGlyph name="ae" xMin="20" yMin="-8" xMax="793" yMax="496">
      <contour>
        <pt x="462" y="198" on="1"/>
        <pt x="467" y="158" on="0"/>
        <pt x="524" y="117" on="0"/>
        <pt x="571" y="117" on="1"/>
        <pt x="592" y="117" on="0"/>
        <pt x="643" y="126" on="0"/>
        <pt x="675" y="134" on="1"/>
        <pt x="733" y="148" on="1"/>
        <pt x="769" y="68" on="1"/>
        <pt x="750" y="52" on="0"/>
        <pt x="700" y="25" on="0"/>
        <pt x="643" y="4" on="0"/>
        <pt x="582" y="-8" on="0"/>
        <pt x="553" y="-8" on="1"/>
        <pt x="501" y="-8" on="0"/>
        <pt x="415" y="24" on="0"/>
        <pt x="384" y="54" on="1"/>
        <pt x="330" y="27" on="1"/>
        <pt x="296" y="10" on="0"/>
        <pt x="228" y="-8" on="0"/>
        <pt x="193" y="-8" on="1"/>
        <pt x="153" y="-8" on="0"/>
        <pt x="89" y="17" on="0"/>
        <pt x="44" y="59" on="0"/>
        <pt x="20" y="115" on="0"/>
        <pt x="20" y="147" on="1"/>
        <pt x="20" y="218" on="0"/>
        <pt x="116" y="297" on="0"/>
        <pt x="195" y="297" on="1"/>
        <pt x="221" y="297" on="0"/>
        <pt x="293" y="286" on="0"/>
        <pt x="323" y="277" on="1"/>
        <pt x="325" y="287" on="0"/>
        <pt x="328" y="313" on="0"/>
        <pt x="328" y="321" on="1"/>
        <pt x="328" y="346" on="0"/>
        <pt x="295" y="374" on="0"/>
        <pt x="256" y="374" on="1"/>
        <pt x="236" y="374" on="0"/>
        <pt x="184" y="368" on="0"/>
        <pt x="150" y="360" on="1"/>
        <pt x="96" y="348" on="1"/>
        <pt x="67" y="429" on="1"/>
        <pt x="115" y="458" on="0"/>
        <pt x="223" y="496" on="0"/>
        <pt x="277" y="496" on="1"/>
        <pt x="327" y="496" on="0"/>
        <pt x="402" y="463" on="0"/>
        <pt x="422" y="444" on="1"/>
        <pt x="454" y="469" on="0"/>
        <pt x="533" y="496" on="0"/>
        <pt x="575" y="496" on="1"/>
        <pt x="621" y="496" on="0"/>
        <pt x="700" y="464" on="0"/>
        <pt x="759" y="406" on="0"/>
        <pt x="793" y="324" on="0"/>
        <pt x="793" y="274" on="1"/>
        <pt x="793" y="234" on="0"/>
        <pt x="777" y="198" on="0"/>
        <pt x="755" y="198" on="1"/>
      </contour>
      <contour>
        <pt x="195" y="195" on="1"/>
        <pt x="173" y="195" on="0"/>
        <pt x="164" y="187" on="1"/>
        <pt x="154" y="178" on="0"/>
        <pt x="154" y="160" on="1"/>
        <pt x="154" y="135" on="0"/>
        <pt x="187" y="104" on="0"/>
        <pt x="223" y="104" on="1"/>
        <pt x="247" y="104" on="0"/>
        <pt x="307" y="120" on="0"/>
        <pt x="333" y="132" on="1"/>
        <pt x="328" y="148" on="0"/>
        <pt x="321" y="178" on="0"/>
        <pt x="320" y="195" on="1"/>
      </contour>
      <contour>
        <pt x="657" y="296" on="1"/>
        <pt x="655" y="330" on="0"/>
        <pt x="611" y="373" on="0"/>
        <pt x="573" y="373" on="1"/>
        <pt x="536" y="373" on="0"/>
        <pt x="482" y="333" on="0"/>
        <pt x="471" y="296" on="1"/>
      </contour>
    </TTGlyph>
    <TTGlyph name="aeacute" xMin="20" yMin="-8" xMax="793" yMax="757">
      <component glyphName="ae" x="0" y="0" flags="0x204"/>
      <component glyphName="acute" x="248" y="0" flags="0x4"/>
    </TTGlyph>
    <TTGlyph name="agrave" xMin="24" yMin="-8" xMax="542" yMax="758">
      <component glyphName="a" x="0" y="0" flags="0x204"/>
      <component glyphName="grave" x="63" y="0" flags="0x4"/>
    </TTGlyph>
    <TTGlyph name="amacron" xMin="24" yMin="-8" xMax="542" yMax="691">
      <component glyphName="a" x="0" y="0" flags="0x204"/>
      <component glyphName="macron" x="95" y="0" flags="0x4"/>
    </TTGlyph>
    <TTGlyph name="ampersand" xMin="19" yMin="-10" xMax="683" yMax="673">
      <contour>
        <pt x="599" y="102" on="1"/>
        <pt x="681" y="91" on="1"/>
        <pt x="674" y="23" on="1"/>
        <pt x="653" y="13" on="0"/>
        <pt x="596" y="-3" on="0"/>
        <pt x="575" y="-3" on="1"/>
        <pt x="543" y="-3" on="0"/>
        <pt x="489" y="27" on="0"/>
        <pt x="460" y="62" on="1"/>
        <pt x="367" y="-10" on="0"/>
        <pt x="262" y="-10" on="1"/>
        <pt x="212" y="-10" on="0"/>
        <pt x="123" y="22" on="0"/>
        <pt x="57" y="79" on="0"/>
        <pt x="19" y="158" on="0"/>
        <pt x="19" y="205" on="1"/>
        <pt x="19" y="239" on="0"/>
        <pt x="44" y="295" on="0"/>
        <pt x="87" y="340" on="0"/>
        <pt x="145" y="375" on="0"/>
        <pt x="179" y="388" on="1"/>
        <pt x="167" y="407" on="0"/>
        <pt x="149" y="454" on="0"/>
        <pt x="149" y="486" on="1"/>
        <pt x="149" y="529" on="0"/>
        <pt x="184" y="598" on="0"/>
        <pt x="243" y="647" on="0"/>
        <pt x="320" y="673" on="0"/>
        <pt x="362" y="673" on="1"/>
        <pt x="398" y="673" on="0"/>
        <pt x="464" y="651" on="0"/>
        <pt x="514" y="611" on="0"/>
        <pt x="544" y="553" on="0"/>
        <pt x="544" y="516" on="1"/>
        <pt x="544" y="462" on="0"/>
        <pt x="472" y="369" on="0"/>
        <pt x="399" y="326" on="1"/>
        <pt x="486" y="230" on="1"/>
        <pt x="496" y="245" on="0"/>
        <pt x="523" y="285" on="0"/>
        <pt x="554" y="333" on="0"/>
        <pt x="587" y="386" on="0"/>
        <pt x="604" y="413" on="1"/>
        <pt x="683" y="380" on="1"/>
        <pt x="658" y="315" on="0"/>
        <pt x="595" y="205" on="0"/>
        <pt x="556" y="151" on="1"/>
      </contour>
      <contour>
        <pt x="226" y="320" on="1"/>
        <pt x="201" y="304" on="0"/>
        <pt x="163" y="255" on="0"/>
        <pt x="163" y="220" on="1"/>
        <pt x="163" y="175" on="0"/>
        <pt x="227" y="113" on="0"/>
        <pt x="286" y="113" on="1"/>
        <pt x="312" y="113" on="0"/>
        <pt x="368" y="127" on="0"/>
        <pt x="387" y="141" on="1"/>
      </contour>
      <contour>
        <pt x="372" y="410" on="1"/>
        <pt x="396" y="432" on="0"/>
        <pt x="423" y="474" on="0"/>
        <pt x="423" y="499" on="1"/>
        <pt x="423" y="530" on="0"/>
        <pt x="384" y="560" on="0"/>
        <pt x="357" y="560" on="1"/>
        <pt x="324" y="560" on="0"/>
        <pt x="283" y="522" on="0"/>
        <pt x="283" y="493" on="1"/>
        <pt x="283" y="480" on="0"/>
        <pt x="289" y="458" on="0"/>
        <pt x="304" y="434" on="0"/>
        <pt x="328" y="404" on="0"/>
        <pt x="345" y="385" on="1"/>
      </contour>
    </TTGlyph>
    <TTGlyph name="aogonek" xMin="24" yMin="-229" xMax="542" yMax="496">
      <contour>
        <pt x="542" y="95" on="1"/>
        <pt x="533" y="22" on="1"/>
        <pt x="502" y="12" on="0"/>
        <pt x="446" y="-13" on="0"/>
        <pt x="404" y="-42" on="0"/>
        <pt x="379" y="-76" on="0"/>
        <pt x="379" y="-95" on="1"/>
        <pt x="379" y="-114" on="0"/>
        <pt x="405" y="-136" on="0"/>
        <pt x="431" y="-136" on="1"/>
        <pt x="437" y="-136" on="0"/>
        <pt x="472" y="-133" on="0"/>
        <pt x="491" y="-129" on="1"/>
        <pt x="503" y="-202" on="1"/>
        <pt x="479" y="-213" on="0"/>
        <pt x="418" y="-229" on="0"/>
        <pt x="394" y="-229" on="1"/>
        <pt x="338" y="-229" on="0"/>
        <pt x="271" y="-169" on="0"/>
        <pt x="271" y="-123" on="1"/>
        <pt x="271" y="-83" on="0"/>
        <pt x="326" y="-17" on="0"/>
        <pt x="379" y="12" on="1"/>
        <pt x="355" y="25" on="0"/>
        <pt x="343" y="47" on="1"/>
        <pt x="318" y="32" on="1"/>
        <pt x="289" y="15" on="0"/>
        <pt x="230" y="-8" on="0"/>
        <pt x="201" y="-8" on="1"/>
        <pt x="163" y="-8" on="0"/>
        <pt x="98" y="25" on="0"/>
        <pt x="51" y="84" on="0"/>
        <pt x="24" y="165" on="0"/>
        <pt x="24" y="213" on="1"/>
        <pt x="24" y="271" on="0"/>
        <pt x="64" y="375" on="0"/>
        <pt x="130" y="451" on="0"/>
        <pt x="216" y="496" on="0"/>
        <pt x="263" y="496" on="1"/>
        <pt x="292" y="496" on="0"/>
        <pt x="340" y="477" on="0"/>
        <pt x="366" y="459" on="1"/>
        <pt x="386" y="445" on="1"/>
        <pt x="410" y="489" on="1"/>
        <pt x="515" y="481" on="1"/>
        <pt x="472" y="113" on="1"/>
      </contour>
      <contour>
        <pt x="355" y="335" on="1"/>
        <pt x="356" y="342" on="0"/>
        <pt x="353" y="350" on="0"/>
        <pt x="347" y="353" on="1"/>
        <pt x="321" y="367" on="0"/>
        <pt x="283" y="367" on="1"/>
        <pt x="231" y="367" on="0"/>
        <pt x="169" y="286" on="0"/>
        <pt x="169" y="217" on="1"/>
        <pt x="169" y="172" on="0"/>
        <pt x="208" y="121" on="0"/>
        <pt x="246" y="121" on="1"/>
        <pt x="264" y="121" on="0"/>
        <pt x="308" y="134" on="0"/>
        <pt x="322" y="142" on="1"/>
        <pt x="329" y="147" on="0"/>
        <pt x="333" y="153" on="0"/>
        <pt x="334" y="160" on="1"/>
      </contour>
    </TTGlyph>
    <TTGlyph name="apple" xMin="78" yMin="0" xMax="466" yMax="650">
      <contour>
        <pt x="208" y="357" on="1"/>
        <pt x="208" y="370" on="0"/>
        <pt x="227" y="388" on="0"/>
        <pt x="239" y="388" on="1"/>
        <pt x="252" y="388" on="0"/>
        <pt x="269" y="370" on="0"/>
        <pt x="269" y="357" on="1"/>
        <pt x="269" y="344" on="0"/>
        <pt x="252" y="327" on="0"/>
        <pt x="239" y="327" on="1"/>
        <pt x="227" y="327" on="0"/>
        <pt x="208" y="344" on="0"/>
      </contour>
      <contour>
        <pt x="405" y="357" on="1"/>
        <pt x="405" y="370" on="0"/>
        <pt x="424" y="388" on="0"/>
        <pt x="436" y="388" on="1"/>
        <pt x="449" y="388" on="0"/>
        <pt x="466" y="370" on="0"/>
        <pt x="466" y="357" on="1"/>
        <pt x="466" y="344" on="0"/>
        <pt x="449" y="327" on="0"/>
        <pt x="436" y="327" on="1"/>
        <pt x="424" y="327" on="0"/>
        <pt x="405" y="344" on="0"/>
      </contour>
      <contour>
        <pt x="78" y="161" on="1"/>
        <pt x="78" y="174" on="0"/>
        <pt x="95" y="191" on="0"/>
        <pt x="108" y="191" on="1"/>
        <pt x="120" y="191" on="0"/>
        <pt x="139" y="174" on="0"/>
        <pt x="139" y="161" on="1"/>
        <pt x="139" y="148" on="0"/>
        <pt x="120" y="130" on="0"/>
        <pt x="108" y="130" on="1"/>
        <pt x="95" y="130" on="0"/>
        <pt x="78" y="148" on="0"/>
      </contour>
      <contour>
        <pt x="78" y="357" on="1"/>
        <pt x="78" y="370" on="0"/>
        <pt x="95" y="388" on="0"/>
        <pt x="108" y="388" on="1"/>
        <pt x="120" y="388" on="0"/>
        <pt x="139" y="370" on="0"/>
        <pt x="139" y="357" on="1"/>
        <pt x="139" y="344" on="0"/>
        <pt x="120" y="327" on="0"/>
        <pt x="108" y="327" on="1"/>
        <pt x="95" y="327" on="0"/>
        <pt x="78" y="344" on="0"/>
      </contour>
      <contour>
        <pt x="275" y="357" on="1"/>
        <pt x="275" y="370" on="0"/>
        <pt x="292" y="388" on="0"/>
        <pt x="305" y="388" on="1"/>
        <pt x="317" y="388" on="0"/>
        <pt x="336" y="370" on="0"/>
        <pt x="336" y="357" on="1"/>
        <pt x="336" y="344" on="0"/>
        <pt x="317" y="327" on="0"/>
        <pt x="305" y="327" on="1"/>
        <pt x="292" y="327" on="0"/>
        <pt x="275" y="344" on="0"/>
      </contour>
      <contour>
        <pt x="340" y="620" on="1"/>
        <pt x="340" y="632" on="0"/>
        <pt x="357" y="650" on="0"/>
        <pt x="371" y="650" on="1"/>
        <pt x="382" y="650" on="0"/>
        <pt x="401" y="632" on="0"/>
        <pt x="401" y="620" on="1"/>
        <pt x="401" y="606" on="0"/>
        <pt x="382" y="589" on="0"/>
        <pt x="371" y="589" on="1"/>
        <pt x="357" y="589" on="0"/>
        <pt x="340" y="606" on="0"/>
      </contour>
      <contour>
        <pt x="78" y="620" on="1"/>
        <pt x="78" y="632" on="0"/>
        <pt x="95" y="650" on="0"/>
        <pt x="108" y="650" on="1"/>
        <pt x="120" y="650" on="0"/>
        <pt x="139" y="632" on="0"/>
        <pt x="139" y="620" on="1"/>
        <pt x="139" y="606" on="0"/>
        <pt x="120" y="589" on="0"/>
        <pt x="108" y="589" on="1"/>
        <pt x="95" y="589" on="0"/>
        <pt x="78" y="606" on="0"/>
      </contour>
      <contour>
        <pt x="275" y="620" on="1"/>
        <pt x="275" y="632" on="0"/>
        <pt x="292" y="650" on="0"/>
        <pt x="305" y="650" on="1"/>
        <pt x="317" y="650" on="0"/>
        <pt x="336" y="632" on="0"/>
        <pt x="336" y="620" on="1"/>
        <pt x="336" y="606" on="0"/>
        <pt x="317" y="589" on="0"/>
        <pt x="305" y="589" on="1"/>
        <pt x="292" y="589" on="0"/>
        <pt x="275" y="606" on="0"/>
      </contour>
      <contour>
        <pt x="405" y="620" on="1"/>
        <pt x="405" y="632" on="0"/>
        <pt x="424" y="650" on="0"/>
        <pt x="436" y="650" on="1"/>
        <pt x="449" y="650" on="0"/>
        <pt x="466" y="632" on="0"/>
        <pt x="466" y="620" on="1"/>
        <pt x="466" y="606" on="0"/>
        <pt x="449" y="589" on="0"/>
        <pt x="436" y="589" on="1"/>
        <pt x="424" y="589" on="0"/>
        <pt x="405" y="606" on="0"/>
      </contour>
      <contour>
        <pt x="208" y="620" on="1"/>
        <pt x="208" y="632" on="0"/>
        <pt x="227" y="650" on="0"/>
        <pt x="239" y="650" on="1"/>
        <pt x="252" y="650" on="0"/>
        <pt x="269" y="632" on="0"/>
        <pt x="269" y="620" on="1"/>
        <pt x="269" y="606" on="0"/>
        <pt x="252" y="589" on="0"/>
        <pt x="239" y="589" on="1"/>
        <pt x="227" y="589" on="0"/>
        <pt x="208" y="606" on="0"/>
      </contour>
      <contour>
        <pt x="340" y="357" on="1"/>
        <pt x="340" y="370" on="0"/>
        <pt x="357" y="388" on="0"/>
        <pt x="371" y="388" on="1"/>
        <pt x="382" y="388" on="0"/>
        <pt x="401" y="370" on="0"/>
        <pt x="401" y="357" on="1"/>
        <pt x="401" y="344" on="0"/>
        <pt x="382" y="327" on="0"/>
        <pt x="371" y="327" on="1"/>
        <pt x="357" y="327" on="0"/>
        <pt x="340" y="344" on="0"/>
      </contour>
      <contour>
        <pt x="208" y="30" on="1"/>
        <pt x="208" y="42" on="0"/>
        <pt x="227" y="61" on="0"/>
        <pt x="239" y="61" on="1"/>
        <pt x="252" y="61" on="0"/>
        <pt x="269" y="42" on="0"/>
        <pt x="269" y="30" on="1"/>
        <pt x="269" y="17" on="0"/>
        <pt x="252" y="0" on="0"/>
        <pt x="239" y="0" on="1"/>
        <pt x="227" y="0" on="0"/>
        <pt x="208" y="17" on="0"/>
      </contour>
      <contour>
        <pt x="78" y="30" on="1"/>
        <pt x="78" y="42" on="0"/>
        <pt x="95" y="61" on="0"/>
        <pt x="108" y="61" on="1"/>
        <pt x="120" y="61" on="0"/>
        <pt x="139" y="42" on="0"/>
        <pt x="139" y="30" on="1"/>
        <pt x="139" y="17" on="0"/>
        <pt x="120" y="0" on="0"/>
        <pt x="108" y="0" on="1"/>
        <pt x="95" y="0" on="0"/>
        <pt x="78" y="17" on="0"/>
      </contour>
      <contour>
        <pt x="208" y="95" on="1"/>
        <pt x="208" y="109" on="0"/>
        <pt x="227" y="125" on="0"/>
        <pt x="239" y="125" on="1"/>
        <pt x="252" y="125" on="0"/>
        <pt x="269" y="109" on="0"/>
        <pt x="269" y="95" on="1"/>
        <pt x="269" y="82" on="0"/>
        <pt x="252" y="65" on="0"/>
        <pt x="239" y="65" on="1"/>
        <pt x="227" y="65" on="0"/>
        <pt x="208" y="82" on="0"/>
      </contour>
      <contour>
        <pt x="78" y="95" on="1"/>
        <pt x="78" y="109" on="0"/>
        <pt x="95" y="125" on="0"/>
        <pt x="108" y="125" on="1"/>
        <pt x="120" y="125" on="0"/>
        <pt x="139" y="109" on="0"/>
        <pt x="139" y="95" on="1"/>
        <pt x="139" y="82" on="0"/>
        <pt x="120" y="65" on="0"/>
        <pt x="108" y="65" on="1"/>
        <pt x="95" y="65" on="0"/>
        <pt x="78" y="82" on="0"/>
      </contour>
      <contour>
        <pt x="144" y="620" on="1"/>
        <pt x="144" y="632" on="0"/>
        <pt x="162" y="650" on="0"/>
        <pt x="174" y="650" on="1"/>
        <pt x="187" y="650" on="0"/>
        <pt x="204" y="632" on="0"/>
        <pt x="204" y="620" on="1"/>
        <pt x="204" y="606" on="0"/>
        <pt x="187" y="589" on="0"/>
        <pt x="174" y="589" on="1"/>
        <pt x="162" y="589" on="0"/>
        <pt x="144" y="606" on="0"/>
      </contour>
      <contour>
        <pt x="78" y="489" on="1"/>
        <pt x="78" y="501" on="0"/>
        <pt x="95" y="518" on="0"/>
        <pt x="108" y="518" on="1"/>
        <pt x="120" y="518" on="0"/>
        <pt x="139" y="501" on="0"/>
        <pt x="139" y="489" on="1"/>
        <pt x="139" y="476" on="0"/>
        <pt x="120" y="458" on="0"/>
        <pt x="108" y="458" on="1"/>
        <pt x="95" y="458" on="0"/>
        <pt x="78" y="476" on="0"/>
      </contour>
      <contour>
        <pt x="275" y="489" on="1"/>
        <pt x="275" y="501" on="0"/>
        <pt x="292" y="518" on="0"/>
        <pt x="305" y="518" on="1"/>
        <pt x="317" y="518" on="0"/>
        <pt x="336" y="501" on="0"/>
        <pt x="336" y="489" on="1"/>
        <pt x="336" y="476" on="0"/>
        <pt x="317" y="458" on="0"/>
        <pt x="305" y="458" on="1"/>
        <pt x="292" y="458" on="0"/>
        <pt x="275" y="476" on="0"/>
      </contour>
      <contour>
        <pt x="208" y="489" on="1"/>
        <pt x="208" y="501" on="0"/>
        <pt x="227" y="518" on="0"/>
        <pt x="239" y="518" on="1"/>
        <pt x="252" y="518" on="0"/>
        <pt x="269" y="501" on="0"/>
        <pt x="269" y="489" on="1"/>
        <pt x="269" y="476" on="0"/>
        <pt x="252" y="458" on="0"/>
        <pt x="239" y="458" on="1"/>
        <pt x="227" y="458" on="0"/>
        <pt x="208" y="476" on="0"/>
      </contour>
      <contour>
        <pt x="405" y="489" on="1"/>
        <pt x="405" y="501" on="0"/>
        <pt x="424" y="518" on="0"/>
        <pt x="436" y="518" on="1"/>
        <pt x="449" y="518" on="0"/>
        <pt x="466" y="501" on="0"/>
        <pt x="466" y="489" on="1"/>
        <pt x="466" y="476" on="0"/>
        <pt x="449" y="458" on="0"/>
        <pt x="436" y="458" on="1"/>
        <pt x="424" y="458" on="0"/>
        <pt x="405" y="476" on="0"/>
      </contour>
      <contour>
        <pt x="340" y="489" on="1"/>
        <pt x="340" y="501" on="0"/>
        <pt x="357" y="518" on="0"/>
        <pt x="371" y="518" on="1"/>
        <pt x="382" y="518" on="0"/>
        <pt x="401" y="501" on="0"/>
        <pt x="401" y="489" on="1"/>
        <pt x="401" y="476" on="0"/>
        <pt x="382" y="458" on="0"/>
        <pt x="371" y="458" on="1"/>
        <pt x="357" y="458" on="0"/>
        <pt x="340" y="476" on="0"/>
      </contour>
      <contour>
        <pt x="144" y="30" on="1"/>
        <pt x="144" y="42" on="0"/>
        <pt x="162" y="61" on="0"/>
        <pt x="174" y="61" on="1"/>
        <pt x="187" y="61" on="0"/>
        <pt x="204" y="42" on="0"/>
        <pt x="204" y="30" on="1"/>
        <pt x="204" y="17" on="0"/>
        <pt x="187" y="0" on="0"/>
        <pt x="174" y="0" on="1"/>
        <pt x="162" y="0" on="0"/>
        <pt x="144" y="17" on="0"/>
      </contour>
      <contour>
        <pt x="78" y="292" on="1"/>
        <pt x="78" y="304" on="0"/>
        <pt x="95" y="322" on="0"/>
        <pt x="108" y="322" on="1"/>
        <pt x="120" y="322" on="0"/>
        <pt x="139" y="304" on="0"/>
        <pt x="139" y="292" on="1"/>
        <pt x="139" y="279" on="0"/>
        <pt x="120" y="262" on="0"/>
        <pt x="108" y="262" on="1"/>
        <pt x="95" y="262" on="0"/>
        <pt x="78" y="279" on="0"/>
      </contour>
      <contour>
        <pt x="78" y="554" on="1"/>
        <pt x="78" y="566" on="0"/>
        <pt x="95" y="584" on="0"/>
        <pt x="108" y="584" on="1"/>
        <pt x="120" y="584" on="0"/>
        <pt x="139" y="566" on="0"/>
        <pt x="139" y="554" on="1"/>
        <pt x="139" y="541" on="0"/>
        <pt x="120" y="524" on="0"/>
        <pt x="108" y="524" on="1"/>
        <pt x="95" y="524" on="0"/>
        <pt x="78" y="541" on="0"/>
      </contour>
      <contour>
        <pt x="405" y="292" on="1"/>
        <pt x="405" y="304" on="0"/>
        <pt x="424" y="322" on="0"/>
        <pt x="436" y="322" on="1"/>
        <pt x="449" y="322" on="0"/>
        <pt x="466" y="304" on="0"/>
        <pt x="466" y="292" on="1"/>
        <pt x="466" y="279" on="0"/>
        <pt x="449" y="262" on="0"/>
        <pt x="436" y="262" on="1"/>
        <pt x="424" y="262" on="0"/>
        <pt x="405" y="279" on="0"/>
      </contour>
      <contour>
        <pt x="78" y="423" on="1"/>
        <pt x="78" y="436" on="0"/>
        <pt x="95" y="453" on="0"/>
        <pt x="108" y="453" on="1"/>
        <pt x="120" y="453" on="0"/>
        <pt x="139" y="436" on="0"/>
        <pt x="139" y="423" on="1"/>
        <pt x="139" y="410" on="0"/>
        <pt x="120" y="394" on="0"/>
        <pt x="108" y="394" on="1"/>
        <pt x="95" y="394" on="0"/>
        <pt x="78" y="410" on="0"/>
      </contour>
      <contour>
        <pt x="208" y="423" on="1"/>
        <pt x="208" y="436" on="0"/>
        <pt x="227" y="453" on="0"/>
        <pt x="239" y="453" on="1"/>
        <pt x="252" y="453" on="0"/>
        <pt x="269" y="436" on="0"/>
        <pt x="269" y="423" on="1"/>
        <pt x="269" y="410" on="0"/>
        <pt x="252" y="394" on="0"/>
        <pt x="239" y="394" on="1"/>
        <pt x="227" y="394" on="0"/>
        <pt x="208" y="410" on="0"/>
      </contour>
      <contour>
        <pt x="208" y="227" on="1"/>
        <pt x="208" y="239" on="0"/>
        <pt x="227" y="256" on="0"/>
        <pt x="239" y="256" on="1"/>
        <pt x="252" y="256" on="0"/>
        <pt x="269" y="239" on="0"/>
        <pt x="269" y="227" on="1"/>
        <pt x="269" y="214" on="0"/>
        <pt x="252" y="197" on="0"/>
        <pt x="239" y="197" on="1"/>
        <pt x="227" y="197" on="0"/>
        <pt x="208" y="214" on="0"/>
      </contour>
      <contour>
        <pt x="405" y="227" on="1"/>
        <pt x="405" y="239" on="0"/>
        <pt x="424" y="256" on="0"/>
        <pt x="436" y="256" on="1"/>
        <pt x="449" y="256" on="0"/>
        <pt x="466" y="239" on="0"/>
        <pt x="466" y="227" on="1"/>
        <pt x="466" y="214" on="0"/>
        <pt x="449" y="197" on="0"/>
        <pt x="436" y="197" on="1"/>
        <pt x="424" y="197" on="0"/>
        <pt x="405" y="214" on="0"/>
      </contour>
      <contour>
        <pt x="78" y="227" on="1"/>
        <pt x="78" y="239" on="0"/>
        <pt x="95" y="256" on="0"/>
        <pt x="108" y="256" on="1"/>
        <pt x="120" y="256" on="0"/>
        <pt x="139" y="239" on="0"/>
        <pt x="139" y="227" on="1"/>
        <pt x="139" y="214" on="0"/>
        <pt x="120" y="197" on="0"/>
        <pt x="108" y="197" on="1"/>
        <pt x="95" y="197" on="0"/>
        <pt x="78" y="214" on="0"/>
      </contour>
      <contour>
        <pt x="275" y="227" on="1"/>
        <pt x="275" y="239" on="0"/>
        <pt x="292" y="256" on="0"/>
        <pt x="305" y="256" on="1"/>
        <pt x="317" y="256" on="0"/>
        <pt x="336" y="239" on="0"/>
        <pt x="336" y="227" on="1"/>
        <pt x="336" y="214" on="0"/>
        <pt x="317" y="197" on="0"/>
        <pt x="305" y="197" on="1"/>
        <pt x="292" y="197" on="0"/>
        <pt x="275" y="214" on="0"/>
      </contour>
      <contour>
        <pt x="340" y="227" on="1"/>
        <pt x="340" y="239" on="0"/>
        <pt x="357" y="256" on="0"/>
        <pt x="371" y="256" on="1"/>
        <pt x="382" y="256" on="0"/>
        <pt x="401" y="239" on="0"/>
        <pt x="401" y="227" on="1"/>
        <pt x="401" y="214" on="0"/>
        <pt x="382" y="197" on="0"/>
        <pt x="371" y="197" on="1"/>
        <pt x="357" y="197" on="0"/>
        <pt x="340" y="214" on="0"/>
      </contour>
    </TTGlyph>
    <TTGlyph name="approxequal" xMin="34" yMin="48" xMax="511" yMax="456">
      <contour>
        <pt x="356" y="285" on="1"/>
        <pt x="331" y="285" on="0"/>
        <pt x="290" y="300" on="0"/>
        <pt x="253" y="319" on="0"/>
        <pt x="221" y="334" on="0"/>
        <pt x="205" y="334" on="1"/>
        <pt x="186" y="334" on="0"/>
        <pt x="153" y="312" on="0"/>
        <pt x="133" y="285" on="1"/>
        <pt x="60" y="319" on="1"/>
        <pt x="70" y="349" on="0"/>
        <pt x="103" y="399" on="0"/>
        <pt x="143" y="435" on="0"/>
        <pt x="191" y="456" on="0"/>
        <pt x="216" y="456" on="1"/>
        <pt x="242" y="456" on="0"/>
        <pt x="285" y="441" on="0"/>
        <pt x="322" y="423" on="0"/>
        <pt x="353" y="408" on="0"/>
        <pt x="368" y="408" on="1"/>
        <pt x="391" y="408" on="0"/>
        <pt x="424" y="436" on="0"/>
        <pt x="438" y="456" on="1"/>
        <pt x="511" y="423" on="1"/>
        <pt x="501" y="393" on="0"/>
        <pt x="469" y="343" on="0"/>
        <pt x="428" y="306" on="0"/>
        <pt x="381" y="285" on="0"/>
      </contour>
      <contour>
        <pt x="330" y="48" on="1"/>
        <pt x="305" y="48" on="0"/>
        <pt x="264" y="63" on="0"/>
        <pt x="227" y="82" on="0"/>
        <pt x="195" y="97" on="0"/>
        <pt x="179" y="97" on="1"/>
        <pt x="160" y="97" on="0"/>
        <pt x="127" y="75" on="0"/>
        <pt x="107" y="48" on="1"/>
        <pt x="34" y="82" on="1"/>
        <pt x="44" y="112" on="0"/>
        <pt x="77" y="162" on="0"/>
        <pt x="117" y="198" on="0"/>
        <pt x="165" y="219" on="0"/>
        <pt x="190" y="219" on="1"/>
        <pt x="216" y="219" on="0"/>
        <pt x="259" y="204" on="0"/>
        <pt x="296" y="186" on="0"/>
        <pt x="327" y="171" on="0"/>
        <pt x="342" y="171" on="1"/>
        <pt x="365" y="171" on="0"/>
        <pt x="398" y="199" on="0"/>
        <pt x="412" y="219" on="1"/>
        <pt x="485" y="186" on="1"/>
        <pt x="475" y="156" on="0"/>
        <pt x="443" y="106" on="0"/>
        <pt x="402" y="69" on="0"/>
        <pt x="355" y="48" on="0"/>
      </contour>
    </TTGlyph>
    <TTGlyph name="aring" xMin="24" yMin="-8" xMax="542" yMax="808">
      <component glyphName="a" x="0" y="0" flags="0x204"/>
      <component glyphName="ring" x="64" y="0" flags="0x4"/>
    </TTGlyph>
    <TTGlyph name="aringacute" xMin="24" yMin="-8" xMax="542" yMax="1000">
      <component glyphName="a" x="0" y="0" flags="0x204"/>
      <component glyphName="ring" x="60" y="-26" flags="0x4"/>
      <component glyphName="acute" x="87" y="243" flags="0x4"/>
    </TTGlyph>
    <TTGlyph name="arrowdown" xMin="148" yMin="-100" xMax="647" yMax="587">
      <contour>
        <pt x="351" y="-89" on="1"/>
        <pt x="148" y="114" on="1"/>
        <pt x="210" y="176" on="1"/>
        <pt x="334" y="72" on="1"/>
        <pt x="334" y="587" on="1"/>
        <pt x="456" y="587" on="1"/>
        <pt x="456" y="70" on="1"/>
        <pt x="585" y="176" on="1"/>
        <pt x="647" y="115" on="1"/>
        <pt x="433" y="-100" on="1"/>
        <pt x="377" y="-100" on="1"/>
        <pt x="369" y="-100" on="0"/>
        <pt x="358" y="-96" on="0"/>
      </contour>
    </TTGlyph>
    <TTGlyph name="arrowdown.cap" xMin="148" yMin="-14" xMax="647" yMax="673">
      <contour>
        <pt x="351" y="-3" on="1"/>
        <pt x="148" y="200" on="1"/>
        <pt x="210" y="262" on="1"/>
        <pt x="334" y="158" on="1"/>
        <pt x="334" y="673" on="1"/>
        <pt x="456" y="673" on="1"/>
        <pt x="456" y="156" on="1"/>
        <pt x="585" y="262" on="1"/>
        <pt x="647" y="201" on="1"/>
        <pt x="433" y="-14" on="1"/>
        <pt x="377" y="-14" on="1"/>
        <pt x="369" y="-14" on="0"/>
        <pt x="358" y="-10" on="0"/>
      </contour>
    </TTGlyph>
    <TTGlyph name="arrowleft" xMin="54" yMin="-8" xMax="740" yMax="491">
      <contour>
        <pt x="268" y="491" on="1"/>
        <pt x="330" y="429" on="1"/>
        <pt x="226" y="302" on="1"/>
        <pt x="740" y="302" on="1"/>
        <pt x="740" y="185" on="1"/>
        <pt x="223" y="185" on="1"/>
        <pt x="330" y="54" on="1"/>
        <pt x="268" y="-8" on="1"/>
        <pt x="54" y="206" on="1"/>
        <pt x="54" y="262" on="1"/>
        <pt x="54" y="271" on="0"/>
        <pt x="58" y="281" on="0"/>
        <pt x="65" y="288" on="1"/>
      </contour>
    </TTGlyph>
    <TTGlyph name="arrowleft.cap" xMin="54" yMin="78" xMax="740" yMax="577">
      <contour>
        <pt x="268" y="577" on="1"/>
        <pt x="330" y="515" on="1"/>
        <pt x="226" y="388" on="1"/>
        <pt x="740" y="388" on="1"/>
        <pt x="740" y="271" on="1"/>
        <pt x="223" y="271" on="1"/>
        <pt x="330" y="140" on="1"/>
        <pt x="268" y="78" on="1"/>
        <pt x="54" y="292" on="1"/>
        <pt x="54" y="348" on="1"/>
        <pt x="54" y="357" on="0"/>
        <pt x="58" y="367" on="0"/>
        <pt x="65" y="374" on="1"/>
      </contour>
    </TTGlyph>
    <TTGlyph name="arrowright" xMin="54" yMin="-4" xMax="740" yMax="495">
      <contour>
        <pt x="729" y="199" on="1"/>
        <pt x="526" y="-4" on="1"/>
        <pt x="464" y="58" on="1"/>
        <pt x="568" y="185" on="1"/>
        <pt x="54" y="185" on="1"/>
        <pt x="54" y="302" on="1"/>
        <pt x="571" y="302" on="1"/>
        <pt x="464" y="433" on="1"/>
        <pt x="526" y="495" on="1"/>
        <pt x="740" y="281" on="1"/>
        <pt x="740" y="225" on="1"/>
        <pt x="740" y="216" on="0"/>
        <pt x="736" y="206" on="0"/>
      </contour>
    </TTGlyph>
    <TTGlyph name="arrowright.cap" xMin="54" yMin="82" xMax="740" yMax="581">
      <contour>
        <pt x="729" y="285" on="1"/>
        <pt x="526" y="82" on="1"/>
        <pt x="464" y="144" on="1"/>
        <pt x="568" y="271" on="1"/>
        <pt x="54" y="271" on="1"/>
        <pt x="54" y="388" on="1"/>
        <pt x="571" y="388" on="1"/>
        <pt x="464" y="519" on="1"/>
        <pt x="526" y="581" on="1"/>
        <pt x="740" y="367" on="1"/>
        <pt x="740" y="311" on="1"/>
        <pt x="740" y="302" on="0"/>
        <pt x="736" y="292" on="0"/>
      </contour>
    </TTGlyph>
    <TTGlyph name="arrowup" xMin="148" yMin="-100" xMax="647" yMax="587">
      <contour>
        <pt x="443" y="576" on="1"/>
        <pt x="647" y="373" on="1"/>
        <pt x="585" y="311" on="1"/>
        <pt x="461" y="415" on="1"/>
        <pt x="461" y="-100" on="1"/>
        <pt x="338" y="-100" on="1"/>
        <pt x="338" y="418" on="1"/>
        <pt x="210" y="311" on="1"/>
        <pt x="148" y="372" on="1"/>
        <pt x="362" y="587" on="1"/>
        <pt x="418" y="587" on="1"/>
        <pt x="427" y="587" on="0"/>
        <pt x="436" y="583" on="0"/>
      </contour>
    </TTGlyph>
    <TTGlyph name="arrowup.cap" xMin="148" yMin="-14" xMax="647" yMax="673">
      <contour>
        <pt x="443" y="662" on="1"/>
        <pt x="647" y="459" on="1"/>
        <pt x="585" y="397" on="1"/>
        <pt x="461" y="501" on="1"/>
        <pt x="461" y="-14" on="1"/>
        <pt x="338" y="-14" on="1"/>
        <pt x="338" y="504" on="1"/>
        <pt x="210" y="397" on="1"/>
        <pt x="148" y="458" on="1"/>
        <pt x="362" y="673" on="1"/>
        <pt x="418" y="673" on="1"/>
        <pt x="427" y="673" on="0"/>
        <pt x="436" y="669" on="0"/>
      </contour>
    </TTGlyph>
    <TTGlyph name="asciicircum" xMin="68" yMin="372" xMax="508" yMax="673">
      <contour>
        <pt x="508" y="443" on="1"/>
        <pt x="398" y="372" on="1"/>
        <pt x="299" y="527" on="1"/>
        <pt x="297" y="527" on="1"/>
        <pt x="161" y="372" on="1"/>
        <pt x="68" y="443" on="1"/>
        <pt x="267" y="673" on="1"/>
        <pt x="364" y="673" on="1"/>
      </contour>
    </TTGlyph>
    <TTGlyph name="asciitilde" xMin="60" yMin="278" xMax="511" yMax="449">
      <contour>
        <pt x="356" y="278" on="1"/>
        <pt x="331" y="278" on="0"/>
        <pt x="290" y="293" on="0"/>
        <pt x="253" y="312" on="0"/>
        <pt x="221" y="327" on="0"/>
        <pt x="205" y="327" on="1"/>
        <pt x="186" y="327" on="0"/>
        <pt x="153" y="305" on="0"/>
        <pt x="133" y="278" on="1"/>
        <pt x="60" y="312" on="1"/>
        <pt x="70" y="342" on="0"/>
        <pt x="103" y="392" on="0"/>
        <pt x="143" y="428" on="0"/>
        <pt x="191" y="449" on="0"/>
        <pt x="216" y="449" on="1"/>
        <pt x="242" y="449" on="0"/>
        <pt x="285" y="434" on="0"/>
        <pt x="322" y="416" on="0"/>
        <pt x="353" y="401" on="0"/>
        <pt x="368" y="401" on="1"/>
        <pt x="391" y="401" on="0"/>
        <pt x="424" y="429" on="0"/>
        <pt x="438" y="449" on="1"/>
        <pt x="511" y="416" on="1"/>
        <pt x="501" y="386" on="0"/>
        <pt x="469" y="336" on="0"/>
        <pt x="428" y="299" on="0"/>
        <pt x="381" y="278" on="0"/>
      </contour>
    </TTGlyph>
    <TTGlyph name="asterisk" xMin="60" yMin="270" xMax="450" yMax="663">
      <contour>
        <pt x="318" y="281" on="1"/>
        <pt x="302" y="271" on="0"/>
        <pt x="296" y="286" on="1"/>
        <pt x="246" y="410" on="1"/>
        <pt x="157" y="270" on="1"/>
        <pt x="79" y="328" on="1"/>
        <pt x="63" y="339" on="0"/>
        <pt x="83" y="356" on="1"/>
        <pt x="198" y="457" on="1"/>
        <pt x="60" y="481" on="1"/>
        <pt x="102" y="568" on="1"/>
        <pt x="107" y="579" on="0"/>
        <pt x="118" y="585" on="0"/>
        <pt x="129" y="578" on="1"/>
        <pt x="224" y="514" on="1"/>
        <pt x="214" y="663" on="1"/>
        <pt x="320" y="663" on="1"/>
        <pt x="338" y="663" on="0"/>
        <pt x="332" y="646" on="1"/>
        <pt x="292" y="515" on="1"/>
        <pt x="422" y="588" on="1"/>
        <pt x="445" y="499" on="1"/>
        <pt x="450" y="480" on="0"/>
        <pt x="428" y="477" on="1"/>
        <pt x="306" y="457" on="1"/>
        <pt x="411" y="339" on="1"/>
      </contour>
    </TTGlyph>
    <TTGlyph name="at" xMin="35" yMin="-99" xMax="714" yMax="583">
      <contour>
        <pt x="320" y="228" on="1"/>
        <pt x="320" y="202" on="0"/>
        <pt x="342" y="173" on="0"/>
        <pt x="365" y="173" on="1"/>
        <pt x="383" y="173" on="0"/>
        <pt x="403" y="183" on="1"/>
        <pt x="411" y="187" on="0"/>
        <pt x="412" y="195" on="1"/>
        <pt x="426" y="300" on="1"/>
        <pt x="427" y="308" on="0"/>
        <pt x="420" y="311" on="1"/>
        <pt x="412" y="315" on="0"/>
        <pt x="393" y="318" on="0"/>
        <pt x="385" y="318" on="1"/>
        <pt x="355" y="318" on="0"/>
        <pt x="320" y="270" on="0"/>
      </contour>
      <contour>
        <pt x="427" y="117" on="1"/>
        <pt x="398" y="98" on="0"/>
        <pt x="357" y="83" on="0"/>
        <pt x="340" y="83" on="1"/>
        <pt x="316" y="83" on="0"/>
        <pt x="273" y="102" on="0"/>
        <pt x="240" y="138" on="0"/>
        <pt x="221" y="191" on="0"/>
        <pt x="221" y="225" on="1"/>
        <pt x="221" y="265" on="0"/>
        <pt x="246" y="332" on="0"/>
        <pt x="287" y="381" on="0"/>
        <pt x="340" y="408" on="0"/>
        <pt x="368" y="408" on="1"/>
        <pt x="391" y="408" on="0"/>
        <pt x="430" y="392" on="0"/>
        <pt x="451" y="375" on="1"/>
        <pt x="467" y="404" on="1"/>
        <pt x="534" y="400" on="1"/>
        <pt x="511" y="212" on="1"/>
        <pt x="510" y="205" on="0"/>
        <pt x="509" y="193" on="0"/>
        <pt x="509" y="187" on="1"/>
        <pt x="509" y="173" on="0"/>
        <pt x="524" y="155" on="0"/>
        <pt x="539" y="155" on="1"/>
        <pt x="568" y="155" on="0"/>
        <pt x="610" y="222" on="0"/>
        <pt x="610" y="287" on="1"/>
        <pt x="610" y="336" on="0"/>
        <pt x="579" y="410" on="0"/>
        <pt x="525" y="460" on="0"/>
        <pt x="451" y="484" on="0"/>
        <pt x="408" y="484" on="1"/>
        <pt x="352" y="484" on="0"/>
        <pt x="257" y="443" on="0"/>
        <pt x="188" y="372" on="0"/>
        <pt x="150" y="276" on="0"/>
        <pt x="150" y="220" on="1"/>
        <pt x="150" y="170" on="0"/>
        <pt x="182" y="88" on="0"/>
        <pt x="242" y="31" on="0"/>
        <pt x="327" y="0" on="0"/>
        <pt x="380" y="0" on="1"/>
        <pt x="418" y="0" on="0"/>
        <pt x="497" y="15" on="0"/>
        <pt x="542" y="27" on="1"/>
        <pt x="623" y="49" on="1"/>
        <pt x="646" y="-13" on="1"/>
        <pt x="616" y="-33" on="0"/>
        <pt x="547" y="-64" on="0"/>
        <pt x="473" y="-87" on="0"/>
        <pt x="396" y="-99" on="0"/>
        <pt x="359" y="-99" on="1"/>
        <pt x="289" y="-99" on="0"/>
        <pt x="170" y="-55" on="0"/>
        <pt x="84" y="26" on="0"/>
        <pt x="35" y="139" on="0"/>
        <pt x="35" y="207" on="1"/>
        <pt x="35" y="286" on="0"/>
        <pt x="93" y="424" on="0"/>
        <pt x="195" y="525" on="0"/>
        <pt x="332" y="583" on="0"/>
        <pt x="412" y="583" on="1"/>
        <pt x="478" y="583" on="0"/>
        <pt x="588" y="542" on="0"/>
        <pt x="669" y="468" on="0"/>
        <pt x="714" y="366" on="0"/>
        <pt x="714" y="306" on="1"/>
        <pt x="714" y="257" on="0"/>
        <pt x="684" y="173" on="0"/>
        <pt x="632" y="112" on="0"/>
        <pt x="562" y="78" on="0"/>
        <pt x="522" y="78" on="1"/>
        <pt x="491" y="78" on="0"/>
        <pt x="440" y="99" on="0"/>
      </contour>
    </TTGlyph>
    <TTGlyph name="at.cap" xMin="42" yMin="-9" xMax="721" yMax="673">
      <component glyphName="at" x="7" y="90" flags="0x204"/>
    </TTGlyph>
    <TTGlyph name="atilde" xMin="24" yMin="-8" xMax="542" yMax="716">
      <component glyphName="a" x="0" y="0" flags="0x204"/>
      <component glyphName="tilde" x="80" y="0" flags="0x4"/>
    </TTGlyph>
    <TTGlyph name="b" xMin="26" yMin="-8" xMax="522" yMax="709">
      <contour>
        <pt x="221" y="454" on="1"/>
        <pt x="249" y="468" on="1"/>
        <pt x="273" y="480" on="0"/>
        <pt x="325" y="496" on="0"/>
        <pt x="351" y="496" on="1"/>
        <pt x="386" y="496" on="0"/>
        <pt x="448" y="463" on="0"/>
        <pt x="495" y="403" on="0"/>
        <pt x="522" y="322" on="0"/>
        <pt x="522" y="274" on="1"/>
        <pt x="522" y="216" on="0"/>
        <pt x="485" y="113" on="0"/>
        <pt x="422" y="37" on="0"/>
        <pt x="339" y="-8" on="0"/>
        <pt x="293" y="-8" on="1"/>
        <pt x="263" y="-8" on="0"/>
        <pt x="204" y="13" on="0"/>
        <pt x="176" y="31" on="1"/>
        <pt x="155" y="45" on="1"/>
        <pt x="131" y="-2" on="1"/>
        <pt x="26" y="5" on="1"/>
        <pt x="108" y="709" on="1"/>
        <pt x="251" y="709" on="1"/>
      </contour>
      <contour>
        <pt x="185" y="155" on="1"/>
        <pt x="184" y="147" on="0"/>
        <pt x="189" y="139" on="0"/>
        <pt x="198" y="135" on="1"/>
        <pt x="212" y="129" on="0"/>
        <pt x="253" y="121" on="0"/>
        <pt x="270" y="121" on="1"/>
        <pt x="323" y="121" on="0"/>
        <pt x="377" y="203" on="0"/>
        <pt x="377" y="270" on="1"/>
        <pt x="377" y="315" on="0"/>
        <pt x="341" y="366" on="0"/>
        <pt x="300" y="366" on="1"/>
        <pt x="280" y="366" on="0"/>
        <pt x="240" y="356" on="0"/>
        <pt x="223" y="348" on="1"/>
        <pt x="215" y="344" on="0"/>
        <pt x="209" y="335" on="0"/>
        <pt x="207" y="326" on="1"/>
      </contour>
    </TTGlyph>
    <TTGlyph name="backslash" xMin="49" yMin="0" xMax="438" yMax="663">
      <contour>
        <pt x="291" y="0" on="1"/>
        <pt x="49" y="663" on="1"/>
        <pt x="195" y="663" on="1"/>
        <pt x="438" y="0" on="1"/>
      </contour>
    </TTGlyph>
    <TTGlyph name="bar" xMin="16" yMin="-229" xMax="263" yMax="709">
      <contour>
        <pt x="127" y="709" on="1"/>
        <pt x="263" y="709" on="1"/>
        <pt x="152" y="-229" on="1"/>
        <pt x="16" y="-229" on="1"/>
      </contour>
    </TTGlyph>
    <TTGlyph name="braceleft" xMin="25" yMin="-240" xMax="414" yMax="673">
      <contour>
        <pt x="37" y="264" on="1"/>
        <pt x="72" y="277" on="0"/>
        <pt x="115" y="299" on="0"/>
        <pt x="139" y="325" on="0"/>
        <pt x="147" y="360" on="0"/>
        <pt x="147" y="386" on="1"/>
        <pt x="147" y="398" on="0"/>
        <pt x="145" y="430" on="0"/>
        <pt x="144" y="465" on="0"/>
        <pt x="142" y="499" on="0"/>
        <pt x="142" y="514" on="1"/>
        <pt x="142" y="554" on="0"/>
        <pt x="167" y="614" on="0"/>
        <pt x="211" y="654" on="0"/>
        <pt x="272" y="673" on="0"/>
        <pt x="307" y="673" on="1"/>
        <pt x="331" y="673" on="0"/>
        <pt x="388" y="664" on="0"/>
        <pt x="414" y="656" on="1"/>
        <pt x="403" y="567" on="1"/>
        <pt x="307" y="544" on="1"/>
        <pt x="296" y="541" on="0"/>
        <pt x="287" y="531" on="0"/>
        <pt x="287" y="518" on="1"/>
        <pt x="287" y="507" on="0"/>
        <pt x="288" y="472" on="0"/>
        <pt x="290" y="436" on="0"/>
        <pt x="291" y="404" on="0"/>
        <pt x="291" y="395" on="1"/>
        <pt x="291" y="360" on="0"/>
        <pt x="276" y="306" on="0"/>
        <pt x="241" y="264" on="0"/>
        <pt x="185" y="231" on="0"/>
        <pt x="143" y="216" on="1"/>
        <pt x="205" y="192" on="0"/>
        <pt x="257" y="137" on="0"/>
        <pt x="257" y="95" on="1"/>
        <pt x="257" y="72" on="0"/>
        <pt x="244" y="16" on="0"/>
        <pt x="229" y="-38" on="0"/>
        <pt x="216" y="-82" on="0"/>
        <pt x="216" y="-92" on="1"/>
        <pt x="216" y="-101" on="0"/>
        <pt x="225" y="-109" on="0"/>
        <pt x="235" y="-112" on="1"/>
        <pt x="321" y="-134" on="1"/>
        <pt x="310" y="-223" on="1"/>
        <pt x="287" y="-230" on="0"/>
        <pt x="225" y="-240" on="0"/>
        <pt x="200" y="-240" on="1"/>
        <pt x="140" y="-240" on="0"/>
        <pt x="66" y="-179" on="0"/>
        <pt x="66" y="-126" on="1"/>
        <pt x="66" y="-100" on="0"/>
        <pt x="80" y="-39" on="0"/>
        <pt x="98" y="20" on="0"/>
        <pt x="112" y="72" on="0"/>
        <pt x="112" y="89" on="1"/>
        <pt x="112" y="116" on="0"/>
        <pt x="75" y="150" on="0"/>
        <pt x="25" y="168" on="1"/>
      </contour>
    </TTGlyph>
    <TTGlyph name="braceleft.cap" xMin="48" yMin="-124" xMax="437" yMax="789">
      <contour>
        <pt x="60" y="380" on="1"/>
        <pt x="95" y="393" on="0"/>
        <pt x="138" y="415" on="0"/>
        <pt x="162" y="441" on="0"/>
        <pt x="170" y="476" on="0"/>
        <pt x="170" y="502" on="1"/>
        <pt x="170" y="514" on="0"/>
        <pt x="168" y="546" on="0"/>
        <pt x="167" y="581" on="0"/>
        <pt x="165" y="615" on="0"/>
        <pt x="165" y="630" on="1"/>
        <pt x="165" y="670" on="0"/>
        <pt x="190" y="730" on="0"/>
        <pt x="234" y="770" on="0"/>
        <pt x="295" y="789" on="0"/>
        <pt x="330" y="789" on="1"/>
        <pt x="354" y="789" on="0"/>
        <pt x="411" y="780" on="0"/>
        <pt x="437" y="772" on="1"/>
        <pt x="426" y="683" on="1"/>
        <pt x="330" y="660" on="1"/>
        <pt x="319" y="657" on="0"/>
        <pt x="310" y="647" on="0"/>
        <pt x="310" y="634" on="1"/>
        <pt x="310" y="623" on="0"/>
        <pt x="311" y="588" on="0"/>
        <pt x="313" y="552" on="0"/>
        <pt x="314" y="520" on="0"/>
        <pt x="314" y="511" on="1"/>
        <pt x="314" y="476" on="0"/>
        <pt x="299" y="422" on="0"/>
        <pt x="264" y="380" on="0"/>
        <pt x="208" y="347" on="0"/>
        <pt x="166" y="332" on="1"/>
        <pt x="228" y="308" on="0"/>
        <pt x="280" y="253" on="0"/>
        <pt x="280" y="211" on="1"/>
        <pt x="280" y="188" on="0"/>
        <pt x="267" y="132" on="0"/>
        <pt x="252" y="78" on="0"/>
        <pt x="239" y="34" on="0"/>
        <pt x="239" y="24" on="1"/>
        <pt x="239" y="15" on="0"/>
        <pt x="248" y="7" on="0"/>
        <pt x="258" y="4" on="1"/>
        <pt x="344" y="-18" on="1"/>
        <pt x="333" y="-107" on="1"/>
        <pt x="310" y="-114" on="0"/>
        <pt x="248" y="-124" on="0"/>
        <pt x="223" y="-124" on="1"/>
        <pt x="163" y="-124" on="0"/>
        <pt x="89" y="-63" on="0"/>
        <pt x="89" y="-10" on="1"/>
        <pt x="89" y="16" on="0"/>
        <pt x="103" y="77" on="0"/>
        <pt x="121" y="136" on="0"/>
        <pt x="135" y="188" on="0"/>
        <pt x="135" y="205" on="1"/>
        <pt x="135" y="232" on="0"/>
        <pt x="98" y="266" on="0"/>
        <pt x="48" y="284" on="1"/>
      </contour>
    </TTGlyph>
    <TTGlyph name="braceright" xMin="-40" yMin="-240" xMax="349" yMax="673">
      <contour>
        <pt x="337" y="169" on="1"/>
        <pt x="302" y="156" on="0"/>
        <pt x="259" y="134" on="0"/>
        <pt x="235" y="108" on="0"/>
        <pt x="227" y="73" on="0"/>
        <pt x="227" y="47" on="1"/>
        <pt x="227" y="35" on="0"/>
        <pt x="229" y="2" on="0"/>
        <pt x="230" y="-32" on="0"/>
        <pt x="232" y="-66" on="0"/>
        <pt x="232" y="-81" on="1"/>
        <pt x="232" y="-122" on="0"/>
        <pt x="207" y="-181" on="0"/>
        <pt x="163" y="-221" on="0"/>
        <pt x="102" y="-240" on="0"/>
        <pt x="67" y="-240" on="1"/>
        <pt x="43" y="-240" on="0"/>
        <pt x="-14" y="-231" on="0"/>
        <pt x="-40" y="-223" on="1"/>
        <pt x="-29" y="-134" on="1"/>
        <pt x="67" y="-111" on="1"/>
        <pt x="78" y="-108" on="0"/>
        <pt x="87" y="-98" on="0"/>
        <pt x="87" y="-85" on="1"/>
        <pt x="87" y="-74" on="0"/>
        <pt x="86" y="-39" on="0"/>
        <pt x="84" y="-3" on="0"/>
        <pt x="83" y="29" on="0"/>
        <pt x="83" y="38" on="1"/>
        <pt x="83" y="73" on="0"/>
        <pt x="98" y="127" on="0"/>
        <pt x="133" y="169" on="0"/>
        <pt x="189" y="202" on="0"/>
        <pt x="231" y="217" on="1"/>
        <pt x="169" y="241" on="0"/>
        <pt x="117" y="296" on="0"/>
        <pt x="117" y="338" on="1"/>
        <pt x="117" y="361" on="0"/>
        <pt x="130" y="417" on="0"/>
        <pt x="145" y="471" on="0"/>
        <pt x="158" y="515" on="0"/>
        <pt x="158" y="525" on="1"/>
        <pt x="158" y="534" on="0"/>
        <pt x="149" y="542" on="0"/>
        <pt x="139" y="545" on="1"/>
        <pt x="53" y="567" on="1"/>
        <pt x="64" y="656" on="1"/>
        <pt x="87" y="663" on="0"/>
        <pt x="149" y="673" on="0"/>
        <pt x="174" y="673" on="1"/>
        <pt x="234" y="673" on="0"/>
        <pt x="308" y="612" on="0"/>
        <pt x="308" y="559" on="1"/>
        <pt x="308" y="533" on="0"/>
        <pt x="294" y="472" on="0"/>
        <pt x="276" y="413" on="0"/>
        <pt x="262" y="361" on="0"/>
        <pt x="262" y="344" on="1"/>
        <pt x="262" y="317" on="0"/>
        <pt x="299" y="283" on="0"/>
        <pt x="349" y="265" on="1"/>
      </contour>
    </TTGlyph>
    <TTGlyph name="braceright.cap" xMin="-31" yMin="-124" xMax="358" yMax="789">
      <contour>
        <pt x="346" y="285" on="1"/>
        <pt x="311" y="272" on="0"/>
        <pt x="268" y="250" on="0"/>
        <pt x="244" y="224" on="0"/>
        <pt x="236" y="189" on="0"/>
        <pt x="236" y="163" on="1"/>
        <pt x="236" y="151" on="0"/>
        <pt x="238" y="118" on="0"/>
        <pt x="239" y="84" on="0"/>
        <pt x="241" y="50" on="0"/>
        <pt x="241" y="35" on="1"/>
        <pt x="241" y="-6" on="0"/>
        <pt x="216" y="-65" on="0"/>
        <pt x="172" y="-105" on="0"/>
        <pt x="111" y="-124" on="0"/>
        <pt x="76" y="-124" on="1"/>
        <pt x="52" y="-124" on="0"/>
        <pt x="-5" y="-115" on="0"/>
        <pt x="-31" y="-107" on="1"/>
        <pt x="-20" y="-18" on="1"/>
        <pt x="76" y="5" on="1"/>
        <pt x="87" y="8" on="0"/>
        <pt x="96" y="18" on="0"/>
        <pt x="96" y="31" on="1"/>
        <pt x="96" y="42" on="0"/>
        <pt x="95" y="77" on="0"/>
        <pt x="93" y="113" on="0"/>
        <pt x="92" y="145" on="0"/>
        <pt x="92" y="154" on="1"/>
        <pt x="92" y="189" on="0"/>
        <pt x="107" y="243" on="0"/>
        <pt x="142" y="285" on="0"/>
        <pt x="198" y="318" on="0"/>
        <pt x="240" y="333" on="1"/>
        <pt x="178" y="357" on="0"/>
        <pt x="126" y="412" on="0"/>
        <pt x="126" y="454" on="1"/>
        <pt x="126" y="477" on="0"/>
        <pt x="139" y="533" on="0"/>
        <pt x="154" y="587" on="0"/>
        <pt x="167" y="631" on="0"/>
        <pt x="167" y="641" on="1"/>
        <pt x="167" y="650" on="0"/>
        <pt x="158" y="658" on="0"/>
        <pt x="148" y="661" on="1"/>
        <pt x="62" y="683" on="1"/>
        <pt x="73" y="772" on="1"/>
        <pt x="96" y="779" on="0"/>
        <pt x="158" y="789" on="0"/>
        <pt x="183" y="789" on="1"/>
        <pt x="243" y="789" on="0"/>
        <pt x="317" y="728" on="0"/>
        <pt x="317" y="675" on="1"/>
        <pt x="317" y="649" on="0"/>
        <pt x="303" y="588" on="0"/>
        <pt x="285" y="529" on="0"/>
        <pt x="271" y="477" on="0"/>
        <pt x="271" y="460" on="1"/>
        <pt x="271" y="433" on="0"/>
        <pt x="308" y="399" on="0"/>
        <pt x="358" y="381" on="1"/>
      </contour>
    </TTGlyph>
    <TTGlyph name="bracketleft" xMin="14" yMin="-229" xMax="384" yMax="663">
      <contour>
        <pt x="170" y="-99" on="1"/>
        <pt x="295" y="-99" on="1"/>
        <pt x="279" y="-229" on="1"/>
        <pt x="14" y="-229" on="1"/>
        <pt x="120" y="663" on="1"/>
        <pt x="384" y="663" on="1"/>
        <pt x="368" y="533" on="1"/>
        <pt x="246" y="533" on="1"/>
      </contour>
    </TTGlyph>
    <TTGlyph name="bracketleft.cap" xMin="28" yMin="-114" xMax="398" yMax="778">
      <contour>
        <pt x="184" y="16" on="1"/>
        <pt x="309" y="16" on="1"/>
        <pt x="293" y="-114" on="1"/>
        <pt x="28" y="-114" on="1"/>
        <pt x="134" y="778" on="1"/>
        <pt x="398" y="778" on="1"/>
        <pt x="382" y="648" on="1"/>
        <pt x="260" y="648" on="1"/>
      </contour>
    </TTGlyph>
    <TTGlyph name="bracketright" xMin="-38" yMin="-229" xMax="332" yMax="663">
      <contour>
        <pt x="176" y="533" on="1"/>
        <pt x="51" y="533" on="1"/>
        <pt x="67" y="663" on="1"/>
        <pt x="332" y="663" on="1"/>
        <pt x="226" y="-229" on="1"/>
        <pt x="-38" y="-229" on="1"/>
        <pt x="-22" y="-99" on="1"/>
        <pt x="100" y="-99" on="1"/>
      </contour>
    </TTGlyph>
    <TTGlyph name="bracketright.cap" xMin="-27" yMin="-114" xMax="343" yMax="778">
      <contour>
        <pt x="187" y="648" on="1"/>
        <pt x="62" y="648" on="1"/>
        <pt x="78" y="778" on="1"/>
        <pt x="343" y="778" on="1"/>
        <pt x="237" y="-114" on="1"/>
        <pt x="-27" y="-114" on="1"/>
        <pt x="-11" y="16" on="1"/>
        <pt x="111" y="16" on="1"/>
      </contour>
    </TTGlyph>
    <TTGlyph name="breve" xMin="88" yMin="557" xMax="419" yMax="726">
      <contour>
        <pt x="238" y="557" on="1"/>
        <pt x="201" y="557" on="0"/>
        <pt x="145" y="581" on="0"/>
        <pt x="107" y="623" on="0"/>
        <pt x="88" y="678" on="0"/>
        <pt x="88" y="710" on="1"/>
        <pt x="178" y="726" on="1"/>
        <pt x="185" y="693" on="0"/>
        <pt x="218" y="658" on="0"/>
        <pt x="247" y="658" on="1"/>
        <pt x="278" y="658" on="0"/>
        <pt x="318" y="693" on="0"/>
        <pt x="332" y="726" on="1"/>
        <pt x="419" y="710" on="1"/>
        <pt x="411" y="677" on="0"/>
        <pt x="380" y="621" on="0"/>
        <pt x="333" y="580" on="0"/>
        <pt x="274" y="557" on="0"/>
      </contour>
    </TTGlyph>
    <TTGlyph name="breve.cap" xMin="112" yMin="731" xMax="444" yMax="900">
      <contour>
        <pt x="262" y="731" on="1"/>
        <pt x="225" y="731" on="0"/>
        <pt x="169" y="755" on="0"/>
        <pt x="131" y="797" on="0"/>
        <pt x="112" y="852" on="0"/>
        <pt x="112" y="884" on="1"/>
        <pt x="202" y="900" on="1"/>
        <pt x="216" y="832" on="0"/>
        <pt x="272" y="832" on="1"/>
        <pt x="302" y="832" on="0"/>
        <pt x="342" y="867" on="0"/>
        <pt x="357" y="900" on="1"/>
        <pt x="444" y="884" on="1"/>
        <pt x="436" y="851" on="0"/>
        <pt x="404" y="795" on="0"/>
        <pt x="357" y="754" on="0"/>
        <pt x="298" y="731" on="0"/>
      </contour>
    </TTGlyph>
    <TTGlyph name="brokenbar" xMin="16" yMin="-229" xMax="263" yMax="709">
      <contour>
        <pt x="127" y="709" on="1"/>
        <pt x="263" y="709" on="1"/>
        <pt x="213" y="291" on="1"/>
        <pt x="77" y="291" on="1"/>
      </contour>
      <contour>
        <pt x="65" y="189" on="1"/>
        <pt x="201" y="189" on="1"/>
        <pt x="152" y="-229" on="1"/>
        <pt x="16" y="-229" on="1"/>
      </contour>
    </TTGlyph>
    <TTGlyph name="bullet" xMin="46" yMin="166" xMax="310" yMax="400">
      <contour>
        <pt x="266" y="400" on="1"/>
        <pt x="288" y="400" on="0"/>
        <pt x="310" y="384" on="0"/>
        <pt x="307" y="357" on="1"/>
        <pt x="285" y="166" on="1"/>
        <pt x="46" y="166" on="1"/>
        <pt x="73" y="400" on="1"/>
      </contour>
    </TTGlyph>
    <TTGlyph name="bullet.cap" xMin="53" yMin="214" xMax="317" yMax="448">
      <contour>
        <pt x="273" y="448" on="1"/>
        <pt x="295" y="448" on="0"/>
        <pt x="317" y="432" on="0"/>
        <pt x="314" y="405" on="1"/>
        <pt x="292" y="214" on="1"/>
        <pt x="53" y="214" on="1"/>
        <pt x="80" y="448" on="1"/>
      </contour>
    </TTGlyph>
    <TTGlyph name="c" xMin="24" yMin="-8" xMax="487" yMax="496">
      <contour>
        <pt x="474" y="83" on="1"/>
        <pt x="453" y="63" on="0"/>
        <pt x="398" y="30" on="0"/>
        <pt x="338" y="6" on="0"/>
        <pt x="277" y="-8" on="0"/>
        <pt x="250" y="-8" on="1"/>
        <pt x="200" y="-8" on="0"/>
        <pt x="117" y="24" on="0"/>
        <pt x="57" y="84" on="0"/>
        <pt x="24" y="168" on="0"/>
        <pt x="24" y="220" on="1"/>
        <pt x="24" y="277" on="0"/>
        <pt x="63" y="378" on="0"/>
        <pt x="132" y="453" on="0"/>
        <pt x="226" y="496" on="0"/>
        <pt x="281" y="496" on="1"/>
        <pt x="319" y="496" on="0"/>
        <pt x="386" y="472" on="0"/>
        <pt x="440" y="428" on="0"/>
        <pt x="478" y="365" on="0"/>
        <pt x="487" y="326" on="1"/>
        <pt x="389" y="281" on="1"/>
        <pt x="350" y="320" on="1"/>
        <pt x="324" y="346" on="0"/>
        <pt x="292" y="368" on="0"/>
        <pt x="270" y="368" on="1"/>
        <pt x="248" y="368" on="0"/>
        <pt x="211" y="347" on="0"/>
        <pt x="185" y="310" on="0"/>
        <pt x="170" y="259" on="0"/>
        <pt x="170" y="230" on="1"/>
        <pt x="170" y="179" on="0"/>
        <pt x="219" y="120" on="0"/>
        <pt x="271" y="120" on="1"/>
        <pt x="291" y="120" on="0"/>
        <pt x="342" y="131" on="0"/>
        <pt x="374" y="142" on="1"/>
        <pt x="433" y="162" on="1"/>
      </contour>
    </TTGlyph>
    <TTGlyph name="cacute" xMin="24" yMin="-8" xMax="487" yMax="757">
      <component glyphName="c" x="0" y="0" flags="0x204"/>
      <component glyphName="acute" x="77" y="0" flags="0x4"/>
    </TTGlyph>
    <TTGlyph name="caron" xMin="59" yMin="555" xMax="412" yMax="752">
      <contour>
        <pt x="195" y="555" on="1"/>
        <pt x="184" y="555" on="0"/>
        <pt x="173" y="560" on="0"/>
        <pt x="166" y="568" on="1"/>
        <pt x="59" y="698" on="1"/>
        <pt x="119" y="752" on="1"/>
        <pt x="230" y="659" on="1"/>
        <pt x="232" y="659" on="1"/>
        <pt x="365" y="752" on="1"/>
        <pt x="412" y="698" on="1"/>
        <pt x="274" y="568" on="1"/>
        <pt x="266" y="560" on="0"/>
        <pt x="254" y="555" on="0"/>
        <pt x="242" y="555" on="1"/>
      </contour>
    </TTGlyph>
    <TTGlyph name="caron.cap" xMin="103" yMin="729" xMax="456" yMax="926">
      <contour>
        <pt x="239" y="729" on="1"/>
        <pt x="228" y="729" on="0"/>
        <pt x="217" y="734" on="0"/>
        <pt x="210" y="742" on="1"/>
        <pt x="103" y="872" on="1"/>
        <pt x="163" y="926" on="1"/>
        <pt x="274" y="833" on="1"/>
        <pt x="276" y="833" on="1"/>
        <pt x="409" y="926" on="1"/>
        <pt x="456" y="872" on="1"/>
        <pt x="318" y="742" on="1"/>
        <pt x="310" y="734" on="0"/>
        <pt x="298" y="729" on="0"/>
        <pt x="286" y="729" on="1"/>
      </contour>
    </TTGlyph>
    <TTGlyph name="ccaron" xMin="24" yMin="-8" xMax="488" yMax="752">
      <component glyphName="c" x="0" y="0" flags="0x204"/>
      <component glyphName="caron" x="76" y="0" flags="0x4"/>
    </TTGlyph>
    <TTGlyph name="ccedilla" xMin="24" yMin="-245" xMax="487" yMax="496">
      <contour>
        <pt x="474" y="83" on="1"/>
        <pt x="436" y="48" on="0"/>
        <pt x="329" y="-1" on="0"/>
        <pt x="278" y="-6" on="1"/>
        <pt x="263" y="-24" on="0"/>
        <pt x="263" y="-36" on="1"/>
        <pt x="263" y="-44" on="0"/>
        <pt x="292" y="-56" on="0"/>
        <pt x="326" y="-74" on="0"/>
        <pt x="355" y="-102" on="0"/>
        <pt x="355" y="-126" on="1"/>
        <pt x="355" y="-155" on="0"/>
        <pt x="321" y="-199" on="0"/>
        <pt x="266" y="-228" on="0"/>
        <pt x="194" y="-244" on="0"/>
        <pt x="155" y="-245" on="1"/>
        <pt x="150" y="-168" on="1"/>
        <pt x="204" y="-159" on="1"/>
        <pt x="239" y="-153" on="0"/>
        <pt x="239" y="-137" on="1"/>
        <pt x="239" y="-129" on="0"/>
        <pt x="214" y="-117" on="0"/>
        <pt x="184" y="-104" on="0"/>
        <pt x="159" y="-84" on="0"/>
        <pt x="159" y="-68" on="1"/>
        <pt x="159" y="-54" on="0"/>
        <pt x="180" y="-20" on="0"/>
        <pt x="199" y="-3" on="1"/>
        <pt x="119" y="11" on="0"/>
        <pt x="24" y="130" on="0"/>
        <pt x="24" y="220" on="1"/>
        <pt x="24" y="277" on="0"/>
        <pt x="63" y="378" on="0"/>
        <pt x="132" y="453" on="0"/>
        <pt x="226" y="496" on="0"/>
        <pt x="281" y="496" on="1"/>
        <pt x="319" y="496" on="0"/>
        <pt x="386" y="472" on="0"/>
        <pt x="440" y="428" on="0"/>
        <pt x="478" y="365" on="0"/>
        <pt x="487" y="326" on="1"/>
        <pt x="389" y="281" on="1"/>
        <pt x="350" y="320" on="1"/>
        <pt x="324" y="346" on="0"/>
        <pt x="292" y="368" on="0"/>
        <pt x="270" y="368" on="1"/>
        <pt x="248" y="368" on="0"/>
        <pt x="211" y="347" on="0"/>
        <pt x="185" y="310" on="0"/>
        <pt x="170" y="259" on="0"/>
        <pt x="170" y="230" on="1"/>
        <pt x="170" y="179" on="0"/>
        <pt x="219" y="120" on="0"/>
        <pt x="271" y="120" on="1"/>
        <pt x="291" y="120" on="0"/>
        <pt x="342" y="131" on="0"/>
        <pt x="374" y="142" on="1"/>
        <pt x="433" y="162" on="1"/>
      </contour>
    </TTGlyph>
    <TTGlyph name="ccircumflex" xMin="24" yMin="-8" xMax="487" yMax="741">
      <component glyphName="c" x="0" y="0" flags="0x204"/>
      <component glyphName="circumflex" x="61" y="0" flags="0x4"/>
    </TTGlyph>
    <TTGlyph name="cdotaccent" xMin="24" yMin="-8" xMax="487" yMax="694">
      <component glyphName="c" x="0" y="0" flags="0x204"/>
      <component glyphName="dotaccent" x="66" y="0" flags="0x4"/>
    </TTGlyph>
    <TTGlyph name="cedilla" xMin="88" yMin="-245" xMax="293" yMax="26">
      <contour>
        <pt x="229" y="8" on="1"/>
        <pt x="201" y="-22" on="0"/>
        <pt x="201" y="-36" on="1"/>
        <pt x="201" y="-44" on="0"/>
        <pt x="230" y="-56" on="0"/>
        <pt x="264" y="-74" on="0"/>
        <pt x="293" y="-102" on="0"/>
        <pt x="293" y="-126" on="1"/>
        <pt x="293" y="-155" on="0"/>
        <pt x="259" y="-199" on="0"/>
        <pt x="204" y="-228" on="0"/>
        <pt x="132" y="-244" on="0"/>
        <pt x="93" y="-245" on="1"/>
        <pt x="88" y="-168" on="1"/>
        <pt x="142" y="-159" on="1"/>
        <pt x="177" y="-153" on="0"/>
        <pt x="177" y="-137" on="1"/>
        <pt x="177" y="-129" on="0"/>
        <pt x="152" y="-117" on="0"/>
        <pt x="122" y="-104" on="0"/>
        <pt x="97" y="-84" on="0"/>
        <pt x="97" y="-68" on="1"/>
        <pt x="97" y="-48" on="0"/>
        <pt x="140" y="0" on="0"/>
        <pt x="173" y="26" on="1"/>
      </contour>
    </TTGlyph>
    <TTGlyph name="cent" xMin="90" yMin="-131" xMax="553" yMax="629">
      <contour>
        <pt x="540" y="83" on="1"/>
        <pt x="504" y="49" on="0"/>
        <pt x="401" y="2" on="0"/>
        <pt x="351" y="-5" on="1"/>
        <pt x="322" y="-131" on="1"/>
        <pt x="233" y="-131" on="1"/>
        <pt x="248" y="0" on="1"/>
        <pt x="176" y="20" on="0"/>
        <pt x="90" y="134" on="0"/>
        <pt x="90" y="220" on="1"/>
        <pt x="90" y="272" on="0"/>
        <pt x="123" y="365" on="0"/>
        <pt x="181" y="437" on="0"/>
        <pt x="261" y="485" on="0"/>
        <pt x="309" y="493" on="1"/>
        <pt x="340" y="629" on="1"/>
        <pt x="429" y="629" on="1"/>
        <pt x="411" y="486" on="1"/>
        <pt x="464" y="469" on="0"/>
        <pt x="539" y="386" on="0"/>
        <pt x="553" y="326" on="1"/>
        <pt x="455" y="281" on="1"/>
        <pt x="416" y="320" on="1"/>
        <pt x="390" y="346" on="0"/>
        <pt x="358" y="368" on="0"/>
        <pt x="336" y="368" on="1"/>
        <pt x="314" y="368" on="0"/>
        <pt x="277" y="347" on="0"/>
        <pt x="251" y="310" on="0"/>
        <pt x="236" y="259" on="0"/>
        <pt x="236" y="230" on="1"/>
        <pt x="236" y="179" on="0"/>
        <pt x="285" y="120" on="0"/>
        <pt x="337" y="120" on="1"/>
        <pt x="357" y="120" on="0"/>
        <pt x="408" y="131" on="0"/>
        <pt x="440" y="142" on="1"/>
        <pt x="499" y="162" on="1"/>
      </contour>
    </TTGlyph>
    <TTGlyph name="cent.lprop" xMin="44" yMin="-131" xMax="507" yMax="629">
      <component glyphName="cent" x="-46" y="0" flags="0x4"/>
    </TTGlyph>
    <TTGlyph name="cent.oprop" xMin="52" yMin="-131" xMax="469" yMax="565">
      <component glyphName="cent.otab" x="-62" y="0" flags="0x4"/>
    </TTGlyph>
    <TTGlyph name="cent.otab" xMin="114" yMin="-131" xMax="531" yMax="565">
      <contour>
        <pt x="417" y="427" on="1"/>
        <pt x="458" y="410" on="0"/>
        <pt x="519" y="339" on="0"/>
        <pt x="531" y="290" on="1"/>
        <pt x="437" y="247" on="1"/>
        <pt x="405" y="280" on="1"/>
        <pt x="383" y="302" on="0"/>
        <pt x="353" y="319" on="0"/>
        <pt x="335" y="319" on="1"/>
        <pt x="299" y="319" on="0"/>
        <pt x="253" y="254" on="0"/>
        <pt x="253" y="205" on="1"/>
        <pt x="253" y="163" on="0"/>
        <pt x="293" y="115" on="0"/>
        <pt x="336" y="115" on="1"/>
        <pt x="370" y="115" on="0"/>
        <pt x="421" y="133" on="1"/>
        <pt x="470" y="149" on="1"/>
        <pt x="515" y="73" on="1"/>
        <pt x="486" y="46" on="0"/>
        <pt x="406" y="6" on="0"/>
        <pt x="365" y="-2" on="1"/>
        <pt x="333" y="-131" on="1"/>
        <pt x="240" y="-131" on="1"/>
        <pt x="257" y="-1" on="1"/>
        <pt x="191" y="16" on="0"/>
        <pt x="114" y="118" on="0"/>
        <pt x="114" y="196" on="1"/>
        <pt x="114" y="242" on="0"/>
        <pt x="143" y="326" on="0"/>
        <pt x="196" y="390" on="0"/>
        <pt x="268" y="433" on="0"/>
        <pt x="310" y="439" on="1"/>
        <pt x="341" y="565" on="1"/>
        <pt x="434" y="565" on="1"/>
      </contour>
    </TTGlyph>
    <TTGlyph name="circumflex" xMin="59" yMin="544" xMax="412" yMax="741">
      <contour>
        <pt x="276" y="741" on="1"/>
        <pt x="287" y="741" on="0"/>
        <pt x="298" y="736" on="0"/>
        <pt x="305" y="728" on="1"/>
        <pt x="412" y="598" on="1"/>
        <pt x="352" y="544" on="1"/>
        <pt x="241" y="637" on="1"/>
        <pt x="239" y="637" on="1"/>
        <pt x="106" y="544" on="1"/>
        <pt x="59" y="598" on="1"/>
        <pt x="197" y="728" on="1"/>
        <pt x="205" y="736" on="0"/>
        <pt x="217" y="741" on="0"/>
        <pt x="229" y="741" on="1"/>
      </contour>
    </TTGlyph>
    <TTGlyph name="circumflex.cap" xMin="87" yMin="718" xMax="440" yMax="915">
      <contour>
        <pt x="304" y="915" on="1"/>
        <pt x="315" y="915" on="0"/>
        <pt x="326" y="910" on="0"/>
        <pt x="333" y="902" on="1"/>
        <pt x="440" y="772" on="1"/>
        <pt x="380" y="718" on="1"/>
        <pt x="269" y="811" on="1"/>
        <pt x="267" y="811" on="1"/>
        <pt x="134" y="718" on="1"/>
        <pt x="87" y="772" on="1"/>
        <pt x="225" y="902" on="1"/>
        <pt x="233" y="910" on="0"/>
        <pt x="245" y="915" on="0"/>
        <pt x="257" y="915" on="1"/>
      </contour>
    </TTGlyph>
    <TTGlyph name="colon" xMin="15" yMin="0" xMax="223" yMax="455">
      <contour>
        <pt x="152" y="151" on="1"/>
        <pt x="186" y="151" on="0"/>
        <pt x="182" y="120" on="1"/>
        <pt x="168" y="0" on="1"/>
        <pt x="15" y="0" on="1"/>
        <pt x="33" y="151" on="1"/>
      </contour>
      <contour>
        <pt x="189" y="455" on="1"/>
        <pt x="223" y="455" on="0"/>
        <pt x="219" y="424" on="1"/>
        <pt x="205" y="304" on="1"/>
        <pt x="52" y="304" on="1"/>
        <pt x="70" y="455" on="1"/>
      </contour>
    </TTGlyph>
    <TTGlyph name="comma" xMin="-23" yMin="-169" xMax="186" yMax="151">
      <contour>
        <pt x="152" y="151" on="1"/>
        <pt x="186" y="151" on="0"/>
        <pt x="182" y="120" on="1"/>
        <pt x="174" y="51" on="1"/>
        <pt x="171" y="22" on="0"/>
        <pt x="158" y="-25" on="0"/>
        <pt x="127" y="-74" on="0"/>
        <pt x="72" y="-131" on="0"/>
        <pt x="26" y="-169" on="1"/>
        <pt x="-23" y="-129" on="1"/>
        <pt x="53" y="-16" on="1"/>
        <pt x="58" y="-9" on="0"/>
        <pt x="58" y="-5" on="1"/>
        <pt x="58" y="-1" on="0"/>
        <pt x="50" y="5" on="1"/>
        <pt x="38" y="15" on="1"/>
        <pt x="28" y="23" on="0"/>
        <pt x="21" y="35" on="0"/>
        <pt x="21" y="43" on="1"/>
        <pt x="21" y="48" on="0"/>
        <pt x="22" y="63" on="0"/>
        <pt x="23" y="71" on="1"/>
        <pt x="33" y="151" on="1"/>
      </contour>
    </TTGlyph>
    <TTGlyph name="commaaccent" xMin="78" yMin="-306" xMax="236" yMax="-58">
      <contour>
        <pt x="78" y="-293" on="1"/>
        <pt x="123" y="-58" on="1"/>
        <pt x="200" y="-58" on="1"/>
        <pt x="220" y="-58" on="0"/>
        <pt x="236" y="-78" on="0"/>
        <pt x="236" y="-102" on="1"/>
        <pt x="236" y="-123" on="0"/>
        <pt x="218" y="-173" on="0"/>
        <pt x="195" y="-212" on="1"/>
        <pt x="139" y="-306" on="1"/>
      </contour>
    </TTGlyph>
    <TTGlyph name="copyright" xMin="51" yMin="-10" xMax="715" yMax="673">
      <contour>
        <pt x="715" y="364" on="1"/>
        <pt x="715" y="292" on="0"/>
        <pt x="661" y="158" on="0"/>
        <pt x="564" y="53" on="0"/>
        <pt x="431" y="-10" on="0"/>
        <pt x="352" y="-10" on="1"/>
        <pt x="286" y="-10" on="0"/>
        <pt x="175" y="39" on="0"/>
        <pt x="95" y="123" on="0"/>
        <pt x="51" y="235" on="0"/>
        <pt x="51" y="298" on="1"/>
        <pt x="51" y="370" on="0"/>
        <pt x="105" y="505" on="0"/>
        <pt x="202" y="610" on="0"/>
        <pt x="335" y="673" on="0"/>
        <pt x="414" y="673" on="1"/>
        <pt x="480" y="673" on="0"/>
        <pt x="591" y="623" on="0"/>
        <pt x="671" y="539" on="0"/>
        <pt x="715" y="427" on="0"/>
      </contour>
      <contour>
        <pt x="610" y="358" on="1"/>
        <pt x="610" y="406" on="0"/>
        <pt x="582" y="486" on="0"/>
        <pt x="530" y="543" on="0"/>
        <pt x="456" y="574" on="0"/>
        <pt x="410" y="574" on="1"/>
        <pt x="354" y="574" on="0"/>
        <pt x="261" y="534" on="0"/>
        <pt x="193" y="462" on="0"/>
        <pt x="156" y="363" on="0"/>
        <pt x="156" y="304" on="1"/>
        <pt x="156" y="256" on="0"/>
        <pt x="184" y="176" on="0"/>
        <pt x="236" y="120" on="0"/>
        <pt x="310" y="89" on="0"/>
        <pt x="356" y="89" on="1"/>
        <pt x="412" y="89" on="0"/>
        <pt x="505" y="129" on="0"/>
        <pt x="573" y="200" on="0"/>
        <pt x="610" y="299" on="0"/>
      </contour>
      <contour>
        <pt x="499" y="245" on="1"/>
        <pt x="470" y="219" on="0"/>
        <pt x="402" y="188" on="0"/>
        <pt x="369" y="188" on="1"/>
        <pt x="312" y="188" on="0"/>
        <pt x="246" y="263" on="0"/>
        <pt x="246" y="320" on="1"/>
        <pt x="246" y="351" on="0"/>
        <pt x="267" y="409" on="0"/>
        <pt x="305" y="453" on="0"/>
        <pt x="359" y="479" on="0"/>
        <pt x="391" y="479" on="1"/>
        <pt x="431" y="479" on="0"/>
        <pt x="495" y="432" on="0"/>
        <pt x="511" y="385" on="1"/>
        <pt x="456" y="354" on="1"/>
        <pt x="430" y="381" on="1"/>
        <pt x="421" y="390" on="0"/>
        <pt x="403" y="402" on="0"/>
        <pt x="390" y="402" on="1"/>
        <pt x="365" y="402" on="0"/>
        <pt x="329" y="357" on="0"/>
        <pt x="329" y="325" on="1"/>
        <pt x="329" y="267" on="0"/>
        <pt x="381" y="267" on="1"/>
        <pt x="401" y="267" on="0"/>
        <pt x="434" y="278" on="1"/>
        <pt x="475" y="292" on="1"/>
      </contour>
    </TTGlyph>
    <TTGlyph name="currency" xMin="48" yMin="69" xMax="610" yMax="593">
      <contour>
        <pt x="321" y="235" on="1"/>
        <pt x="362" y="235" on="0"/>
        <pt x="410" y="297" on="0"/>
        <pt x="410" y="345" on="1"/>
        <pt x="410" y="378" on="0"/>
        <pt x="375" y="427" on="0"/>
        <pt x="337" y="427" on="1"/>
        <pt x="296" y="427" on="0"/>
        <pt x="248" y="365" on="0"/>
        <pt x="248" y="317" on="1"/>
        <pt x="248" y="284" on="0"/>
        <pt x="283" y="235" on="0"/>
      </contour>
      <contour>
        <pt x="528" y="593" on="1"/>
        <pt x="610" y="506" on="1"/>
        <pt x="519" y="422" on="1"/>
        <pt x="525" y="405" on="0"/>
        <pt x="532" y="369" on="0"/>
        <pt x="532" y="349" on="1"/>
        <pt x="532" y="285" on="0"/>
        <pt x="503" y="235" on="1"/>
        <pt x="570" y="154" on="1"/>
        <pt x="467" y="69" on="1"/>
        <pt x="404" y="144" on="1"/>
        <pt x="384" y="135" on="0"/>
        <pt x="340" y="124" on="0"/>
        <pt x="317" y="124" on="1"/>
        <pt x="262" y="124" on="0"/>
        <pt x="218" y="151" on="1"/>
        <pt x="130" y="69" on="1"/>
        <pt x="48" y="156" on="1"/>
        <pt x="139" y="240" on="1"/>
        <pt x="133" y="257" on="0"/>
        <pt x="126" y="293" on="0"/>
        <pt x="126" y="313" on="1"/>
        <pt x="126" y="377" on="0"/>
        <pt x="155" y="427" on="1"/>
        <pt x="88" y="508" on="1"/>
        <pt x="191" y="593" on="1"/>
        <pt x="254" y="518" on="1"/>
        <pt x="274" y="527" on="0"/>
        <pt x="318" y="538" on="0"/>
        <pt x="341" y="538" on="1"/>
        <pt x="396" y="538" on="0"/>
        <pt x="440" y="511" on="1"/>
      </contour>
    </TTGlyph>
    <TTGlyph name="d" xMin="24" yMin="-8" xMax="544" yMax="709">
      <contour>
        <pt x="400" y="709" on="1"/>
        <pt x="544" y="709" on="1"/>
        <pt x="474" y="113" on="1"/>
        <pt x="544" y="95" on="1"/>
        <pt x="535" y="22" on="1"/>
        <pt x="512" y="11" on="0"/>
        <pt x="459" y="-2" on="0"/>
        <pt x="437" y="-2" on="1"/>
        <pt x="407" y="-2" on="0"/>
        <pt x="358" y="24" on="0"/>
        <pt x="345" y="47" on="1"/>
        <pt x="320" y="32" on="1"/>
        <pt x="291" y="15" on="0"/>
        <pt x="230" y="-8" on="0"/>
        <pt x="201" y="-8" on="1"/>
        <pt x="163" y="-8" on="0"/>
        <pt x="98" y="25" on="0"/>
        <pt x="51" y="84" on="0"/>
        <pt x="24" y="165" on="0"/>
        <pt x="24" y="213" on="1"/>
        <pt x="24" y="271" on="0"/>
        <pt x="63" y="375" on="0"/>
        <pt x="129" y="451" on="0"/>
        <pt x="214" y="496" on="0"/>
        <pt x="261" y="496" on="1"/>
        <pt x="290" y="496" on="0"/>
        <pt x="343" y="477" on="0"/>
        <pt x="370" y="457" on="1"/>
      </contour>
      <contour>
        <pt x="357" y="335" on="1"/>
        <pt x="358" y="342" on="0"/>
        <pt x="355" y="350" on="0"/>
        <pt x="349" y="353" on="1"/>
        <pt x="336" y="360" on="0"/>
        <pt x="300" y="367" on="0"/>
        <pt x="281" y="367" on="1"/>
        <pt x="229" y="367" on="0"/>
        <pt x="169" y="286" on="0"/>
        <pt x="169" y="217" on="1"/>
        <pt x="169" y="172" on="0"/>
        <pt x="208" y="121" on="0"/>
        <pt x="246" y="121" on="1"/>
        <pt x="264" y="121" on="0"/>
        <pt x="310" y="134" on="0"/>
        <pt x="324" y="142" on="1"/>
        <pt x="331" y="147" on="0"/>
        <pt x="335" y="153" on="0"/>
        <pt x="336" y="160" on="1"/>
      </contour>
    </TTGlyph>
    <TTGlyph name="dagger" xMin="61" yMin="-229" xMax="561" yMax="663">
      <contour>
        <pt x="561" y="439" on="1"/>
        <pt x="546" y="308" on="1"/>
        <pt x="498" y="308" on="1"/>
        <pt x="481" y="308" on="0"/>
        <pt x="446" y="310" on="0"/>
        <pt x="426" y="313" on="1"/>
        <pt x="362" y="322" on="1"/>
        <pt x="362" y="314" on="0"/>
        <pt x="361" y="277" on="0"/>
        <pt x="359" y="231" on="0"/>
        <pt x="355" y="182" on="0"/>
        <pt x="353" y="161" on="1"/>
        <pt x="338" y="25" on="1"/>
        <pt x="335" y="-1" on="0"/>
        <pt x="322" y="-69" on="0"/>
        <pt x="312" y="-113" on="1"/>
        <pt x="286" y="-229" on="1"/>
        <pt x="194" y="-229" on="1"/>
        <pt x="194" y="-111" on="1"/>
        <pt x="194" y="-76" on="0"/>
        <pt x="197" y="-2" on="0"/>
        <pt x="201" y="31" on="1"/>
        <pt x="216" y="157" on="1"/>
        <pt x="221" y="204" on="0"/>
        <pt x="236" y="291" on="0"/>
        <pt x="244" y="322" on="1"/>
        <pt x="179" y="313" on="1"/>
        <pt x="161" y="311" on="0"/>
        <pt x="118" y="308" on="0"/>
        <pt x="101" y="308" on="1"/>
        <pt x="61" y="308" on="1"/>
        <pt x="76" y="439" on="1"/>
        <pt x="118" y="439" on="1"/>
        <pt x="135" y="439" on="0"/>
        <pt x="175" y="437" on="0"/>
        <pt x="194" y="434" on="1"/>
        <pt x="259" y="425" on="1"/>
        <pt x="259" y="440" on="0"/>
        <pt x="260" y="480" on="0"/>
        <pt x="261" y="524" on="0"/>
        <pt x="264" y="567" on="0"/>
        <pt x="266" y="585" on="1"/>
        <pt x="275" y="663" on="1"/>
        <pt x="413" y="663" on="1"/>
        <pt x="402" y="572" on="1"/>
        <pt x="397" y="534" on="0"/>
        <pt x="384" y="456" on="0"/>
        <pt x="376" y="425" on="1"/>
        <pt x="429" y="432" on="1"/>
        <pt x="452" y="435" on="0"/>
        <pt x="502" y="439" on="0"/>
        <pt x="520" y="439" on="1"/>
      </contour>
    </TTGlyph>
    <TTGlyph name="daggerdbl" xMin="24" yMin="-229" xMax="560" yMax="663">
      <contour>
        <pt x="414" y="663" on="1"/>
        <pt x="401" y="549" on="1"/>
        <pt x="397" y="514" on="0"/>
        <pt x="389" y="470" on="0"/>
        <pt x="382" y="446" on="1"/>
        <pt x="376" y="424" on="1"/>
        <pt x="442" y="434" on="1"/>
        <pt x="464" y="437" on="0"/>
        <pt x="497" y="439" on="0"/>
        <pt x="514" y="439" on="1"/>
        <pt x="560" y="439" on="1"/>
        <pt x="545" y="307" on="1"/>
        <pt x="495" y="307" on="1"/>
        <pt x="480" y="307" on="0"/>
        <pt x="440" y="310" on="0"/>
        <pt x="427" y="312" on="1"/>
        <pt x="362" y="321" on="1"/>
        <pt x="363" y="309" on="0"/>
        <pt x="363" y="284" on="0"/>
        <pt x="363" y="272" on="1"/>
        <pt x="363" y="230" on="0"/>
        <pt x="349" y="143" on="0"/>
        <pt x="339" y="108" on="1"/>
        <pt x="405" y="118" on="1"/>
        <pt x="426" y="121" on="0"/>
        <pt x="460" y="123" on="0"/>
        <pt x="477" y="123" on="1"/>
        <pt x="523" y="123" on="1"/>
        <pt x="508" y="-8" on="1"/>
        <pt x="460" y="-8" on="1"/>
        <pt x="445" y="-8" on="0"/>
        <pt x="413" y="-6" on="0"/>
        <pt x="390" y="-3" on="1"/>
        <pt x="325" y="5" on="1"/>
        <pt x="325" y="-28" on="1"/>
        <pt x="325" y="-57" on="0"/>
        <pt x="321" y="-125" on="0"/>
        <pt x="318" y="-150" on="1"/>
        <pt x="309" y="-229" on="1"/>
        <pt x="171" y="-229" on="1"/>
        <pt x="182" y="-133" on="1"/>
        <pt x="185" y="-104" on="0"/>
        <pt x="192" y="-58" on="0"/>
        <pt x="198" y="-34" on="1"/>
        <pt x="208" y="5" on="1"/>
        <pt x="143" y="-3" on="1"/>
        <pt x="123" y="-5" on="0"/>
        <pt x="88" y="-8" on="0"/>
        <pt x="71" y="-8" on="1"/>
        <pt x="24" y="-8" on="1"/>
        <pt x="39" y="123" on="1"/>
        <pt x="94" y="123" on="1"/>
        <pt x="109" y="123" on="0"/>
        <pt x="138" y="121" on="0"/>
        <pt x="157" y="118" on="1"/>
        <pt x="222" y="108" on="1"/>
        <pt x="220" y="122" on="0"/>
        <pt x="220" y="149" on="0"/>
        <pt x="220" y="161" on="1"/>
        <pt x="220" y="200" on="0"/>
        <pt x="229" y="260" on="0"/>
        <pt x="236" y="286" on="1"/>
        <pt x="245" y="321" on="1"/>
        <pt x="180" y="312" on="1"/>
        <pt x="158" y="309" on="0"/>
        <pt x="125" y="307" on="0"/>
        <pt x="108" y="307" on="1"/>
        <pt x="61" y="307" on="1"/>
        <pt x="77" y="439" on="1"/>
        <pt x="131" y="439" on="1"/>
        <pt x="150" y="439" on="0"/>
        <pt x="186" y="436" on="0"/>
        <pt x="209" y="432" on="1"/>
        <pt x="260" y="424" on="1"/>
        <pt x="260" y="432" on="0"/>
        <pt x="259" y="454" on="0"/>
        <pt x="259" y="465" on="1"/>
        <pt x="259" y="484" on="0"/>
        <pt x="261" y="528" on="0"/>
        <pt x="265" y="560" on="1"/>
        <pt x="276" y="663" on="1"/>
      </contour>
    </TTGlyph>
    <TTGlyph name="dcaron" xMin="24" yMin="-8" xMax="734" yMax="709">
      <component glyphName="d" x="0" y="0" flags="0x4"/>
      <component glyphName="commaaccent" x="498" y="767" flags="0x4"/>
    </TTGlyph>
    <TTGlyph name="dcroat" xMin="24" yMin="-8" xMax="603" yMax="709">
      <contour>
        <pt x="261" y="496" on="1"/>
        <pt x="290" y="496" on="0"/>
        <pt x="343" y="476" on="0"/>
        <pt x="370" y="457" on="1"/>
        <pt x="381" y="552" on="1"/>
        <pt x="247" y="552" on="1"/>
        <pt x="258" y="639" on="1"/>
        <pt x="392" y="639" on="1"/>
        <pt x="400" y="709" on="1"/>
        <pt x="544" y="709" on="1"/>
        <pt x="535" y="639" on="1"/>
        <pt x="603" y="626" on="1"/>
        <pt x="594" y="552" on="1"/>
        <pt x="525" y="552" on="1"/>
        <pt x="474" y="113" on="1"/>
        <pt x="544" y="95" on="1"/>
        <pt x="535" y="22" on="1"/>
        <pt x="512" y="11" on="0"/>
        <pt x="459" y="-2" on="0"/>
        <pt x="437" y="-2" on="1"/>
        <pt x="407" y="-2" on="0"/>
        <pt x="358" y="24" on="0"/>
        <pt x="345" y="47" on="1"/>
        <pt x="320" y="32" on="1"/>
        <pt x="291" y="15" on="0"/>
        <pt x="230" y="-8" on="0"/>
        <pt x="201" y="-8" on="1"/>
        <pt x="163" y="-8" on="0"/>
        <pt x="98" y="25" on="0"/>
        <pt x="51" y="84" on="0"/>
        <pt x="24" y="165" on="0"/>
        <pt x="24" y="213" on="1"/>
        <pt x="24" y="271" on="0"/>
        <pt x="63" y="375" on="0"/>
        <pt x="129" y="451" on="0"/>
        <pt x="214" y="496" on="0"/>
      </contour>
      <contour>
        <pt x="357" y="335" on="1"/>
        <pt x="358" y="342" on="0"/>
        <pt x="355" y="350" on="0"/>
        <pt x="349" y="353" on="1"/>
        <pt x="336" y="360" on="0"/>
        <pt x="300" y="367" on="0"/>
        <pt x="281" y="367" on="1"/>
        <pt x="229" y="367" on="0"/>
        <pt x="169" y="286" on="0"/>
        <pt x="169" y="217" on="1"/>
        <pt x="169" y="172" on="0"/>
        <pt x="208" y="121" on="0"/>
        <pt x="246" y="121" on="1"/>
        <pt x="264" y="121" on="0"/>
        <pt x="310" y="134" on="0"/>
        <pt x="324" y="142" on="1"/>
        <pt x="331" y="147" on="0"/>
        <pt x="335" y="153" on="0"/>
        <pt x="336" y="160" on="1"/>
      </contour>
    </TTGlyph>
    <TTGlyph name="degree" xMin="66" yMin="319" xMax="416" yMax="673">
      <contour>
        <pt x="416" y="504" on="1"/>
        <pt x="416" y="466" on="0"/>
        <pt x="388" y="398" on="0"/>
        <pt x="338" y="348" on="0"/>
        <pt x="269" y="319" on="0"/>
        <pt x="229" y="319" on="1"/>
        <pt x="192" y="319" on="0"/>
        <pt x="132" y="346" on="0"/>
        <pt x="89" y="392" on="0"/>
        <pt x="66" y="453" on="0"/>
        <pt x="66" y="488" on="1"/>
        <pt x="66" y="526" on="0"/>
        <pt x="94" y="594" on="0"/>
        <pt x="144" y="644" on="0"/>
        <pt x="212" y="673" on="0"/>
        <pt x="253" y="673" on="1"/>
        <pt x="290" y="673" on="0"/>
        <pt x="350" y="646" on="0"/>
        <pt x="393" y="600" on="0"/>
        <pt x="416" y="538" on="0"/>
      </contour>
      <contour>
        <pt x="176" y="490" on="1"/>
        <pt x="176" y="462" on="0"/>
        <pt x="208" y="425" on="0"/>
        <pt x="235" y="425" on="1"/>
        <pt x="265" y="425" on="0"/>
        <pt x="306" y="465" on="0"/>
        <pt x="306" y="502" on="1"/>
        <pt x="306" y="530" on="0"/>
        <pt x="274" y="567" on="0"/>
        <pt x="247" y="567" on="1"/>
        <pt x="217" y="567" on="0"/>
        <pt x="176" y="527" on="0"/>
      </contour>
    </TTGlyph>
    <TTGlyph name="dieresis" xMin="73" yMin="570" xMax="424" yMax="699">
      <contour>
        <pt x="190" y="699" on="1"/>
        <pt x="219" y="699" on="0"/>
        <pt x="215" y="672" on="1"/>
        <pt x="203" y="570" on="1"/>
        <pt x="73" y="570" on="1"/>
        <pt x="88" y="699" on="1"/>
      </contour>
      <contour>
        <pt x="395" y="699" on="1"/>
        <pt x="424" y="699" on="0"/>
        <pt x="420" y="672" on="1"/>
        <pt x="408" y="570" on="1"/>
        <pt x="278" y="570" on="1"/>
        <pt x="293" y="699" on="1"/>
      </contour>
    </TTGlyph>
    <TTGlyph name="dieresis.cap" xMin="91" yMin="744" xMax="442" yMax="873">
      <contour>
        <pt x="208" y="873" on="1"/>
        <pt x="237" y="873" on="0"/>
        <pt x="233" y="846" on="1"/>
        <pt x="221" y="744" on="1"/>
        <pt x="91" y="744" on="1"/>
        <pt x="106" y="873" on="1"/>
      </contour>
      <contour>
        <pt x="413" y="873" on="1"/>
        <pt x="442" y="873" on="0"/>
        <pt x="438" y="846" on="1"/>
        <pt x="426" y="744" on="1"/>
        <pt x="296" y="744" on="1"/>
        <pt x="311" y="873" on="1"/>
      </contour>
    </TTGlyph>
    <TTGlyph name="divide" xMin="54" yMin="13" xMax="492" yMax="500">
      <contour>
        <pt x="54" y="195" on="1"/>
        <pt x="69" y="318" on="1"/>
        <pt x="492" y="318" on="1"/>
        <pt x="477" y="195" on="1"/>
      </contour>
      <contour>
        <pt x="344" y="500" on="1"/>
        <pt x="361" y="500" on="0"/>
        <pt x="371" y="489" on="0"/>
        <pt x="369" y="474" on="1"/>
        <pt x="356" y="365" on="1"/>
        <pt x="217" y="365" on="1"/>
        <pt x="233" y="500" on="1"/>
      </contour>
      <contour>
        <pt x="301" y="148" on="1"/>
        <pt x="318" y="148" on="0"/>
        <pt x="328" y="137" on="0"/>
        <pt x="326" y="122" on="1"/>
        <pt x="313" y="13" on="1"/>
        <pt x="174" y="13" on="1"/>
        <pt x="190" y="148" on="1"/>
      </contour>
    </TTGlyph>
    <TTGlyph name="dollar" xMin="47" yMin="-131" xMax="588" yMax="793">
      <contour>
        <pt x="144" y="141" on="1"/>
        <pt x="205" y="131" on="0"/>
        <pt x="290" y="123" on="0"/>
        <pt x="316" y="123" on="1"/>
        <pt x="370" y="123" on="0"/>
        <pt x="427" y="162" on="0"/>
        <pt x="427" y="202" on="1"/>
        <pt x="427" y="225" on="0"/>
        <pt x="392" y="254" on="0"/>
        <pt x="347" y="271" on="1"/>
        <pt x="288" y="294" on="1"/>
        <pt x="246" y="310" on="0"/>
        <pt x="178" y="346" on="0"/>
        <pt x="129" y="391" on="0"/>
        <pt x="103" y="447" on="0"/>
        <pt x="103" y="483" on="1"/>
        <pt x="103" y="527" on="0"/>
        <pt x="136" y="593" on="0"/>
        <pt x="194" y="640" on="0"/>
        <pt x="274" y="667" on="0"/>
        <pt x="322" y="671" on="1"/>
        <pt x="352" y="793" on="1"/>
        <pt x="449" y="793" on="1"/>
        <pt x="433" y="669" on="1"/>
        <pt x="475" y="664" on="0"/>
        <pt x="556" y="644" on="0"/>
        <pt x="588" y="630" on="1"/>
        <pt x="567" y="527" on="1"/>
        <pt x="490" y="533" on="1"/>
        <pt x="452" y="536" on="0"/>
        <pt x="390" y="539" on="0"/>
        <pt x="361" y="539" on="1"/>
        <pt x="301" y="539" on="0"/>
        <pt x="247" y="519" on="0"/>
        <pt x="247" y="493" on="1"/>
        <pt x="247" y="476" on="0"/>
        <pt x="282" y="452" on="0"/>
        <pt x="330" y="433" on="1"/>
        <pt x="386" y="411" on="1"/>
        <pt x="435" y="391" on="0"/>
        <pt x="506" y="354" on="0"/>
        <pt x="551" y="310" on="0"/>
        <pt x="573" y="255" on="0"/>
        <pt x="573" y="219" on="1"/>
        <pt x="573" y="119" on="0"/>
        <pt x="453" y="3" on="0"/>
        <pt x="351" y="-8" on="1"/>
        <pt x="321" y="-131" on="1"/>
        <pt x="224" y="-131" on="1"/>
        <pt x="239" y="-5" on="1"/>
        <pt x="188" y="1" on="0"/>
        <pt x="90" y="29" on="0"/>
        <pt x="47" y="48" on="1"/>
        <pt x="80" y="151" on="1"/>
      </contour>
    </TTGlyph>
    <TTGlyph name="dollar.lprop" xMin="11" yMin="-131" xMax="552" yMax="793">
      <component glyphName="dollar" x="-36" y="0" flags="0x4"/>
    </TTGlyph>
    <TTGlyph name="dollar.oprop" xMin="37" yMin="-131" xMax="463" yMax="619">
      <component glyphName="dollar.otab" x="-66" y="0" flags="0x4"/>
    </TTGlyph>
    <TTGlyph name="dollar.otab" xMin="103" yMin="-131" xMax="529" yMax="619">
      <contour>
        <pt x="131" y="128" on="1"/>
        <pt x="204" y="119" on="1"/>
        <pt x="241" y="114" on="0"/>
        <pt x="302" y="109" on="0"/>
        <pt x="324" y="109" on="1"/>
        <pt x="354" y="109" on="0"/>
        <pt x="389" y="125" on="0"/>
        <pt x="389" y="144" on="1"/>
        <pt x="389" y="158" on="0"/>
        <pt x="363" y="173" on="0"/>
        <pt x="332" y="182" on="1"/>
        <pt x="291" y="194" on="1"/>
        <pt x="218" y="215" on="0"/>
        <pt x="138" y="282" on="0"/>
        <pt x="138" y="344" on="1"/>
        <pt x="138" y="405" on="0"/>
        <pt x="227" y="481" on="0"/>
        <pt x="298" y="492" on="1"/>
        <pt x="330" y="619" on="1"/>
        <pt x="426" y="619" on="1"/>
        <pt x="409" y="492" on="1"/>
        <pt x="441" y="487" on="0"/>
        <pt x="503" y="470" on="0"/>
        <pt x="529" y="458" on="1"/>
        <pt x="504" y="368" on="1"/>
        <pt x="434" y="375" on="1"/>
        <pt x="411" y="377" on="0"/>
        <pt x="363" y="380" on="0"/>
        <pt x="346" y="380" on="1"/>
        <pt x="304" y="380" on="0"/>
        <pt x="269" y="366" on="0"/>
        <pt x="269" y="352" on="1"/>
        <pt x="269" y="341" on="0"/>
        <pt x="290" y="328" on="0"/>
        <pt x="317" y="320" on="1"/>
        <pt x="355" y="309" on="1"/>
        <pt x="435" y="286" on="0"/>
        <pt x="522" y="222" on="0"/>
        <pt x="522" y="163" on="1"/>
        <pt x="522" y="90" on="0"/>
        <pt x="433" y="5" on="0"/>
        <pt x="358" y="-5" on="1"/>
        <pt x="328" y="-131" on="1"/>
        <pt x="232" y="-131" on="1"/>
        <pt x="248" y="-3" on="1"/>
        <pt x="210" y="2" on="0"/>
        <pt x="135" y="24" on="0"/>
        <pt x="103" y="40" on="1"/>
      </contour>
    </TTGlyph>
    <TTGlyph name="dotaccent" xMin="162" yMin="559" xMax="314" yMax="694">
      <contour>
        <pt x="284" y="694" on="1"/>
        <pt x="314" y="694" on="0"/>
        <pt x="311" y="666" on="1"/>
        <pt x="298" y="559" on="1"/>
        <pt x="162" y="559" on="1"/>
        <pt x="178" y="694" on="1"/>
      </contour>
    </TTGlyph>
    <TTGlyph name="dotaccent.cap" xMin="189" yMin="733" xMax="341" yMax="868">
      <contour>
        <pt x="311" y="868" on="1"/>
        <pt x="341" y="868" on="0"/>
        <pt x="338" y="840" on="1"/>
        <pt x="325" y="733" on="1"/>
        <pt x="189" y="733" on="1"/>
        <pt x="205" y="868" on="1"/>
      </contour>
    </TTGlyph>
    <TTGlyph name="dotlessi" xMin="27" yMin="0" xMax="229" yMax="488">
      <contour>
        <pt x="85" y="488" on="1"/>
        <pt x="229" y="488" on="1"/>
        <pt x="171" y="0" on="1"/>
        <pt x="27" y="0" on="1"/>
      </contour>
    </TTGlyph>
    <TTGlyph name="e" xMin="24" yMin="-8" xMax="498" yMax="496">
      <contour>
        <pt x="169" y="199" on="1"/>
        <pt x="174" y="159" on="0"/>
        <pt x="229" y="117" on="0"/>
        <pt x="276" y="117" on="1"/>
        <pt x="297" y="117" on="0"/>
        <pt x="348" y="126" on="0"/>
        <pt x="380" y="134" on="1"/>
        <pt x="438" y="148" on="1"/>
        <pt x="474" y="68" on="1"/>
        <pt x="455" y="52" on="0"/>
        <pt x="405" y="25" on="0"/>
        <pt x="348" y="4" on="0"/>
        <pt x="287" y="-8" on="0"/>
        <pt x="258" y="-8" on="1"/>
        <pt x="205" y="-8" on="0"/>
        <pt x="119" y="25" on="0"/>
        <pt x="58" y="85" on="0"/>
        <pt x="24" y="170" on="0"/>
        <pt x="24" y="222" on="1"/>
        <pt x="24" y="284" on="0"/>
        <pt x="66" y="385" on="0"/>
        <pt x="137" y="457" on="0"/>
        <pt x="229" y="496" on="0"/>
        <pt x="280" y="496" on="1"/>
        <pt x="326" y="496" on="0"/>
        <pt x="405" y="464" on="0"/>
        <pt x="464" y="406" on="0"/>
        <pt x="498" y="324" on="0"/>
        <pt x="498" y="274" on="1"/>
        <pt x="498" y="234" on="0"/>
        <pt x="482" y="199" on="0"/>
        <pt x="460" y="199" on="1"/>
      </contour>
      <contour>
        <pt x="361" y="296" on="1"/>
        <pt x="359" y="330" on="0"/>
        <pt x="316" y="373" on="0"/>
        <pt x="278" y="373" on="1"/>
        <pt x="241" y="373" on="0"/>
        <pt x="189" y="333" on="0"/>
        <pt x="178" y="296" on="1"/>
      </contour>
    </TTGlyph>
    <TTGlyph name="eacute" xMin="24" yMin="-8" xMax="498" yMax="757">
      <component glyphName="e" x="0" y="0" flags="0x204"/>
      <component glyphName="acute" x="69" y="0" flags="0x4"/>
    </TTGlyph>
    <TTGlyph name="ebreve" xMin="24" yMin="-8" xMax="498" yMax="726">
      <component glyphName="e" x="0" y="0" flags="0x204"/>
      <component glyphName="breve" x="53" y="0" flags="0x4"/>
    </TTGlyph>
    <TTGlyph name="ecaron" xMin="24" yMin="-8" xMax="498" yMax="752">
      <component glyphName="e" x="0" y="0" flags="0x204"/>
      <component glyphName="caron" x="73" y="0" flags="0x4"/>
    </TTGlyph>
    <TTGlyph name="ecircumflex" xMin="24" yMin="-8" xMax="498" yMax="741">
      <component glyphName="e" x="0" y="0" flags="0x204"/>
      <component glyphName="circumflex" x="59" y="0" flags="0x4"/>
    </TTGlyph>
    <TTGlyph name="edieresis" xMin="24" yMin="-8" xMax="498" yMax="699">
      <component glyphName="e" x="0" y="0" flags="0x204"/>
      <component glyphName="dieresis" x="56" y="0" flags="0x4"/>
    </TTGlyph>
    <TTGlyph name="edotaccent" xMin="24" yMin="-8" xMax="498" yMax="694">
      <component glyphName="e" x="0" y="0" flags="0x204"/>
      <component glyphName="dotaccent" x="62" y="0" flags="0x4"/>
    </TTGlyph>
    <TTGlyph name="egrave" xMin="24" yMin="-8" xMax="498" yMax="758">
      <component glyphName="e" x="0" y="0" flags="0x204"/>
      <component glyphName="grave" x="66" y="0" flags="0x4"/>
    </TTGlyph>
    <TTGlyph name="eight" xMin="55" yMin="-10" xMax="600" yMax="673">
      <contour>
        <pt x="170" y="352" on="1"/>
        <pt x="145" y="374" on="0"/>
        <pt x="110" y="435" on="0"/>
        <pt x="110" y="475" on="1"/>
        <pt x="110" y="517" on="0"/>
        <pt x="149" y="589" on="0"/>
        <pt x="218" y="643" on="0"/>
        <pt x="311" y="673" on="0"/>
        <pt x="364" y="673" on="1"/>
        <pt x="416" y="673" on="0"/>
        <pt x="501" y="645" on="0"/>
        <pt x="562" y="596" on="0"/>
        <pt x="595" y="529" on="0"/>
        <pt x="595" y="491" on="1"/>
        <pt x="595" y="449" on="0"/>
        <pt x="545" y="372" on="0"/>
        <pt x="508" y="346" on="1"/>
        <pt x="547" y="324" on="0"/>
        <pt x="600" y="262" on="0"/>
        <pt x="600" y="212" on="1"/>
        <pt x="600" y="163" on="0"/>
        <pt x="554" y="81" on="0"/>
        <pt x="476" y="23" on="0"/>
        <pt x="375" y="-10" on="0"/>
        <pt x="320" y="-10" on="1"/>
        <pt x="263" y="-10" on="0"/>
        <pt x="166" y="22" on="0"/>
        <pt x="95" y="79" on="0"/>
        <pt x="55" y="154" on="0"/>
        <pt x="55" y="198" on="1"/>
        <pt x="55" y="226" on="0"/>
        <pt x="73" y="273" on="0"/>
        <pt x="105" y="311" on="0"/>
        <pt x="146" y="340" on="0"/>
      </contour>
      <contour>
        <pt x="394" y="392" on="1"/>
        <pt x="407" y="387" on="0"/>
        <pt x="418" y="393" on="0"/>
        <pt x="425" y="399" on="1"/>
        <pt x="439" y="413" on="0"/>
        <pt x="462" y="448" on="0"/>
        <pt x="462" y="468" on="1"/>
        <pt x="462" y="503" on="0"/>
        <pt x="403" y="545" on="0"/>
        <pt x="357" y="545" on="1"/>
        <pt x="338" y="545" on="0"/>
        <pt x="301" y="537" on="0"/>
        <pt x="271" y="520" on="0"/>
        <pt x="252" y="494" on="0"/>
        <pt x="252" y="477" on="1"/>
        <pt x="252" y="456" on="0"/>
        <pt x="287" y="433" on="0"/>
        <pt x="319" y="421" on="1"/>
      </contour>
      <contour>
        <pt x="277" y="298" on="1"/>
        <pt x="263" y="303" on="0"/>
        <pt x="247" y="297" on="0"/>
        <pt x="238" y="290" on="1"/>
        <pt x="221" y="276" on="0"/>
        <pt x="201" y="240" on="0"/>
        <pt x="201" y="220" on="1"/>
        <pt x="201" y="176" on="0"/>
        <pt x="272" y="123" on="0"/>
        <pt x="330" y="123" on="1"/>
        <pt x="353" y="123" on="0"/>
        <pt x="396" y="135" on="0"/>
        <pt x="429" y="156" on="0"/>
        <pt x="449" y="185" on="0"/>
        <pt x="449" y="202" on="1"/>
        <pt x="449" y="224" on="0"/>
        <pt x="409" y="247" on="0"/>
        <pt x="368" y="263" on="1"/>
      </contour>
    </TTGlyph>
    <TTGlyph name="eight.lprop" xMin="44" yMin="-10" xMax="589" yMax="673">
      <component glyphName="eight" x="-11" y="0" flags="0x4"/>
    </TTGlyph>
    <TTGlyph name="eight.oprop" xMin="38" yMin="-8" xMax="573" yMax="677">
      <contour>
        <pt x="153" y="356" on="1"/>
        <pt x="128" y="377" on="0"/>
        <pt x="94" y="442" on="0"/>
        <pt x="94" y="479" on="1"/>
        <pt x="94" y="523" on="0"/>
        <pt x="135" y="596" on="0"/>
        <pt x="203" y="648" on="0"/>
        <pt x="292" y="677" on="0"/>
        <pt x="340" y="677" on="1"/>
        <pt x="390" y="677" on="0"/>
        <pt x="473" y="647" on="0"/>
        <pt x="533" y="597" on="0"/>
        <pt x="567" y="532" on="0"/>
        <pt x="567" y="497" on="1"/>
        <pt x="567" y="452" on="0"/>
        <pt x="517" y="375" on="0"/>
        <pt x="478" y="348" on="1"/>
        <pt x="521" y="325" on="0"/>
        <pt x="573" y="259" on="0"/>
        <pt x="573" y="212" on="1"/>
        <pt x="573" y="162" on="0"/>
        <pt x="530" y="81" on="0"/>
        <pt x="455" y="24" on="0"/>
        <pt x="355" y="-8" on="0"/>
        <pt x="299" y="-8" on="1"/>
        <pt x="244" y="-8" on="0"/>
        <pt x="149" y="22" on="0"/>
        <pt x="78" y="76" on="0"/>
        <pt x="38" y="152" on="0"/>
        <pt x="38" y="198" on="1"/>
        <pt x="38" y="225" on="0"/>
        <pt x="56" y="273" on="0"/>
        <pt x="88" y="313" on="0"/>
        <pt x="130" y="344" on="0"/>
      </contour>
      <contour>
        <pt x="373" y="390" on="1"/>
        <pt x="383" y="386" on="0"/>
        <pt x="395" y="389" on="0"/>
        <pt x="403" y="397" on="1"/>
        <pt x="417" y="410" on="0"/>
        <pt x="439" y="451" on="0"/>
        <pt x="439" y="474" on="1"/>
        <pt x="439" y="511" on="0"/>
        <pt x="378" y="556" on="0"/>
        <pt x="332" y="556" on="1"/>
        <pt x="313" y="556" on="0"/>
        <pt x="277" y="547" on="0"/>
        <pt x="248" y="529" on="0"/>
        <pt x="231" y="502" on="0"/>
        <pt x="231" y="484" on="1"/>
        <pt x="231" y="460" on="0"/>
        <pt x="270" y="431" on="0"/>
        <pt x="302" y="418" on="1"/>
      </contour>
      <contour>
        <pt x="254" y="305" on="1"/>
        <pt x="243" y="309" on="0"/>
        <pt x="228" y="308" on="0"/>
        <pt x="219" y="300" on="1"/>
        <pt x="204" y="286" on="0"/>
        <pt x="180" y="244" on="0"/>
        <pt x="180" y="218" on="1"/>
        <pt x="180" y="174" on="0"/>
        <pt x="245" y="117" on="0"/>
        <pt x="304" y="117" on="1"/>
        <pt x="330" y="117" on="0"/>
        <pt x="376" y="131" on="0"/>
        <pt x="409" y="154" on="0"/>
        <pt x="428" y="184" on="0"/>
        <pt x="428" y="201" on="1"/>
        <pt x="428" y="224" on="0"/>
        <pt x="394" y="250" on="0"/>
        <pt x="350" y="267" on="1"/>
      </contour>
    </TTGlyph>
    <TTGlyph name="eight.otab" xMin="52" yMin="-8" xMax="587" yMax="677">
      <contour>
        <pt x="167" y="356" on="1"/>
        <pt x="142" y="377" on="0"/>
        <pt x="108" y="442" on="0"/>
        <pt x="108" y="479" on="1"/>
        <pt x="108" y="523" on="0"/>
        <pt x="149" y="596" on="0"/>
        <pt x="217" y="648" on="0"/>
        <pt x="306" y="677" on="0"/>
        <pt x="354" y="677" on="1"/>
        <pt x="404" y="677" on="0"/>
        <pt x="487" y="647" on="0"/>
        <pt x="547" y="597" on="0"/>
        <pt x="581" y="532" on="0"/>
        <pt x="581" y="497" on="1"/>
        <pt x="581" y="452" on="0"/>
        <pt x="531" y="375" on="0"/>
        <pt x="492" y="348" on="1"/>
        <pt x="535" y="325" on="0"/>
        <pt x="587" y="259" on="0"/>
        <pt x="587" y="212" on="1"/>
        <pt x="587" y="162" on="0"/>
        <pt x="544" y="81" on="0"/>
        <pt x="469" y="24" on="0"/>
        <pt x="369" y="-8" on="0"/>
        <pt x="313" y="-8" on="1"/>
        <pt x="258" y="-8" on="0"/>
        <pt x="163" y="22" on="0"/>
        <pt x="92" y="76" on="0"/>
        <pt x="52" y="152" on="0"/>
        <pt x="52" y="198" on="1"/>
        <pt x="52" y="225" on="0"/>
        <pt x="70" y="273" on="0"/>
        <pt x="102" y="313" on="0"/>
        <pt x="144" y="344" on="0"/>
      </contour>
      <contour>
        <pt x="387" y="390" on="1"/>
        <pt x="397" y="386" on="0"/>
        <pt x="409" y="389" on="0"/>
        <pt x="417" y="397" on="1"/>
        <pt x="431" y="410" on="0"/>
        <pt x="453" y="451" on="0"/>
        <pt x="453" y="474" on="1"/>
        <pt x="453" y="511" on="0"/>
        <pt x="392" y="556" on="0"/>
        <pt x="346" y="556" on="1"/>
        <pt x="327" y="556" on="0"/>
        <pt x="291" y="547" on="0"/>
        <pt x="262" y="529" on="0"/>
        <pt x="245" y="502" on="0"/>
        <pt x="245" y="484" on="1"/>
        <pt x="245" y="460" on="0"/>
        <pt x="284" y="431" on="0"/>
        <pt x="316" y="418" on="1"/>
      </contour>
      <contour>
        <pt x="268" y="305" on="1"/>
        <pt x="257" y="309" on="0"/>
        <pt x="242" y="308" on="0"/>
        <pt x="233" y="300" on="1"/>
        <pt x="218" y="286" on="0"/>
        <pt x="194" y="244" on="0"/>
        <pt x="194" y="218" on="1"/>
        <pt x="194" y="174" on="0"/>
        <pt x="259" y="117" on="0"/>
        <pt x="318" y="117" on="1"/>
        <pt x="344" y="117" on="0"/>
        <pt x="390" y="131" on="0"/>
        <pt x="423" y="154" on="0"/>
        <pt x="442" y="184" on="0"/>
        <pt x="442" y="201" on="1"/>
        <pt x="442" y="224" on="0"/>
        <pt x="408" y="250" on="0"/>
        <pt x="364" y="267" on="1"/>
      </contour>
    </TTGlyph>
    <TTGlyph name="ellipsis" xMin="15" yMin="0" xMax="662" yMax="151">
      <contour>
        <pt x="152" y="151" on="1"/>
        <pt x="186" y="151" on="0"/>
        <pt x="182" y="120" on="1"/>
        <pt x="168" y="0" on="1"/>
        <pt x="15" y="0" on="1"/>
        <pt x="33" y="151" on="1"/>
      </contour>
      <contour>
        <pt x="390" y="151" on="1"/>
        <pt x="424" y="151" on="0"/>
        <pt x="420" y="120" on="1"/>
        <pt x="406" y="0" on="1"/>
        <pt x="253" y="0" on="1"/>
        <pt x="271" y="151" on="1"/>
      </contour>
      <contour>
        <pt x="628" y="151" on="1"/>
        <pt x="662" y="151" on="0"/>
        <pt x="658" y="120" on="1"/>
        <pt x="644" y="0" on="1"/>
        <pt x="491" y="0" on="1"/>
        <pt x="509" y="151" on="1"/>
      </contour>
    </TTGlyph>
    <TTGlyph name="emacron" xMin="24" yMin="-8" xMax="498" yMax="691">
      <component glyphName="e" x="0" y="0" flags="0x204"/>
      <component glyphName="macron" x="59" y="0" flags="0x4"/>
    </TTGlyph>
    <TTGlyph name="emdash" xMin="36" yMin="184" xMax="1011" yMax="303">
      <contour>
        <pt x="36" y="184" on="1"/>
        <pt x="51" y="303" on="1"/>
        <pt x="1011" y="303" on="1"/>
        <pt x="996" y="184" on="1"/>
      </contour>
    </TTGlyph>
    <TTGlyph name="emdash.cap" xMin="46" yMin="271" xMax="1021" yMax="391">
      <contour>
        <pt x="46" y="271" on="1"/>
        <pt x="61" y="391" on="1"/>
        <pt x="1021" y="391" on="1"/>
        <pt x="1006" y="271" on="1"/>
      </contour>
    </TTGlyph>
    <TTGlyph name="endash" xMin="36" yMin="184" xMax="531" yMax="303">
      <contour>
        <pt x="36" y="184" on="1"/>
        <pt x="51" y="303" on="1"/>
        <pt x="531" y="303" on="1"/>
        <pt x="516" y="184" on="1"/>
      </contour>
    </TTGlyph>
    <TTGlyph name="endash.cap" xMin="46" yMin="271" xMax="541" yMax="391">
      <contour>
        <pt x="46" y="271" on="1"/>
        <pt x="61" y="391" on="1"/>
        <pt x="541" y="391" on="1"/>
        <pt x="526" y="271" on="1"/>
      </contour>
    </TTGlyph>
    <TTGlyph name="eng" xMin="25" yMin="-212" xMax="510" yMax="496">
      <contour>
        <pt x="362" y="279" on="1"/>
        <pt x="363" y="286" on="0"/>
        <pt x="365" y="307" on="0"/>
        <pt x="365" y="313" on="1"/>
        <pt x="365" y="339" on="0"/>
        <pt x="331" y="360" on="0"/>
        <pt x="299" y="360" on="1"/>
        <pt x="278" y="360" on="0"/>
        <pt x="236" y="351" on="0"/>
        <pt x="221" y="345" on="1"/>
        <pt x="213" y="342" on="0"/>
        <pt x="209" y="336" on="0"/>
        <pt x="208" y="329" on="1"/>
        <pt x="169" y="0" on="1"/>
        <pt x="25" y="0" on="1"/>
        <pt x="83" y="488" on="1"/>
        <pt x="193" y="488" on="1"/>
        <pt x="204" y="443" on="1"/>
        <pt x="240" y="463" on="1"/>
        <pt x="300" y="496" on="0"/>
        <pt x="352" y="496" on="1"/>
        <pt x="389" y="496" on="0"/>
        <pt x="447" y="472" on="0"/>
        <pt x="488" y="429" on="0"/>
        <pt x="510" y="370" on="0"/>
        <pt x="510" y="334" on="1"/>
        <pt x="510" y="320" on="0"/>
        <pt x="507" y="288" on="0"/>
        <pt x="505" y="267" on="1"/>
        <pt x="470" y="-27" on="1"/>
        <pt x="464" y="-79" on="0"/>
        <pt x="437" y="-147" on="0"/>
        <pt x="416" y="-169" on="1"/>
        <pt x="373" y="-212" on="0"/>
        <pt x="300" y="-212" on="1"/>
        <pt x="276" y="-212" on="0"/>
        <pt x="220" y="-202" on="0"/>
        <pt x="195" y="-193" on="1"/>
        <pt x="204" y="-117" on="1"/>
        <pt x="257" y="-108" on="1"/>
        <pt x="276" y="-105" on="0"/>
        <pt x="300" y="-97" on="0"/>
        <pt x="314" y="-84" on="0"/>
        <pt x="321" y="-63" on="0"/>
        <pt x="323" y="-47" on="1"/>
      </contour>
    </TTGlyph>
    <TTGlyph name="eogonek" xMin="24" yMin="-229" xMax="498" yMax="496">
      <contour>
        <pt x="473" y="69" on="1"/>
        <pt x="403" y="21" on="0"/>
        <pt x="329" y="-54" on="0"/>
        <pt x="329" y="-92" on="1"/>
        <pt x="329" y="-136" on="0"/>
        <pt x="379" y="-136" on="1"/>
        <pt x="390" y="-136" on="0"/>
        <pt x="427" y="-131" on="0"/>
        <pt x="441" y="-129" on="1"/>
        <pt x="453" y="-202" on="1"/>
        <pt x="429" y="-214" on="0"/>
        <pt x="368" y="-229" on="0"/>
        <pt x="344" y="-229" on="1"/>
        <pt x="288" y="-229" on="0"/>
        <pt x="221" y="-168" on="0"/>
        <pt x="221" y="-122" on="1"/>
        <pt x="221" y="-85" on="0"/>
        <pt x="266" y="-26" on="0"/>
        <pt x="294" y="-5" on="1"/>
        <pt x="287" y="-7" on="0"/>
        <pt x="266" y="-8" on="0"/>
        <pt x="257" y="-8" on="1"/>
        <pt x="206" y="-8" on="0"/>
        <pt x="120" y="25" on="0"/>
        <pt x="58" y="85" on="0"/>
        <pt x="24" y="170" on="0"/>
        <pt x="24" y="222" on="1"/>
        <pt x="24" y="284" on="0"/>
        <pt x="66" y="385" on="0"/>
        <pt x="137" y="457" on="0"/>
        <pt x="229" y="496" on="0"/>
        <pt x="280" y="496" on="1"/>
        <pt x="326" y="496" on="0"/>
        <pt x="405" y="464" on="0"/>
        <pt x="464" y="406" on="0"/>
        <pt x="498" y="324" on="0"/>
        <pt x="498" y="274" on="1"/>
        <pt x="498" y="234" on="0"/>
        <pt x="482" y="198" on="0"/>
        <pt x="460" y="198" on="1"/>
        <pt x="169" y="198" on="1"/>
        <pt x="174" y="158" on="0"/>
        <pt x="229" y="117" on="0"/>
        <pt x="276" y="117" on="1"/>
        <pt x="297" y="117" on="0"/>
        <pt x="348" y="126" on="0"/>
        <pt x="380" y="134" on="1"/>
        <pt x="438" y="148" on="1"/>
      </contour>
      <contour>
        <pt x="361" y="296" on="1"/>
        <pt x="359" y="330" on="0"/>
        <pt x="316" y="373" on="0"/>
        <pt x="278" y="373" on="1"/>
        <pt x="241" y="373" on="0"/>
        <pt x="189" y="333" on="0"/>
        <pt x="178" y="296" on="1"/>
      </contour>
    </TTGlyph>
    <TTGlyph name="equal" xMin="40" yMin="83" xMax="504" yMax="410">
      <contour>
        <pt x="65" y="287" on="1"/>
        <pt x="81" y="410" on="1"/>
        <pt x="504" y="410" on="1"/>
        <pt x="488" y="287" on="1"/>
      </contour>
      <contour>
        <pt x="40" y="83" on="1"/>
        <pt x="56" y="206" on="1"/>
        <pt x="479" y="206" on="1"/>
        <pt x="463" y="83" on="1"/>
      </contour>
    </TTGlyph>
</ttFont>
